<svg width="10" height="8" viewBox="0 0 10 8" fill="none" xmlns="http://www.w3.org/2000/svg">
<path d="M9.81936 1.22575L8.94196 0.348344C8.82165 0.227946 8.67533 0.167725 8.50334 0.167725C8.3312 0.167725 8.18488 0.227946 8.06457 0.348344L3.83226 4.58706L1.93547 2.68381C1.81503 2.56336 1.6688 2.50321 1.49681 2.50321C1.32471 2.50321 1.17849 2.56336 1.05805 2.68381L0.180642 3.56123C0.0601989 3.68165 0 3.82793 0 4C0 4.17195 0.0601989 4.31835 0.180642 4.43875L2.51608 6.77415L3.39355 7.65155C3.51393 7.77204 3.6602 7.83219 3.83226 7.83219C4.00424 7.83219 4.15052 7.77188 4.27096 7.65155L5.14841 6.77415L9.81936 2.10322C9.93969 1.98278 10 1.83653 10 1.66445C10.0001 1.49246 9.93969 1.34619 9.81936 1.22575Z" fill="black"/>
</svg>
