<svg width="21" height="21" fill="none" xmlns="http://www.w3.org/2000/svg"><path d="M20.605 6.01L10.761.075a.49.49 0 00-.522 0L.395 6.01c-.526.317-.527 1.358 0 1.676L3.937 9.82v5.7C3.937 18.595 6.82 21 10.5 21c3.68 0 6.563-2.406 6.563-5.478v-5.7l.656-.397v9.749c0 .504.294.913.657.913.362 0 .656-.409.656-.913V8.634l1.573-.948c.526-.317.527-1.359 0-1.676zM10.5 1.908l8.194 4.94-.65.392-7.463-1.298c-.36-.062-.687.292-.732.793-.045.5.21.956.57 1.019l5.256.914-5.175 3.12-8.194-4.94 8.194-4.94zm5.25 13.614c0 .86-.507 1.746-1.392 2.43-2.108 1.629-5.602 1.633-7.716 0-.885-.684-1.392-1.57-1.392-2.43v-4.91l4.989 3.008a.49.49 0 00.522 0l4.99-3.007v4.909z" fill="#035635"/></svg>