<svg width="68" height="60" fill="none" xmlns="http://www.w3.org/2000/svg"><path d="M66.772 8.283l-5.967-6.869C59.987.47 58.992 0 57.823 0c-1.17 0-2.166.471-2.984 1.414L26.06 34.596l-12.898-14.9c-.819-.942-1.813-1.413-2.983-1.413-1.17 0-2.164.47-2.983 1.414l-5.967 6.869C.41 27.508 0 28.652 0 30c0 1.346.41 2.492 1.228 3.435L17.11 51.717l5.967 6.869C23.895 59.529 24.89 60 26.06 60c1.17 0 2.165-.472 2.983-1.414l5.967-6.869 31.763-36.565C67.59 14.209 68 13.064 68 11.717s-.41-2.492-1.228-3.434z" fill="#035635"/></svg>