<svg width="21" height="21" fill="none" xmlns="http://www.w3.org/2000/svg"><path d="M19.385 3.773H21v-1.23h-3.23V0h-4.847v2.543H0v1.23h1.615v5.538c0 .472.235.903.62 1.23-.385.327-.62.758-.62 1.23 0 .473.235.904.62 1.231-.385.327-.62.758-.62 1.23v5.538H0V21h21v-1.23h-1.615v-5.538c0-.472-.235-.903-.62-1.23.385-.327.62-.758.62-1.23 0-.473-.235-.904-.62-1.231.385-.327.62-.758.62-1.23V3.773zm-1.616 7.998c0 .34-.362.616-.807.616H4.038c-.445 0-.807-.276-.807-.616 0-.339.362-.615.807-.615h12.924c.445 0 .807.276.807.615zm0 2.461v3.077H3.231v-3.077c0-.339.362-.615.807-.615h12.924c.445 0 .807.276.807.615zM4.04 9.926c-.446 0-.808-.276-.808-.615V6.234H17.77v3.077c0 .339-.362.615-.807.615H4.038zm10.5-8.696h1.615v1.313H14.54V1.23zm3.23 2.543v1.23H3.231v-1.23h14.538zM3.231 19.77v-1.23h14.538v1.23H3.231z" fill="#035635"/></svg>