<svg width="21" height="21" fill="none" xmlns="http://www.w3.org/2000/svg"><path d="M20.4 3.4L10.874.063a1.14 1.14 0 00-.746 0L.6 3.4c-.363.128-.6.427-.6.758v4.058c0 5.586 4.002 10.612 10.133 12.723.235.081.499.081.734 0C16.997 18.828 21 13.802 21 8.216V4.158c0-.331-.236-.63-.6-.758zm-1.344 4.816c0 4.749-3.306 9.121-8.556 11.073-5.11-1.9-8.556-6.195-8.556-11.073v-3.51L10.5 1.708l8.556 2.998v3.51zm-9.63 2.764l4.178-3.525c.38-.32.995-.32 1.375 0s.38.84 0 1.16l-4.866 4.106c-.38.32-.995.32-1.375 0L6.02 10.428c-.38-.32-.38-.84 0-1.16.38-.32.995-.32 1.375 0l2.03 1.712z" fill="#035635"/></svg>