<svg width="21" height="21" fill="none" xmlns="http://www.w3.org/2000/svg"><path d="M10.91 20.18a.82.82 0 01-.82.82H.82a.82.82 0 01-.82-.82V8.887a.82.82 0 01.295-.63L9.975.19a.82.82 0 011.05 0l9.68 8.067a.82.82 0 01-1.05 1.26L10.5 1.888 1.64 9.271v10.088h8.45a.82.82 0 01.82.82zm8.791-2.22c-.9 1.086-2.244 2.08-3.995 2.954a.82.82 0 01-.733 0c-1.75-.875-3.095-1.868-3.995-2.954-2.671-3.22-.81-6.775 1.942-6.775 1.097 0 1.904.449 2.42.87a3.778 3.778 0 012.42-.87c2.758 0 4.606 3.563 1.941 6.775zm-1.941-5.135c-1.135 0-1.73.851-1.737.86a.812.812 0 01-1.365.003c-.05-.07-.639-.863-1.738-.863-1.768 0-3.287 3.408 2.42 6.432 5.707-3.024 4.188-6.432 2.42-6.432z" fill="#035635"/></svg>