<svg width="129" height="114" viewBox="0 0 129 114" fill="none" xmlns="http://www.w3.org/2000/svg">
<path fill-rule="evenodd" clip-rule="evenodd" d="M1.20435 48.4986L14.1496 1.13613L99.3981 7.41901L95.1211 21.5012H95.4949L99.8703 7.09519L13.8822 0.757812L0.802734 48.6115L68.0133 111.985L82.786 63.3456H82.4122L67.8387 111.329L1.20435 48.4986Z" fill="#F8F8F8"/>
<path fill-rule="evenodd" clip-rule="evenodd" d="M98.4544 8.06547L94.1568 22.2153H96.0257L100.815 6.44638L13.348 0L0 48.8361L68.3628 113.296L83.7513 62.6291H81.8824L67.4902 110.016L2.00807 48.2717L14.6848 1.8916L98.4544 8.06547Z" fill="#F8F8F8"/>
<path d="M24.9493 50.2659C22.6146 50.2659 20.7949 49.5964 19.4902 48.2573C18.1855 46.9183 17.5332 44.9699 17.5332 42.412V32.0861H19.4387V42.3348C19.4387 44.4291 19.9108 45.9913 20.855 47.0213C21.7992 48.0513 23.164 48.5664 24.9493 48.5664C26.7518 48.5664 28.1252 48.0513 29.0694 47.0213C30.0136 45.9913 30.4857 44.4291 30.4857 42.3348V32.0861H32.3397V42.412C32.3397 44.9699 31.6873 46.9183 30.3827 48.2573C29.0951 49.5964 27.284 50.2659 24.9493 50.2659ZM22.6575 30.0261C22.3485 30.0261 22.0824 29.9231 21.8593 29.7171C21.6533 29.5111 21.5503 29.245 21.5503 28.9188C21.5503 28.6098 21.6533 28.3523 21.8593 28.1463C22.0824 27.9231 22.3485 27.8115 22.6575 27.8115C22.9494 27.8115 23.2069 27.9231 23.43 28.1463C23.6532 28.3523 23.7648 28.6098 23.7648 28.9188C23.7648 29.2278 23.6532 29.4939 23.43 29.7171C23.224 29.9231 22.9665 30.0261 22.6575 30.0261ZM27.2411 30.0261C26.9321 30.0261 26.666 29.9231 26.4428 29.7171C26.2368 29.4939 26.1338 29.2278 26.1338 28.9188C26.1338 28.6098 26.2454 28.3523 26.4686 28.1463C26.6918 27.9231 26.9493 27.8115 27.2411 27.8115C27.5501 27.8115 27.8076 27.9231 28.0136 28.1463C28.2368 28.3523 28.3484 28.6098 28.3484 28.9188C28.3484 29.245 28.2368 29.5111 28.0136 29.7171C27.8076 29.9231 27.5501 30.0261 27.2411 30.0261Z" fill="#F8F8F8"/>
<path d="M42.7421 43.3133L39.549 46.2488V50.1114H37.7207V31.0046H39.549V43.957L47.6346 36.5667H49.9007L44.1068 42.103L50.4414 50.1114H48.2012L42.7421 43.3133Z" fill="#F8F8F8"/>
<path d="M56.4397 50.2401C55.341 50.2401 54.2853 50.0856 53.2724 49.7766C52.2767 49.4504 51.4956 49.047 50.9291 48.5664L51.7531 47.1243C52.3196 47.5707 53.0321 47.9398 53.8904 48.2316C54.7488 48.5063 55.6414 48.6436 56.5685 48.6436C57.8045 48.6436 58.7143 48.4548 59.298 48.0771C59.8988 47.6823 60.1993 47.1329 60.1993 46.4291C60.1993 45.9312 60.0362 45.545 59.71 45.2703C59.3838 44.9785 58.9718 44.7639 58.474 44.6265C57.9761 44.472 57.3152 44.3261 56.4912 44.1888C55.3925 43.9828 54.5084 43.7768 53.8389 43.5708C53.1694 43.3476 52.5943 42.9785 52.1136 42.4635C51.6501 41.9485 51.4184 41.2361 51.4184 40.3262C51.4184 39.1932 51.8905 38.2662 52.8346 37.5452C53.7788 36.8242 55.0921 36.4637 56.7745 36.4637C57.65 36.4637 58.5255 36.5838 59.401 36.8242C60.2765 37.0473 60.9975 37.3478 61.564 37.7254L60.7658 39.1932C59.6499 38.4207 58.3195 38.0344 56.7745 38.0344C55.6071 38.0344 54.723 38.2404 54.1222 38.6524C53.5385 39.0645 53.2467 39.6052 53.2467 40.2747C53.2467 40.7897 53.4097 41.2017 53.7359 41.5107C54.0792 41.8197 54.4998 42.0515 54.9977 42.206C55.4955 42.3433 56.1822 42.4893 57.0577 42.6438C58.1392 42.8498 59.0062 43.0558 59.6585 43.2618C60.3108 43.4678 60.8688 43.8197 61.3323 44.3175C61.7958 44.8154 62.0275 45.5021 62.0275 46.3776C62.0275 47.5621 61.5297 48.5063 60.534 49.2101C59.5555 49.8968 58.1907 50.2401 56.4397 50.2401Z" fill="#F8F8F8"/>
<path d="M72.5655 49.2874C72.2222 49.5964 71.793 49.8367 71.278 50.0084C70.7802 50.1629 70.2566 50.2401 69.7072 50.2401C68.4369 50.2401 67.4584 49.8968 66.7717 49.2101C66.085 48.5234 65.7417 47.5535 65.7417 46.3003V38.1117H63.3211V36.5667H65.7417V33.6054H67.5699V36.5667H71.69V38.1117H67.5699V46.1973C67.5699 47.0042 67.7674 47.6222 68.1622 48.0513C68.5742 48.4633 69.1579 48.6694 69.9132 48.6694C70.2909 48.6694 70.6514 48.6093 70.9947 48.4891C71.3552 48.3689 71.6643 48.1973 71.9218 47.9741L72.5655 49.2874Z" fill="#F8F8F8"/>
<path d="M87.2348 43.9055H75.9046C76.0076 45.3132 76.5484 46.4548 77.5269 47.3303C78.5054 48.1887 79.7415 48.6178 81.235 48.6178C82.0762 48.6178 82.8487 48.4719 83.5525 48.1801C84.2564 47.8711 84.8658 47.4247 85.3808 46.8411L86.4108 48.0256C85.81 48.7466 85.0546 49.2959 84.1448 49.6736C83.2521 50.0513 82.265 50.2401 81.1835 50.2401C79.793 50.2401 78.5569 49.9483 77.4754 49.3646C76.4111 48.7638 75.5785 47.9398 74.9776 46.8926C74.3768 45.8454 74.0764 44.6609 74.0764 43.339C74.0764 42.0172 74.3596 40.8326 74.9261 39.7855C75.5098 38.7383 76.2995 37.9229 77.2952 37.3392C78.308 36.7555 79.441 36.4637 80.6942 36.4637C81.9474 36.4637 83.0718 36.7555 84.0675 37.3392C85.0632 37.9229 85.8443 38.7383 86.4108 39.7855C86.9773 40.8155 87.2606 42 87.2606 43.339L87.2348 43.9055ZM80.6942 38.0344C79.3895 38.0344 78.2909 38.455 77.3982 39.2962C76.5227 40.1202 76.0248 41.2017 75.9046 42.5408H85.5095C85.3894 41.2017 84.883 40.1202 83.9903 39.2962C83.1148 38.455 82.0161 38.0344 80.6942 38.0344Z" fill="#F8F8F8"/>
<path d="M91.0071 36.5667H92.8354V50.1114H91.0071V36.5667ZM91.9341 33.6054C91.5564 33.6054 91.2388 33.4766 90.9813 33.2191C90.7238 32.9616 90.5951 32.6526 90.5951 32.2921C90.5951 31.9488 90.7238 31.6483 90.9813 31.3908C91.2388 31.1333 91.5564 31.0046 91.9341 31.0046C92.3118 31.0046 92.6294 31.1333 92.8869 31.3908C93.1444 31.6312 93.2731 31.923 93.2731 32.2663C93.2731 32.644 93.1444 32.9616 92.8869 33.2191C92.6294 33.4766 92.3118 33.6054 91.9341 33.6054Z" fill="#F8F8F8"/>
<path d="M101.578 50.2401C100.48 50.2401 99.424 50.0856 98.4111 49.7766C97.4155 49.4504 96.6344 49.047 96.0679 48.5664L96.8919 47.1243C97.4584 47.5707 98.1708 47.9398 99.0292 48.2316C99.8875 48.5063 100.78 48.6436 101.707 48.6436C102.943 48.6436 103.853 48.4548 104.437 48.0771C105.038 47.6823 105.338 47.1329 105.338 46.4291C105.338 45.9312 105.175 45.545 104.849 45.2703C104.523 44.9785 104.111 44.7639 103.613 44.6265C103.115 44.472 102.454 44.3261 101.63 44.1888C100.531 43.9828 99.6472 43.7768 98.9777 43.5708C98.3082 43.3476 97.7331 42.9785 97.2524 42.4635C96.7889 41.9485 96.5571 41.2361 96.5571 40.3262C96.5571 39.1932 97.0292 38.2662 97.9734 37.5452C98.9176 36.8242 100.231 36.4637 101.913 36.4637C102.789 36.4637 103.664 36.5838 104.54 36.8242C105.415 37.0473 106.136 37.3478 106.703 37.7254L105.905 39.1932C104.789 38.4207 103.458 38.0344 101.913 38.0344C100.746 38.0344 99.8618 38.2404 99.2609 38.6524C98.6772 39.0645 98.3854 39.6052 98.3854 40.2747C98.3854 40.7897 98.5485 41.2017 98.8747 41.5107C99.218 41.8197 99.6386 42.0515 100.136 42.206C100.634 42.3433 101.321 42.4893 102.196 42.6438C103.278 42.8498 104.145 43.0558 104.797 43.2618C105.45 43.4678 106.008 43.8197 106.471 44.3175C106.935 44.8154 107.166 45.5021 107.166 46.3776C107.166 47.5621 106.668 48.5063 105.673 49.2101C104.694 49.8968 103.329 50.2401 101.578 50.2401Z" fill="#F8F8F8"/>
<path d="M117.704 49.2874C117.361 49.5964 116.932 49.8367 116.417 50.0084C115.919 50.1629 115.395 50.2401 114.846 50.2401C113.576 50.2401 112.597 49.8968 111.91 49.2101C111.224 48.5234 110.88 47.5535 110.88 46.3003V38.1117H108.46V36.5667H110.88V33.6054H112.709V36.5667H116.829V38.1117H112.709V46.1973C112.709 47.0042 112.906 47.6222 113.301 48.0513C113.713 48.4633 114.297 48.6694 115.052 48.6694C115.43 48.6694 115.79 48.6093 116.133 48.4891C116.494 48.3689 116.803 48.1973 117.061 47.9741L117.704 49.2874Z" fill="#F8F8F8"/>
<path d="M91.9118 62.2134C93.1058 62.2134 93.9787 61.5913 94.2497 60.4676H93.5975C93.3868 61.2201 92.7948 61.6415 91.952 61.6415C90.8483 61.6415 90.0355 60.8789 90.0054 59.5645H94.2998C94.3801 57.8789 93.4068 56.5946 91.8918 56.5946C90.4469 56.5946 89.3633 57.6682 89.3633 59.404C89.3633 61.0796 90.3365 62.2134 91.9118 62.2134ZM91.8817 57.1565C92.9653 57.1565 93.6175 58.0796 93.6175 58.9926H90.0255C90.1559 57.7886 90.8784 57.1565 91.8817 57.1565Z" fill="#F8F8F8"/>
<path d="M96.0164 54.8086H95.3943V62.083H96.0164V54.8086Z" fill="#F8F8F8"/>
<path d="M100.866 62.083H101.489V56.6849H100.866V59.7251C100.866 60.8689 100.144 61.6515 99.2912 61.6515C98.2377 61.6515 97.9968 60.9692 97.9968 59.9558V56.6849H97.3748V60.1264C97.3748 61.4508 97.8965 62.2134 99.1306 62.2134C100.064 62.2134 100.596 61.7218 100.866 61.21V62.083Z" fill="#F8F8F8"/>
<path d="M105.376 56.6548C105.346 56.6447 105.305 56.6447 105.275 56.6447H105.195C104.553 56.6447 103.841 57.0361 103.6 57.6682V56.6849H103.008V62.083H103.62V59.2535C103.62 58.1097 103.981 57.307 105.095 57.307H105.225C105.275 57.307 105.326 57.307 105.376 57.317V56.6548Z" fill="#F8F8F8"/>
<path d="M106.37 60.7284C106.37 59.8956 107.323 59.5946 109.511 59.3538V59.6147C109.511 61.1398 108.608 61.6616 107.604 61.6616C106.882 61.6616 106.37 61.3003 106.37 60.7284ZM109.521 62.083H110.153C110.123 61.491 110.093 60.9692 110.093 60.3572C110.093 59.9257 110.103 59.4441 110.103 58.6916C110.103 57.0862 109.27 56.5645 108.016 56.5645C106.802 56.5645 105.959 57.2568 105.808 58.3304H106.46C106.511 57.618 107.052 57.1163 107.975 57.1163C108.748 57.1163 109.481 57.3772 109.481 58.6113V58.802C106.882 59.0729 105.678 59.5043 105.678 60.7385C105.678 61.6315 106.45 62.2134 107.464 62.2134C108.467 62.2134 109.139 61.8321 109.491 61.2602L109.521 62.083Z" fill="#F8F8F8"/>
<path d="M111.425 62.4141C111.425 63.1265 111.374 63.2669 110.702 63.2669H110.582V63.8388H110.913C111.876 63.8388 112.047 63.5077 112.047 62.4241V56.6849H111.425V62.4141ZM111.425 54.8086V55.8019H112.047V54.8086H111.425Z" fill="#F8F8F8"/>
<path d="M113.806 59.404C113.806 57.8488 114.539 57.1665 115.582 57.1665C116.616 57.1665 117.368 57.8488 117.368 59.404C117.368 60.9592 116.616 61.6415 115.582 61.6415C114.539 61.6415 113.806 60.9592 113.806 59.404ZM113.144 59.404C113.144 61.3706 114.298 62.2134 115.582 62.2134C116.877 62.2134 118.031 61.3706 118.031 59.404C118.031 57.4374 116.877 56.5946 115.582 56.5946C114.298 56.5946 113.144 57.4374 113.144 59.404Z" fill="#F8F8F8"/>
<path d="M119.445 59.404C119.445 57.8488 120.178 57.1665 121.221 57.1665C122.255 57.1665 123.007 57.8488 123.007 59.404C123.007 60.9592 122.255 61.6415 121.221 61.6415C120.178 61.6415 119.445 60.9592 119.445 59.404ZM118.783 59.404C118.783 61.3706 119.937 62.2134 121.221 62.2134C122.516 62.2134 123.67 61.3706 123.67 59.404C123.67 57.4374 122.516 56.5946 121.221 56.5946C119.937 56.5946 118.783 57.4374 118.783 59.404Z" fill="#F8F8F8"/>
<path d="M125.387 56.6849H124.765V62.083H125.387V59.0829C125.387 57.9391 126.09 57.1565 127.023 57.1565C128.106 57.1565 128.377 57.8387 128.377 58.8521V62.083H128.999V58.6816C128.999 57.3571 128.458 56.5946 127.183 56.5946C126.17 56.5946 125.658 57.0862 125.387 57.5979V56.6849Z" fill="#F8F8F8"/>
</svg>
