<svg width="75" height="66" viewBox="0 0 75 66" fill="#1D1F1D" xmlns="http://www.w3.org/2000/svg">
<path fill-rule="evenodd" clip-rule="evenodd" d="M0.69135 28.4872L8.11826 1.31452L57.0268 4.91911L54.573 12.9983H54.7874L57.2977 4.73333L7.96487 1.09747L0.460938 28.5519L39.0208 64.9105L47.4961 37.0051H47.2817L38.9206 64.5341L0.69135 28.4872Z"/>
<path fill-rule="evenodd" clip-rule="evenodd" d="M56.4849 5.29051L54.0194 13.4085H55.0916L57.8393 4.3616L7.65798 0.663208L0 28.6813L39.2209 65.6632L48.0495 36.5946H46.9773L38.7203 63.7811L1.15206 28.3575L8.42493 1.74845L56.4849 5.29051Z"/>
<path d="M14.3133 29.5018C12.9739 29.5018 11.9299 29.1177 11.1814 28.3495C10.4329 27.5813 10.0586 26.4634 10.0586 24.9959V19.0718H11.1518V24.9516C11.1518 26.1532 11.4227 27.0494 11.9644 27.6404C12.5061 28.2313 13.2891 28.5268 14.3133 28.5268C15.3475 28.5268 16.1354 28.2313 16.6771 27.6404C17.2188 27.0494 17.4896 26.1532 17.4896 24.9516V19.0718H18.5533V24.9959C18.5533 26.4634 18.1791 27.5813 17.4305 28.3495C16.6919 29.1177 15.6528 29.5018 14.3133 29.5018ZM12.9985 17.8899C12.8212 17.8899 12.6686 17.8308 12.5405 17.7126C12.4223 17.5944 12.3633 17.4418 12.3633 17.2546C12.3633 17.0774 12.4223 16.9296 12.5405 16.8114C12.6686 16.6834 12.8212 16.6194 12.9985 16.6194C13.1659 16.6194 13.3137 16.6834 13.4417 16.8114C13.5697 16.9296 13.6338 17.0774 13.6338 17.2546C13.6338 17.4319 13.5697 17.5846 13.4417 17.7126C13.3235 17.8308 13.1758 17.8899 12.9985 17.8899ZM15.6282 17.8899C15.4509 17.8899 15.2982 17.8308 15.1702 17.7126C15.052 17.5846 14.9929 17.4319 14.9929 17.2546C14.9929 17.0774 15.0569 16.9296 15.185 16.8114C15.313 16.6834 15.4608 16.6194 15.6282 16.6194C15.8055 16.6194 15.9532 16.6834 16.0714 16.8114C16.1994 16.9296 16.2634 17.0774 16.2634 17.2546C16.2634 17.4418 16.1994 17.5944 16.0714 17.7126C15.9532 17.8308 15.8055 17.8899 15.6282 17.8899Z"/>
<path d="M24.5213 25.513L22.6894 27.1972V29.4132H21.6405V18.4513H22.6894V25.8823L27.3283 21.6424H28.6284L25.3043 24.8186L28.9386 29.4132H27.6533L24.5213 25.513Z"/>
<path d="M32.3799 29.4871C31.7496 29.4871 31.1439 29.3984 30.5628 29.2211C29.9915 29.034 29.5434 28.8026 29.2184 28.5268L29.6911 27.6995C30.0162 27.9555 30.4249 28.1673 30.9173 28.3347C31.4098 28.4923 31.9219 28.5711 32.4538 28.5711C33.1629 28.5711 33.6849 28.4628 34.0198 28.2461C34.3645 28.0196 34.5368 27.7044 34.5368 27.3006C34.5368 27.015 34.4433 26.7934 34.2561 26.6358C34.069 26.4683 33.8326 26.3452 33.547 26.2664C33.2614 26.1778 32.8822 26.0941 32.4095 26.0153C31.7791 25.8971 31.2719 25.7789 30.8878 25.6607C30.5037 25.5327 30.1737 25.3209 29.898 25.0255C29.6321 24.73 29.4991 24.3213 29.4991 23.7993C29.4991 23.1492 29.7699 22.6174 30.3116 22.2037C30.8533 21.7901 31.6068 21.5833 32.572 21.5833C33.0743 21.5833 33.5766 21.6522 34.0789 21.7901C34.5812 21.9181 34.9948 22.0905 35.3198 22.3072L34.8619 23.1492C34.2217 22.706 33.4584 22.4844 32.572 22.4844C31.9022 22.4844 31.395 22.6026 31.0503 22.839C30.7154 23.0754 30.548 23.3856 30.548 23.7697C30.548 24.0652 30.6416 24.3016 30.8287 24.4789C31.0257 24.6561 31.267 24.7891 31.5526 24.8777C31.8382 24.9565 32.2322 25.0402 32.7345 25.1289C33.355 25.2471 33.8523 25.3653 34.2266 25.4835C34.6009 25.6016 34.9209 25.8035 35.1869 26.0892C35.4528 26.3748 35.5857 26.7687 35.5857 27.271C35.5857 27.9506 35.3001 28.4923 34.7289 28.8961C34.1675 29.2901 33.3845 29.4871 32.3799 29.4871Z"/>
<path d="M41.6316 28.9404C41.4346 29.1177 41.1884 29.2556 40.8929 29.3541C40.6073 29.4427 40.3069 29.4871 39.9917 29.4871C39.2629 29.4871 38.7015 29.2901 38.3075 28.8961C37.9136 28.5022 37.7166 27.9457 37.7166 27.2267V22.5288H36.3279V21.6424H37.7166V19.9434H38.7655V21.6424H41.1293V22.5288H38.7655V27.1676C38.7655 27.6305 38.8788 27.9851 39.1053 28.2313C39.3417 28.4677 39.6765 28.5859 40.1099 28.5859C40.3266 28.5859 40.5334 28.5514 40.7304 28.4825C40.9372 28.4135 41.1145 28.315 41.2622 28.187L41.6316 28.9404Z"/>
<path d="M50.0476 25.8528H43.5473C43.6064 26.6604 43.9166 27.3154 44.478 27.8177C45.0394 28.3101 45.7485 28.5563 46.6054 28.5563C47.088 28.5563 47.5312 28.4726 47.935 28.3052C48.3388 28.1279 48.6884 27.8718 48.9839 27.537L49.5748 28.2165C49.2301 28.6302 48.7968 28.9454 48.2748 29.162C47.7626 29.3787 47.1963 29.4871 46.5758 29.4871C45.7781 29.4871 45.0689 29.3196 44.4485 28.9848C43.8378 28.64 43.3601 28.1673 43.0154 27.5665C42.6707 26.9657 42.4984 26.2861 42.4984 25.5278C42.4984 24.7694 42.6609 24.0898 42.9859 23.489C43.3208 22.8882 43.7738 22.4204 44.345 22.0856C44.9261 21.7507 45.5762 21.5833 46.2951 21.5833C47.0141 21.5833 47.6592 21.7507 48.2305 22.0856C48.8017 22.4204 49.2498 22.8882 49.5748 23.489C49.8999 24.08 50.0624 24.7596 50.0624 25.5278L50.0476 25.8528ZM46.2951 22.4844C45.5466 22.4844 44.9163 22.7257 44.4041 23.2083C43.9018 23.6811 43.6162 24.3016 43.5473 25.0698H49.0578C48.9888 24.3016 48.6983 23.6811 48.1861 23.2083C47.6838 22.7257 47.0535 22.4844 46.2951 22.4844Z"/>
<path d="M52.2118 21.6424H53.2607V29.4132H52.2118V21.6424ZM52.7436 19.9434C52.527 19.9434 52.3448 19.8695 52.197 19.7218C52.0493 19.5741 51.9754 19.3968 51.9754 19.19C51.9754 18.993 52.0493 18.8206 52.197 18.6729C52.3448 18.5252 52.527 18.4513 52.7436 18.4513C52.9603 18.4513 53.1425 18.5252 53.2903 18.6729C53.438 18.8108 53.5119 18.9782 53.5119 19.1752C53.5119 19.3919 53.438 19.5741 53.2903 19.7218C53.1425 19.8695 52.9603 19.9434 52.7436 19.9434Z"/>
<path d="M58.2768 29.4871C57.6464 29.4871 57.0407 29.3984 56.4596 29.2211C55.8884 29.034 55.4403 28.8026 55.1153 28.5268L55.588 27.6995C55.913 27.9555 56.3218 28.1673 56.8142 28.3347C57.3067 28.4923 57.8188 28.5711 58.3506 28.5711C59.0598 28.5711 59.5818 28.4628 59.9166 28.2461C60.2613 28.0196 60.4337 27.7044 60.4337 27.3006C60.4337 27.015 60.3401 26.7934 60.153 26.6358C59.9659 26.4683 59.7295 26.3452 59.4439 26.2664C59.1583 26.1778 58.7791 26.0941 58.3063 26.0153C57.676 25.8971 57.1688 25.7789 56.7847 25.6607C56.4005 25.5327 56.0706 25.3209 55.7948 25.0255C55.5289 24.73 55.396 24.3213 55.396 23.7993C55.396 23.1492 55.6668 22.6174 56.2085 22.2037C56.7502 21.7901 57.5036 21.5833 58.4688 21.5833C58.9711 21.5833 59.4734 21.6522 59.9757 21.7901C60.478 21.9181 60.8917 22.0905 61.2167 22.3072L60.7587 23.1492C60.1185 22.706 59.3552 22.4844 58.4688 22.4844C57.7991 22.4844 57.2919 22.6026 56.9472 22.839C56.6123 23.0754 56.4449 23.3856 56.4449 23.7697C56.4449 24.0652 56.5384 24.3016 56.7256 24.4789C56.9225 24.6561 57.1638 24.7891 57.4495 24.8777C57.7351 24.9565 58.129 25.0402 58.6313 25.1289C59.2518 25.2471 59.7492 25.3653 60.1235 25.4835C60.4977 25.6016 60.8178 25.8035 61.0837 26.0892C61.3497 26.3748 61.4826 26.7687 61.4826 27.271C61.4826 27.9506 61.197 28.4923 60.6258 28.8961C60.0644 29.2901 59.2814 29.4871 58.2768 29.4871Z"/>
<path d="M67.5284 28.9404C67.3315 29.1177 67.0852 29.2556 66.7898 29.3541C66.5041 29.4427 66.2037 29.4871 65.8886 29.4871C65.1598 29.4871 64.5984 29.2901 64.2044 28.8961C63.8105 28.5022 63.6135 27.9457 63.6135 27.2267V22.5288H62.2248V21.6424H63.6135V19.9434H64.6624V21.6424H67.0261V22.5288H64.6624V27.1676C64.6624 27.6305 64.7757 27.9851 65.0022 28.2313C65.2386 28.4677 65.5734 28.5859 66.0068 28.5859C66.2234 28.5859 66.4303 28.5514 66.6273 28.4825C66.8341 28.4135 67.0114 28.315 67.1591 28.187L67.5284 28.9404Z"/>
<path d="M52.7317 36.3561C53.4167 36.3561 53.9175 35.9992 54.0729 35.3545H53.6988C53.5779 35.7862 53.2382 36.028 52.7547 36.028C52.1215 36.028 51.6552 35.5905 51.6379 34.8364H54.1017C54.1478 33.8693 53.5894 33.1325 52.7202 33.1325C51.8912 33.1325 51.2695 33.7484 51.2695 34.7443C51.2695 35.7056 51.8279 36.3561 52.7317 36.3561ZM52.7144 33.4549C53.3361 33.4549 53.7103 33.9845 53.7103 34.5083H51.6495C51.7243 33.8175 52.1388 33.4549 52.7144 33.4549Z"/>
<path d="M55.0865 32.1078H54.7296V36.2813H55.0865V32.1078Z"/>
<path d="M57.8691 36.2813H58.226V33.1843H57.8691V34.9285C57.8691 35.5847 57.4546 36.0338 56.9653 36.0338C56.3609 36.0338 56.2228 35.6423 56.2228 35.0609V33.1843H55.8659V35.1588C55.8659 35.9186 56.1652 36.3561 56.8732 36.3561C57.4086 36.3561 57.7137 36.074 57.8691 35.7805V36.2813Z"/>
<path d="M60.4561 33.167C60.4388 33.1613 60.4158 33.1613 60.3986 33.1613H60.3525C59.9841 33.1613 59.5754 33.3858 59.4372 33.7484V33.1843H59.0976V36.2813H59.4487V34.658C59.4487 34.0017 59.656 33.5412 60.2949 33.5412H60.3698C60.3986 33.5412 60.4273 33.5412 60.4561 33.547V33.167Z"/>
<path d="M61.0266 35.5042C61.0266 35.0264 61.5735 34.8537 62.8284 34.7155V34.8652C62.8284 35.7402 62.3103 36.0395 61.7347 36.0395C61.3202 36.0395 61.0266 35.8323 61.0266 35.5042ZM62.8341 36.2813H63.1968C63.1795 35.9416 63.1623 35.6423 63.1623 35.2912C63.1623 35.0436 63.168 34.7673 63.168 34.3356C63.168 33.4146 62.6902 33.1152 61.9707 33.1152C61.2741 33.1152 60.7906 33.5124 60.7043 34.1284H61.0784C61.1072 33.7197 61.4181 33.4318 61.9477 33.4318C62.3909 33.4318 62.8111 33.5815 62.8111 34.2895V34.3989C61.3202 34.5543 60.6294 34.8019 60.6294 35.5099C60.6294 36.0222 61.0727 36.3561 61.6541 36.3561C62.2297 36.3561 62.6154 36.1374 62.8169 35.8092L62.8341 36.2813Z"/>
<path d="M63.9265 36.4712C63.9265 36.88 63.8977 36.9605 63.512 36.9605H63.443V37.2887H63.6329C64.1856 37.2887 64.2834 37.0987 64.2834 36.477V33.1843H63.9265V36.4712ZM63.9265 32.1078V32.6777H64.2834V32.1078H63.9265Z"/>
<path d="M65.293 34.7443C65.293 33.8521 65.7132 33.4606 66.3119 33.4606C66.9048 33.4606 67.3365 33.8521 67.3365 34.7443C67.3365 35.6366 66.9048 36.028 66.3119 36.028C65.7132 36.028 65.293 35.6366 65.293 34.7443ZM64.9131 34.7443C64.9131 35.8726 65.575 36.3561 66.3119 36.3561C67.0545 36.3561 67.7164 35.8726 67.7164 34.7443C67.7164 33.616 67.0545 33.1325 66.3119 33.1325C65.575 33.1325 64.9131 33.616 64.9131 34.7443Z"/>
<path d="M68.5282 34.7443C68.5282 33.8521 68.9484 33.4606 69.5471 33.4606C70.14 33.4606 70.5717 33.8521 70.5717 34.7443C70.5717 35.6366 70.14 36.028 69.5471 36.028C68.9484 36.028 68.5282 35.6366 68.5282 34.7443ZM68.1483 34.7443C68.1483 35.8726 68.8102 36.3561 69.5471 36.3561C70.2897 36.3561 70.9517 35.8726 70.9517 34.7443C70.9517 33.616 70.2897 33.1325 69.5471 33.1325C68.8102 33.1325 68.1483 33.616 68.1483 34.7443Z"/>
<path d="M71.9372 33.1843H71.5803V36.2813H71.9372V34.5601C71.9372 33.9039 72.3401 33.4549 72.8755 33.4549C73.4972 33.4549 73.6526 33.8463 73.6526 34.4277V36.2813H74.0095V34.3298C74.0095 33.57 73.6986 33.1325 72.9676 33.1325C72.3862 33.1325 72.0926 33.4146 71.9372 33.7081V33.1843Z"/>
</svg>
