<svg width="978" height="73" viewBox="0 0 978 73" fill="none" xmlns="http://www.w3.org/2000/svg">
<rect x="36" y="52" width="904" height="2" fill="#C4C4C4"/>
<rect class="st-bar-process" x="36" y="52" width="413" height="2" fill="#314C51"/>
<circle class="st-circlet --c1" cx="99" cy="53" r="6" fill="#858685"/>
<circle class="st-circlet --c2" cx="175" cy="53" r="6" fill="#858685"/>
<circle class="st-circlet --c3" cx="251" cy="53" r="6" fill="#858685"/>
<rect class="st-circle --c1" y="34" width="38" height="38" rx="19" fill="#858685"/>
<rect class="st-circle --c2" x="312" y="34" width="38" height="38" rx="19" fill="#858685"/>
<rect class="st-circle --c3" x="624" y="34" width="38" height="38" rx="19" fill="#858685"/>
<rect class="st-circle --c4" x="936" y="34" width="38" height="38" rx="19" fill="#858685"/>
<circle class="st-circlet --c4" cx="450" cy="53" r="6" fill="#858685"/>
<circle class="st-circlet --c5" cx="526" cy="53" r="6" fill="#858685"/>
<circle class="st-circlet --c6" cx="715" cy="53" r="6" fill="#858685"/>
<circle class="st-circlet --c7" cx="791" cy="53" r="6" fill="#858685"/>
<circle class="st-circlet --c8" cx="867" cy="53" r="6" fill="#858685"/>
<g class="st-tip">
<path fill-rule="evenodd" clip-rule="evenodd" d="M420 0C417.239 0 415 2.23858 415 5V27C415 29.7614 417.239 32 420 32H444.6L449.143 39.5708C449.531 40.2182 450.469 40.2182 450.857 39.5708L455.4 32H479C481.761 32 484 29.7614 484 27V5C484 2.23858 481.761 0 479 0H420Z" fill="#314C51"/>
<path d="M434.848 19.942V18.416L439.468 12.2H441.848L437.326 18.416L436.22 18.094H443.934V19.942H434.848ZM440.126 22V19.942L440.196 18.094V16.26H442.338V22H440.126ZM448.809 22.168C447.988 22.168 447.269 22.0467 446.653 21.804C446.037 21.552 445.556 21.202 445.211 20.754C444.866 20.2967 444.693 19.7647 444.693 19.158C444.693 18.5513 444.861 18.038 445.197 17.618C445.542 17.1887 446.023 16.8667 446.639 16.652C447.255 16.428 447.978 16.316 448.809 16.316C449.649 16.316 450.377 16.428 450.993 16.652C451.618 16.8667 452.099 17.1887 452.435 17.618C452.78 18.038 452.953 18.5513 452.953 19.158C452.953 19.7647 452.78 20.2967 452.435 20.754C452.09 21.202 451.604 21.552 450.979 21.804C450.363 22.0467 449.64 22.168 448.809 22.168ZM448.809 20.502C449.378 20.502 449.826 20.376 450.153 20.124C450.489 19.872 450.657 19.5267 450.657 19.088C450.657 18.6493 450.489 18.3087 450.153 18.066C449.826 17.814 449.378 17.688 448.809 17.688C448.249 17.688 447.806 17.814 447.479 18.066C447.152 18.3087 446.989 18.6493 446.989 19.088C446.989 19.5267 447.152 19.872 447.479 20.124C447.806 20.376 448.249 20.502 448.809 20.502ZM448.809 17.464C448.053 17.464 447.39 17.3613 446.821 17.156C446.261 16.9507 445.822 16.652 445.505 16.26C445.197 15.8587 445.043 15.3827 445.043 14.832C445.043 14.2533 445.202 13.7587 445.519 13.348C445.836 12.928 446.28 12.606 446.849 12.382C447.418 12.1487 448.072 12.032 448.809 12.032C449.565 12.032 450.223 12.1487 450.783 12.382C451.352 12.606 451.796 12.928 452.113 13.348C452.44 13.7587 452.603 14.2533 452.603 14.832C452.603 15.3827 452.444 15.8587 452.127 16.26C451.819 16.652 451.38 16.9507 450.811 17.156C450.242 17.3613 449.574 17.464 448.809 17.464ZM448.809 16.134C449.285 16.134 449.658 16.0267 449.929 15.812C450.209 15.5973 450.349 15.3033 450.349 14.93C450.349 14.538 450.204 14.2347 449.915 14.02C449.635 13.8053 449.266 13.698 448.809 13.698C448.361 13.698 447.997 13.8053 447.717 14.02C447.437 14.2347 447.297 14.538 447.297 14.93C447.297 15.3033 447.432 15.5973 447.703 15.812C447.974 16.0267 448.342 16.134 448.809 16.134ZM455.269 22L461.961 12.2H463.627L456.935 22H455.269ZM456.123 17.492C455.647 17.492 455.227 17.3847 454.863 17.17C454.499 16.946 454.209 16.6333 453.995 16.232C453.789 15.8213 453.687 15.3407 453.687 14.79C453.687 14.2393 453.789 13.7633 453.995 13.362C454.209 12.9607 454.499 12.648 454.863 12.424C455.227 12.2 455.647 12.088 456.123 12.088C456.599 12.088 457.019 12.2 457.383 12.424C457.747 12.648 458.031 12.9607 458.237 13.362C458.442 13.7633 458.545 14.2393 458.545 14.79C458.545 15.3407 458.442 15.8213 458.237 16.232C458.031 16.6333 457.747 16.946 457.383 17.17C457.019 17.3847 456.599 17.492 456.123 17.492ZM456.123 16.344C456.431 16.344 456.678 16.218 456.865 15.966C457.051 15.7047 457.145 15.3127 457.145 14.79C457.145 14.2673 457.051 13.88 456.865 13.628C456.678 13.3667 456.431 13.236 456.123 13.236C455.824 13.236 455.577 13.3667 455.381 13.628C455.194 13.88 455.101 14.2673 455.101 14.79C455.101 15.3033 455.194 15.6907 455.381 15.952C455.577 16.2133 455.824 16.344 456.123 16.344ZM462.773 22.112C462.306 22.112 461.886 22.0047 461.513 21.79C461.149 21.566 460.864 21.2533 460.659 20.852C460.453 20.4413 460.351 19.9607 460.351 19.41C460.351 18.8593 460.453 18.3833 460.659 17.982C460.864 17.5807 461.149 17.268 461.513 17.044C461.886 16.82 462.306 16.708 462.773 16.708C463.258 16.708 463.683 16.82 464.047 17.044C464.411 17.268 464.695 17.5807 464.901 17.982C465.106 18.3833 465.209 18.8593 465.209 19.41C465.209 19.9607 465.106 20.4413 464.901 20.852C464.695 21.2533 464.411 21.566 464.047 21.79C463.683 22.0047 463.258 22.112 462.773 22.112ZM462.773 20.964C463.081 20.964 463.328 20.838 463.515 20.586C463.701 20.3247 463.795 19.9327 463.795 19.41C463.795 18.8967 463.701 18.5093 463.515 18.248C463.328 17.9867 463.081 17.856 462.773 17.856C462.474 17.856 462.227 17.9867 462.031 18.248C461.844 18.5 461.751 18.8873 461.751 19.41C461.751 19.9327 461.844 20.3247 462.031 20.586C462.227 20.838 462.474 20.964 462.773 20.964Z" fill="#F8F8F8"/>
</g>
<path d="M959.515 57.092H957.653V59.5H956.295V57.092H950.849V56.112L955.861 49.7H957.373L952.571 55.888H956.337V53.76H957.653V55.888H959.515V57.092Z" fill="#F8F8F8"/>
<path d="M20.1192 49.7V59.5H18.7332V50.918H16.5212V49.7H20.1192Z" fill="#F8F8F8"/>
<path d="M11.4241 25.144C10.4401 25.144 9.55811 24.892 8.77811 24.388C8.01011 23.884 7.39811 23.152 6.94211 22.192C6.49811 21.232 6.27611 20.068 6.27611 18.7C6.27611 17.332 6.49811 16.168 6.94211 15.208C7.39811 14.248 8.01011 13.516 8.77811 13.012C9.55811 12.508 10.4401 12.256 11.4241 12.256C12.3961 12.256 13.2721 12.508 14.0521 13.012C14.8321 13.516 15.4441 14.248 15.8881 15.208C16.3321 16.168 16.5541 17.332 16.5541 18.7C16.5541 20.068 16.3321 21.232 15.8881 22.192C15.4441 23.152 14.8321 23.884 14.0521 24.388C13.2721 24.892 12.3961 25.144 11.4241 25.144ZM11.4241 23.542C12.0841 23.542 12.6601 23.362 13.1521 23.002C13.6561 22.642 14.0461 22.102 14.3221 21.382C14.6101 20.662 14.7541 19.768 14.7541 18.7C14.7541 17.632 14.6101 16.738 14.3221 16.018C14.0461 15.298 13.6561 14.758 13.1521 14.398C12.6601 14.038 12.0841 13.858 11.4241 13.858C10.7641 13.858 10.1821 14.038 9.67811 14.398C9.17411 14.758 8.77811 15.298 8.49011 16.018C8.21411 16.738 8.07611 17.632 8.07611 18.7C8.07611 19.768 8.21411 20.662 8.49011 21.382C8.77811 22.102 9.17411 22.642 9.67811 23.002C10.1821 23.362 10.7641 23.542 11.4241 23.542ZM20.01 25L28.614 12.4H30L21.396 25H20.01ZM21.018 19.168C20.442 19.168 19.932 19.024 19.488 18.736C19.044 18.448 18.696 18.046 18.444 17.53C18.204 17.014 18.084 16.414 18.084 15.73C18.084 15.046 18.204 14.446 18.444 13.93C18.696 13.414 19.044 13.012 19.488 12.724C19.932 12.436 20.442 12.292 21.018 12.292C21.606 12.292 22.116 12.436 22.548 12.724C22.992 13.012 23.334 13.414 23.574 13.93C23.814 14.446 23.934 15.046 23.934 15.73C23.934 16.414 23.814 17.014 23.574 17.53C23.334 18.046 22.992 18.448 22.548 18.736C22.116 19.024 21.606 19.168 21.018 19.168ZM21.018 18.142C21.57 18.142 22.002 17.932 22.314 17.512C22.626 17.08 22.782 16.486 22.782 15.73C22.782 14.974 22.626 14.386 22.314 13.966C22.002 13.534 21.57 13.318 21.018 13.318C20.478 13.318 20.046 13.534 19.722 13.966C19.41 14.386 19.254 14.974 19.254 15.73C19.254 16.474 19.41 17.062 19.722 17.494C20.046 17.926 20.478 18.142 21.018 18.142ZM28.992 25.108C28.416 25.108 27.906 24.964 27.462 24.676C27.018 24.388 26.676 23.986 26.436 23.47C26.196 22.954 26.076 22.354 26.076 21.67C26.076 20.986 26.196 20.386 26.436 19.87C26.676 19.354 27.018 18.952 27.462 18.664C27.906 18.376 28.416 18.232 28.992 18.232C29.58 18.232 30.09 18.376 30.522 18.664C30.966 18.952 31.308 19.354 31.548 19.87C31.8 20.386 31.926 20.986 31.926 21.67C31.926 22.354 31.8 22.954 31.548 23.47C31.308 23.986 30.966 24.388 30.522 24.676C30.09 24.964 29.58 25.108 28.992 25.108ZM28.992 24.082C29.532 24.082 29.958 23.872 30.27 23.452C30.594 23.02 30.756 22.426 30.756 21.67C30.756 20.926 30.594 20.338 30.27 19.906C29.958 19.474 29.532 19.258 28.992 19.258C28.452 19.258 28.02 19.474 27.696 19.906C27.384 20.326 27.228 20.914 27.228 21.67C27.228 22.426 27.384 23.02 27.696 23.452C28.02 23.872 28.452 24.082 28.992 24.082Z" fill="#1D1F1D"/>
<path d="M334.54 57.282V58.5H327.498V57.548L331.488 53.698C331.974 53.2313 332.3 52.83 332.468 52.494C332.636 52.1487 332.72 51.8033 332.72 51.458C332.72 50.9447 332.538 50.548 332.174 50.268C331.82 49.9787 331.306 49.834 330.634 49.834C329.552 49.834 328.716 50.1887 328.128 50.898L327.176 50.072C327.559 49.6053 328.058 49.2413 328.674 48.98C329.3 48.7187 329.995 48.588 330.76 48.588C331.787 48.588 332.604 48.8353 333.21 49.33C333.817 49.8153 334.12 50.478 334.12 51.318C334.12 51.8407 334.008 52.3353 333.784 52.802C333.56 53.2687 333.136 53.8007 332.51 54.398L329.514 57.282H334.54Z" fill="#F8F8F8"/>
<path d="M643.418 53.816C644.379 53.9093 645.112 54.208 645.616 54.712C646.12 55.2067 646.372 55.8413 646.372 56.616C646.372 57.176 646.232 57.6847 645.952 58.142C645.672 58.59 645.252 58.9493 644.692 59.22C644.141 59.4813 643.465 59.612 642.662 59.612C641.962 59.612 641.29 59.5093 640.646 59.304C640.002 59.0893 639.475 58.7953 639.064 58.422L639.708 57.316C640.044 57.6333 640.473 57.89 640.996 58.086C641.519 58.2727 642.074 58.366 642.662 58.366C643.39 58.366 643.955 58.212 644.356 57.904C644.767 57.596 644.972 57.1713 644.972 56.63C644.972 56.0887 644.771 55.6687 644.37 55.37C643.969 55.0713 643.362 54.922 642.55 54.922H641.766V53.942L644.23 50.918H639.512V49.7H645.98V50.652L643.418 53.816Z" fill="#F8F8F8"/>
<path d="M935.066 25V13.12L935.84 13.966H932.222V12.4H936.848V25H935.066ZM944.752 25.144C943.768 25.144 942.886 24.892 942.106 24.388C941.338 23.884 940.726 23.152 940.27 22.192C939.826 21.232 939.604 20.068 939.604 18.7C939.604 17.332 939.826 16.168 940.27 15.208C940.726 14.248 941.338 13.516 942.106 13.012C942.886 12.508 943.768 12.256 944.752 12.256C945.724 12.256 946.6 12.508 947.38 13.012C948.16 13.516 948.772 14.248 949.216 15.208C949.66 16.168 949.882 17.332 949.882 18.7C949.882 20.068 949.66 21.232 949.216 22.192C948.772 23.152 948.16 23.884 947.38 24.388C946.6 24.892 945.724 25.144 944.752 25.144ZM944.752 23.542C945.412 23.542 945.988 23.362 946.48 23.002C946.984 22.642 947.374 22.102 947.65 21.382C947.938 20.662 948.082 19.768 948.082 18.7C948.082 17.632 947.938 16.738 947.65 16.018C947.374 15.298 946.984 14.758 946.48 14.398C945.988 14.038 945.412 13.858 944.752 13.858C944.092 13.858 943.51 14.038 943.006 14.398C942.502 14.758 942.106 15.298 941.818 16.018C941.542 16.738 941.404 17.632 941.404 18.7C941.404 19.768 941.542 20.662 941.818 21.382C942.106 22.102 942.502 22.642 943.006 23.002C943.51 23.362 944.092 23.542 944.752 23.542ZM956.758 25.144C955.774 25.144 954.892 24.892 954.112 24.388C953.344 23.884 952.732 23.152 952.276 22.192C951.832 21.232 951.61 20.068 951.61 18.7C951.61 17.332 951.832 16.168 952.276 15.208C952.732 14.248 953.344 13.516 954.112 13.012C954.892 12.508 955.774 12.256 956.758 12.256C957.73 12.256 958.606 12.508 959.386 13.012C960.166 13.516 960.778 14.248 961.222 15.208C961.666 16.168 961.888 17.332 961.888 18.7C961.888 20.068 961.666 21.232 961.222 22.192C960.778 23.152 960.166 23.884 959.386 24.388C958.606 24.892 957.73 25.144 956.758 25.144ZM956.758 23.542C957.418 23.542 957.994 23.362 958.486 23.002C958.99 22.642 959.38 22.102 959.656 21.382C959.944 20.662 960.088 19.768 960.088 18.7C960.088 17.632 959.944 16.738 959.656 16.018C959.38 15.298 958.99 14.758 958.486 14.398C957.994 14.038 957.418 13.858 956.758 13.858C956.098 13.858 955.516 14.038 955.012 14.398C954.508 14.758 954.112 15.298 953.824 16.018C953.548 16.738 953.41 17.632 953.41 18.7C953.41 19.768 953.548 20.662 953.824 21.382C954.112 22.102 954.508 22.642 955.012 23.002C955.516 23.362 956.098 23.542 956.758 23.542ZM965.344 25L973.948 12.4H975.334L966.73 25H965.344ZM966.352 19.168C965.776 19.168 965.266 19.024 964.822 18.736C964.378 18.448 964.03 18.046 963.778 17.53C963.538 17.014 963.418 16.414 963.418 15.73C963.418 15.046 963.538 14.446 963.778 13.93C964.03 13.414 964.378 13.012 964.822 12.724C965.266 12.436 965.776 12.292 966.352 12.292C966.94 12.292 967.45 12.436 967.882 12.724C968.326 13.012 968.668 13.414 968.908 13.93C969.148 14.446 969.268 15.046 969.268 15.73C969.268 16.414 969.148 17.014 968.908 17.53C968.668 18.046 968.326 18.448 967.882 18.736C967.45 19.024 966.94 19.168 966.352 19.168ZM966.352 18.142C966.904 18.142 967.336 17.932 967.648 17.512C967.96 17.08 968.116 16.486 968.116 15.73C968.116 14.974 967.96 14.386 967.648 13.966C967.336 13.534 966.904 13.318 966.352 13.318C965.812 13.318 965.38 13.534 965.056 13.966C964.744 14.386 964.588 14.974 964.588 15.73C964.588 16.474 964.744 17.062 965.056 17.494C965.38 17.926 965.812 18.142 966.352 18.142ZM974.326 25.108C973.75 25.108 973.24 24.964 972.796 24.676C972.352 24.388 972.01 23.986 971.77 23.47C971.53 22.954 971.41 22.354 971.41 21.67C971.41 20.986 971.53 20.386 971.77 19.87C972.01 19.354 972.352 18.952 972.796 18.664C973.24 18.376 973.75 18.232 974.326 18.232C974.914 18.232 975.424 18.376 975.856 18.664C976.3 18.952 976.642 19.354 976.882 19.87C977.134 20.386 977.26 20.986 977.26 21.67C977.26 22.354 977.134 22.954 976.882 23.47C976.642 23.986 976.3 24.388 975.856 24.676C975.424 24.964 974.914 25.108 974.326 25.108ZM974.326 24.082C974.866 24.082 975.292 23.872 975.604 23.452C975.928 23.02 976.09 22.426 976.09 21.67C976.09 20.926 975.928 20.338 975.604 19.906C975.292 19.474 974.866 19.258 974.326 19.258C973.786 19.258 973.354 19.474 973.03 19.906C972.718 20.326 972.562 20.914 972.562 21.67C972.562 22.426 972.718 23.02 973.03 23.452C973.354 23.872 973.786 24.082 974.326 24.082Z" fill="#1D1F1D"/>
</svg>
