<svg width="1090" height="151" viewBox="0 0 1090 151" fill="none" xmlns="http://www.w3.org/2000/svg">
<g clip-path="url(#clip0_2657_930)">
<path d="M951 66H47V68H951V66Z" fill="#C4C4C4"/>
<path d="M460 66H47V68H460V66Z" fill="#314C51"/>
<path d="M49 68C49 57.5066 40.4934 49 30 49C19.5066 49 11 57.5066 11 68C11 78.4934 19.5066 87 30 87C40.4934 87 49 78.4934 49 68Z" fill="#858685"/>
<text fill="#F8F8F8" font-size="14" letter-spacing="0em"><tspan x="27.4102" y="72.61">1</tspan></text>
<path d="M361 67C361 56.5066 352.493 48 342 48C331.507 48 323 56.5066 323 67C323 77.4934 331.507 86 342 86C352.493 86 361 77.4934 361 67Z" fill="#858685"/>
<text fill="#F8F8F8" font-size="14" letter-spacing="0em"><tspan x="337.98" y="71.61">2</tspan></text>
<path d="M673 68C673 57.5066 664.493 49 654 49C643.507 49 635 57.5066 635 68C635 78.4934 643.507 87 654 87C664.493 87 673 78.4934 673 68Z" fill="#858685"/>
<text fill="#F8F8F8" font-size="14" letter-spacing="0em"><tspan x="649.992" y="72.61">3</tspan></text>
<path d="M985 68C985 57.5066 976.493 49 966 49C955.507 49 947 57.5066 947 68C947 78.4934 955.507 87 966 87C976.493 87 985 78.4934 985 68Z" fill="#858685"/>
<text fill="#F8F8F8" font-size="14" letter-spacing="0em"><tspan x="961.316" y="72.61">4</tspan></text>
<text fill="#1D1F1D" font-size="18" letter-spacing="0em"><tspan x="11" y="123.999">Ettevalmistust&#xf6;&#xf6;d</tspan></text>
<text fill="#1D1F1D" font-size="18" letter-spacing="0em"><tspan x="323" y="123.999">Teedeprojekteerimine</tspan></text>
<text fill="#1D1F1D" font-size="18" letter-spacing="0em"><tspan x="635" y="123.999">Teede jakommunikatsioonide ehitus</tspan></text>
<text fill="#1D1F1D" font-size="18" letter-spacing="0em"><tspan x="947" y="123.999">Taristu on valmis</tspan></text>
<path fill-rule="evenodd" clip-rule="evenodd" d="M431 14C428.239 14 426 16.2386 426 19V41C426 43.7614 428.239 46 431 46H455.6L460.143 53.5708C460.531 54.2182 461.469 54.2182 461.857 53.5708L466.4 46H490C492.761 46 495 43.7614 495 41V19C495 16.2386 492.761 14 490 14H431Z" fill="#314C51"/>
<text fill="#F8F8F8" font-size="14" font-weight="bold" letter-spacing="0em"><tspan x="445.414" y="35.11">48%</tspan></text>
<path d="M110 73C113.314 73 116 70.3137 116 67C116 63.6863 113.314 61 110 61C106.686 61 104 63.6863 104 67C104 70.3137 106.686 73 110 73Z" fill="#858685"/>
<path d="M186 73C189.314 73 192 70.3137 192 67C192 63.6863 189.314 61 186 61C182.686 61 180 63.6863 180 67C180 70.3137 182.686 73 186 73Z" fill="#858685"/>
<path d="M262 73C265.314 73 268 70.3137 268 67C268 63.6863 265.314 61 262 61C258.686 61 256 63.6863 256 67C256 70.3137 258.686 73 262 73Z" fill="#858685"/>
<path d="M461 73C464.314 73 467 70.3137 467 67C467 63.6863 464.314 61 461 61C457.686 61 455 63.6863 455 67C455 70.3137 457.686 73 461 73Z" fill="#858685"/>
<path d="M726 73C729.314 73 732 70.3137 732 67C732 63.6863 729.314 61 726 61C722.686 61 720 63.6863 720 67C720 70.3137 722.686 73 726 73Z" fill="#858685"/>
<path d="M802 73C805.314 73 808 70.3137 808 67C808 63.6863 805.314 61 802 61C798.686 61 796 63.6863 796 67C796 70.3137 798.686 73 802 73Z" fill="#858685"/>
<path d="M878 73C881.314 73 884 70.3137 884 67C884 63.6863 881.314 61 878 61C874.686 61 872 63.6863 872 67C872 70.3137 874.686 73 878 73Z" fill="#858685"/>
<text fill="#1D1F1D" font-size="10" letter-spacing="0em"><tspan x="85" y="45.5045">Geoloogia</tspan></text>
<text fill="#1D1F1D" font-size="10" letter-spacing="0em"><tspan x="160" y="88.5045">Geodeesia</tspan></text>
<text fill="#1D1F1D" font-size="10" letter-spacing="0em"><tspan x="230" y="45.5045">Dendroloogia</tspan></text>
<text fill="#1D1F1D" font-size="10" letter-spacing="0em"><tspan x="415" y="88.5045">Kommunikatsioonideprojekteerimine</tspan></text>
<text fill="#1D1F1D" font-size="10" letter-spacing="0em"><tspan x="523" y="45.5045">Teedeprojekteerimine</tspan></text>
<text fill="#1D1F1D" font-size="10" letter-spacing="0em"><tspan x="707" y="45.5045">Kruntideettevalmistus</tspan></text>
<text fill="#1D1F1D" font-size="10" letter-spacing="0em"><tspan x="785" y="88.5045">Teedeehitus</tspan></text>
<text fill="#1D1F1D" font-size="10" letter-spacing="0em"><tspan x="830" y="45.5045">Kommunikatsioonideehitus</tspan></text>
<path d="M537 73C540.314 73 543 70.3137 543 67C543 63.6863 540.314 61 537 61C533.686 61 531 63.6863 531 67C531 70.3137 533.686 73 537 73Z" fill="#858685"/>
<text fill="#1D1F1D" font-size="18" letter-spacing="0em"><tspan x="943.078" y="38.9986">100%</tspan></text>
<text fill="#1D1F1D" font-size="18" letter-spacing="0em"><tspan x="16.4121" y="38.9986">0%</tspan></text>
<text fill="#858685" font-size="12" letter-spacing="0em"><tspan x="935.309" y="11.6654">01.02.2023</tspan></text>
<text fill="#858685" font-size="12" letter-spacing="0em"><tspan x="0.246094" y="11.6654">01.06.2021</tspan></text>
</g>
<defs>
<clipPath id="clip0_2657_930">
<rect width="1090" height="151" fill="white"/>
</clipPath>
</defs>
</svg>
