<svg width="410" height="273" viewBox="0 0 410 273" fill="none" xmlns="http://www.w3.org/2000/svg">
<path d="M32.4385 52.2975C33.8973 40.1685 44.2343 31.0707 56.4504 31.1641L385.782 33.6842C399.121 33.7863 409.818 44.7468 409.595 58.0849L406.421 247.817C406.192 261.524 394.547 272.255 380.867 271.365L34.2976 248.82C20.5558 247.926 10.3828 235.677 12.0272 222.004L32.4385 52.2975Z" fill="#3A3C70"/>
<path d="M23.6162 21.5394C24.9703 9.30463 35.3611 0.077849 47.6702 0.180214L376.83 2.91758C390.151 3.02836 400.833 13.9665 400.628 27.2861L397.39 237.64C397.178 251.414 385.441 262.183 371.701 261.211L24.9085 236.694C11.3146 235.733 1.24769 223.659 2.74674 210.114L23.6162 21.5394Z" fill="#F38D63"/>
<path d="M29.0905 32.3553C30.5198 20.4798 40.641 11.5725 52.6019 11.664L369.778 14.0895C382.84 14.1894 393.313 24.9217 393.095 37.9821L390.051 219.81C389.827 233.231 378.425 243.738 365.03 242.867L31.3331 221.174C17.8765 220.299 7.91466 208.303 9.52599 194.915L29.0905 32.3553Z" stroke="white"/>
</svg>
