<svg width="312" height="273" viewBox="0 0 312 273" fill="none" xmlns="http://www.w3.org/2000/svg">
<path d="M24.6164 53.0338C25.7557 40.5859 36.2586 31.0968 48.7578 31.2225L287.936 33.6276C301.215 33.7611 311.862 44.653 311.693 57.9319L309.283 247.195C309.106 261.133 297.131 271.989 283.241 270.802L30.9042 249.23C17.6415 248.097 7.83504 236.386 9.04826 223.13L24.6164 53.0338Z" fill="#3A3C70"/>
<path d="M17.9134 22.2282C18.9687 9.69772 29.5169 0.106349 42.091 0.243763L281.134 2.85611C294.395 3.00103 305.025 13.8745 304.87 27.1358L302.412 236.977C302.248 250.995 290.153 261.889 276.194 260.592L23.692 237.134C10.5744 235.915 0.891222 224.35 1.99679 211.223L17.9134 22.2282Z" fill="#F38D63"/>
<path d="M22.1904 33.0778C23.3067 20.89 33.5904 11.5993 45.8286 11.7223L275.757 14.0329C288.759 14.1635 299.184 24.8287 299.018 37.831L296.708 219.19C296.535 232.838 284.809 243.467 271.21 242.305L28.6684 221.585C15.6809 220.475 6.0778 209.007 7.26663 196.027L22.1904 33.0778Z" stroke="white"/>
</svg>
