<svg width="1820" height="1001" viewBox="0 0 1820 1001" fill="none" xmlns="http://www.w3.org/2000/svg">
<rect y="0.00195312" width="1820" height="1000" fill="#B1CFE1"/>
<g clip-path="url(#clip0_1462_116)">
<path d="M98.4677 307.107C96.9927 307.987 95.699 308.995 94.6606 309.804C93.9745 310.34 93.3822 310.801 92.951 311.058C92.5199 311.315 91.8317 311.619 91.0361 311.968C89.8295 312.499 88.3303 313.159 86.8551 314.039C79.7538 318.279 78.7374 324.757 83.8342 333.294C89.2685 342.397 101.094 345.382 110.197 339.947C119.3 334.513 122.285 322.687 116.85 313.584C111.754 305.047 105.569 302.867 98.4677 307.107ZM109.376 338.572C101.032 343.553 90.1911 340.817 85.2098 332.473C79.0615 322.174 83.673 317.805 87.6762 315.415C89.0654 314.586 90.5158 313.948 91.6803 313.435C92.526 313.063 93.255 312.743 93.7722 312.434C94.2893 312.125 94.9172 311.635 95.6446 311.068C96.6499 310.286 97.8997 309.312 99.2889 308.483C103.292 306.093 109.326 304.107 115.475 314.405C120.456 322.749 117.72 333.59 109.376 338.572Z" fill="#C9E3F4"/>
<path d="M107.589 335.579C100.786 339.64 91.947 337.409 87.8856 330.606C87.6586 330.226 87.1672 330.102 86.787 330.329C86.4069 330.556 86.2829 331.047 86.5099 331.428C91.0242 338.99 100.848 341.469 108.41 336.954C108.79 336.727 108.915 336.236 108.688 335.856C108.461 335.476 107.969 335.352 107.589 335.579Z" fill="#C9E3F4"/>
<path d="M139.738 282.469C138.264 283.349 136.971 284.356 135.931 285.166C135.246 285.701 134.652 286.163 134.221 286.42C133.79 286.678 133.102 286.981 132.306 287.33C131.1 287.861 129.6 288.521 128.125 289.402C121.024 293.641 120.008 300.119 125.104 308.657C130.539 317.76 142.364 320.744 151.467 315.31C160.571 309.875 163.555 298.049 158.121 288.946C153.024 280.409 146.839 278.23 139.738 282.469ZM150.646 313.934C142.302 318.915 131.461 316.18 126.48 307.835C120.332 297.537 124.943 293.167 128.946 290.778C130.336 289.948 131.786 289.31 132.95 288.797C133.796 288.425 134.525 288.105 135.042 287.796C135.56 287.487 136.187 286.998 136.916 286.43C137.92 285.648 139.17 284.674 140.559 283.845C144.562 281.455 150.596 279.469 156.745 289.768C161.726 298.112 158.99 308.953 150.646 313.934Z" fill="#C9E3F4"/>
<path d="M148.859 310.941C142.056 315.002 133.217 312.771 129.156 305.968C128.929 305.588 128.437 305.464 128.057 305.691C127.677 305.918 127.553 306.409 127.78 306.79C132.294 314.351 142.118 316.831 149.68 312.316C150.061 312.089 150.185 311.598 149.958 311.218C149.731 310.838 149.239 310.714 148.859 310.941Z" fill="#C9E3F4"/>
<path d="M99.0958 240.882C98.7716 240.583 98.2682 240.601 97.9634 240.93C97.674 241.245 69.2137 272.859 91.0311 309.405C91.258 309.785 91.7492 309.91 92.1295 309.683C92.5096 309.456 92.6336 308.964 92.4068 308.584C71.2117 273.081 98.8613 242.321 99.1434 242.015C99.4425 241.689 99.4207 241.182 99.0958 240.882Z" fill="#C9E3F4"/>
<path d="M125.986 275.187C119.345 269.532 107.603 263.24 89.3853 265.377C88.9465 265.43 88.6322 265.825 88.6837 266.266C88.7347 266.705 89.1337 267.019 89.5728 266.967C107.217 264.898 118.549 270.958 124.947 276.407C131.233 281.757 133.878 287.387 133.905 287.444C134.09 287.846 134.566 288.02 134.967 287.835C134.993 287.823 135.019 287.81 135.044 287.795C135.39 287.588 135.532 287.148 135.36 286.774C135.247 286.531 132.557 280.779 125.986 275.187Z" fill="#C9E3F4"/>
<path d="M119.218 275.268C116.583 276.652 114.465 277.585 113.09 277.967C105.262 280.138 97.0303 276.12 93.9416 268.62C93.7735 268.21 93.3052 268.015 92.8958 268.184C92.4998 268.351 92.2917 268.821 92.4608 269.229C95.857 277.479 104.91 281.899 113.519 279.511C115.023 279.092 117.191 278.142 119.962 276.686C119.976 276.68 119.989 276.672 120.001 276.665C120.363 276.449 120.498 275.984 120.299 275.605C120.094 275.213 119.609 275.062 119.218 275.268Z" fill="#C9E3F4"/>
<path d="M104.073 245.446C96.5602 247.532 91.2331 254.426 91.1191 262.214C91.1135 262.656 91.4674 263.02 91.909 263.027C92.3506 263.031 92.7153 262.681 92.7222 262.237C92.8246 255.153 97.6632 248.888 104.502 246.99C114.262 244.283 150.684 247.629 151.938 250.401C152.239 252.245 140.55 262.568 126.132 271.32C125.753 271.55 125.634 272.042 125.863 272.421C126.092 272.797 126.581 272.918 126.958 272.693C126.96 272.692 126.961 272.691 126.964 272.689C136.451 266.93 154.577 253.931 153.483 249.977C152.112 245.046 112.545 243.096 104.073 245.446Z" fill="#C9E3F4"/>
<path d="M136.535 253.631C136.088 253.658 125.391 254.368 107.33 261.436C106.924 261.592 106.716 262.062 106.876 262.474C107.037 262.886 107.502 263.089 107.914 262.928C125.71 255.963 136.524 255.236 136.631 255.23C136.763 255.222 136.885 255.183 136.991 255.119C137.241 254.97 137.399 254.692 137.382 254.382C137.356 253.94 136.976 253.604 136.535 253.631Z" fill="#C9E3F4"/>
</g>
<g clip-path="url(#clip1_1462_116)">
<path d="M224.831 519.282C208.783 513.41 195.558 511.51 183.631 544.111C170.756 579.302 183.882 584.105 199.081 589.665L200.464 590.171C200.477 590.176 200.489 590.18 200.502 590.185C207.364 592.696 214.46 595.282 221.261 592.437C228.449 589.431 234.491 580.66 240.281 564.837C252.208 532.236 240.879 525.153 224.831 519.282ZM220.556 590.75C214.414 593.319 207.662 590.858 201.13 588.469C201.118 588.464 201.103 588.459 201.092 588.455L199.708 587.949C184.842 582.509 173.1 578.214 185.347 544.739C197.594 511.264 211.121 516.213 224.203 520.999C237.284 525.784 250.811 530.733 238.564 564.208C232.962 579.521 227.24 587.954 220.556 590.75Z" fill="#C9E3F4"/>
<path d="M216.866 520.363C216.653 519.906 216.11 519.707 215.652 519.919L193.653 530.132C193.195 530.345 192.996 530.888 193.209 531.346C193.315 531.575 193.504 531.739 193.724 531.819C193.943 531.9 194.194 531.896 194.422 531.79L216.422 521.577C216.88 521.365 217.079 520.821 216.866 520.363Z" fill="#C9E3F4"/>
<path d="M231.435 525.692C231.222 525.234 230.679 525.035 230.221 525.248L187.444 545.107C186.986 545.32 186.788 545.863 187 546.321C187.107 546.55 187.296 546.714 187.515 546.794C187.735 546.875 187.985 546.871 188.214 546.765L230.991 526.906C231.449 526.693 231.647 526.15 231.435 525.692Z" fill="#C9E3F4"/>
<path d="M238.429 534.538C238.216 534.08 237.673 533.882 237.215 534.094L184.012 558.795C183.554 559.008 183.356 559.551 183.568 560.009C183.675 560.238 183.864 560.402 184.083 560.482C184.303 560.563 184.553 560.559 184.782 560.453L237.984 535.752C238.442 535.539 238.641 534.996 238.429 534.538Z" fill="#C9E3F4"/>
<path d="M240.67 545.587C240.458 545.129 239.914 544.931 239.457 545.143L184.444 570.686C183.987 570.898 183.788 571.442 184 571.899C184.107 572.128 184.296 572.293 184.515 572.373C184.735 572.453 184.985 572.45 185.214 572.344L240.226 546.801C240.684 546.588 240.883 546.045 240.67 545.587Z" fill="#C9E3F4"/>
<path d="M238.001 558.921C237.788 558.464 237.245 558.265 236.787 558.477L190.752 579.847C190.295 580.06 190.096 580.603 190.308 581.061C190.415 581.29 190.604 581.454 190.823 581.535C191.043 581.615 191.293 581.612 191.522 581.505L237.557 560.135C238.015 559.923 238.213 559.379 238.001 558.921Z" fill="#C9E3F4"/>
<path d="M232.718 573.464C232.506 573.006 231.962 572.807 231.504 573.02L203.853 585.857C203.395 586.07 203.197 586.613 203.409 587.071C203.516 587.3 203.705 587.464 203.924 587.545C204.144 587.625 204.394 587.622 204.623 587.515L232.274 574.677C232.732 574.465 232.931 573.921 232.718 573.464Z" fill="#C9E3F4"/>
<path d="M241.643 547.678L231.524 525.884C231.312 525.426 230.768 525.228 230.311 525.44C229.853 525.653 229.654 526.196 229.866 526.654L239.985 548.448C240.091 548.677 240.28 548.841 240.5 548.921C240.719 549.002 240.97 548.998 241.199 548.892C241.656 548.679 241.855 548.136 241.643 547.678Z" fill="#C9E3F4"/>
<path d="M236.644 562.963L216.866 520.364C216.654 519.906 216.11 519.707 215.652 519.92C215.195 520.132 214.996 520.675 215.208 521.133L234.986 563.732C235.092 563.961 235.282 564.125 235.501 564.206C235.721 564.286 235.971 564.283 236.2 564.176C236.658 563.964 236.856 563.42 236.644 562.963Z" fill="#C9E3F4"/>
<path d="M230.011 574.722L205.773 522.515C205.56 522.057 205.017 521.858 204.559 522.071C204.101 522.284 203.902 522.827 204.115 523.285L228.354 575.491C228.46 575.72 228.649 575.885 228.869 575.965C229.088 576.045 229.338 576.042 229.567 575.935C230.025 575.723 230.224 575.18 230.011 574.722Z" fill="#C9E3F4"/>
<path d="M222.588 584.777L196.971 529.599C196.758 529.142 196.215 528.943 195.757 529.155C195.299 529.368 195.1 529.911 195.313 530.369L220.93 585.547C221.036 585.776 221.225 585.94 221.445 586.02C221.664 586.101 221.915 586.097 222.143 585.991C222.602 585.779 222.8 585.235 222.588 584.777Z" fill="#C9E3F4"/>
<path d="M211.812 587.609L190.407 541.509C190.194 541.051 189.651 540.852 189.193 541.065C188.735 541.277 188.536 541.821 188.749 542.279L210.154 588.379C210.26 588.608 210.449 588.772 210.669 588.852C210.889 588.933 211.139 588.929 211.368 588.823C211.826 588.61 212.025 588.067 211.812 587.609Z" fill="#C9E3F4"/>
<path d="M197.892 583.676L185.061 556.037C184.848 555.58 184.305 555.381 183.847 555.593C183.389 555.806 183.191 556.349 183.403 556.807L196.234 584.446C196.34 584.675 196.529 584.839 196.749 584.92C196.969 585 197.219 584.997 197.448 584.89C197.906 584.678 198.105 584.134 197.892 583.676Z" fill="#C9E3F4"/>
<path d="M259.897 516.54C244.311 510.838 236.553 519.818 236.23 520.202C235.908 520.589 235.959 521.163 236.343 521.488C236.427 521.559 236.52 521.612 236.617 521.647C236.968 521.775 237.375 521.679 237.63 521.379C237.921 521.034 244.937 513.013 259.269 518.257C259.743 518.43 260.268 518.187 260.441 517.713C260.615 517.238 260.371 516.714 259.897 516.54Z" fill="#C9E3F4"/>
<path d="M260.496 517.423C260.511 516.919 260.113 516.501 259.609 516.485C259.114 516.47 247.437 516.249 241.747 526.285C241.497 526.724 241.652 527.281 242.091 527.53C242.135 527.556 242.182 527.577 242.229 527.594C242.64 527.745 243.113 527.58 243.337 527.186C248.475 518.124 259.448 518.309 259.557 518.312C260.061 518.325 260.482 517.928 260.496 517.423Z" fill="#C9E3F4"/>
<path d="M231.075 506.107C230.879 505.89 230.587 505.782 230.297 505.813C229.942 505.853 221.582 506.882 218.906 514.195C218.733 514.67 218.976 515.194 219.451 515.368C219.925 515.541 220.449 515.298 220.623 514.823C222.571 509.498 228.336 508.029 230.031 507.707C231.11 509.072 234.55 513.999 232.64 519.22C232.466 519.694 232.709 520.218 233.184 520.392C233.658 520.566 234.183 520.322 234.356 519.848C236.969 512.706 231.318 506.373 231.075 506.107Z" fill="#C9E3F4"/>
<path d="M234.941 495.934C234.721 495.585 234.298 495.427 233.904 495.547C233.529 495.659 224.686 498.399 222.047 505.612C221.873 506.086 222.116 506.611 222.591 506.784C223.065 506.958 223.59 506.714 223.763 506.24C225.691 500.97 231.716 498.303 233.753 497.535C234.799 499.465 237.664 505.487 235.78 510.636C235.606 511.111 235.85 511.635 236.324 511.809C236.799 511.982 237.323 511.739 237.497 511.264C240.074 504.22 235.151 496.269 234.941 495.934Z" fill="#C9E3F4"/>
<path d="M240.7 480.723C240.619 480.439 240.458 480.165 240.134 480.113C239.861 480.013 239.557 480.049 239.316 480.21C238.885 480.494 228.755 487.275 225.815 495.311C225.641 495.786 225.885 496.31 226.359 496.484C226.834 496.657 227.358 496.414 227.532 495.939C229.729 489.934 236.598 484.444 239.257 482.489C240.014 485.729 241.699 494.457 239.548 500.336C239.375 500.81 239.618 501.335 240.092 501.508C240.567 501.682 241.091 501.438 241.265 500.964C244.137 493.113 240.841 481.225 240.7 480.723Z" fill="#C9E3F4"/>
<path d="M262.525 506.675C262.639 506.182 262.312 505.694 261.839 505.579C247.086 502.182 239.665 511.249 239.356 511.637C239.042 512.032 239.107 512.607 239.502 512.921C239.581 512.984 239.667 513.032 239.757 513.065C240.116 513.196 240.535 513.092 240.787 512.776C240.854 512.69 247.787 504.219 261.43 507.361C261.921 507.474 262.412 507.167 262.525 506.675Z" fill="#C9E3F4"/>
<path d="M262.545 506.528C262.576 506.026 262.203 505.591 261.694 505.558C261.412 505.54 254.695 505.17 249.228 511.305C248.893 511.682 248.927 512.26 249.302 512.595C249.391 512.674 249.491 512.733 249.597 512.771C249.939 512.896 250.336 512.809 250.593 512.521C255.444 507.077 261.515 507.378 261.576 507.382C262.08 507.413 262.513 507.03 262.545 506.528Z" fill="#C9E3F4"/>
<path d="M261.971 496.552C261.98 496.162 261.743 495.809 261.377 495.671C261.362 495.681 250.688 491.791 243.124 501.339C242.81 501.735 242.877 502.31 243.272 502.622C243.351 502.686 243.437 502.732 243.526 502.765C243.886 502.897 244.305 502.791 244.556 502.474C248.985 496.884 254.442 496.39 257.755 496.743C251.642 499.278 250.576 502.073 250.463 502.424C250.312 502.898 250.648 503.42 251.041 503.556C251.51 503.718 252.027 503.465 252.199 502.998C252.211 502.967 253.435 499.865 261.329 497.399C261.702 497.283 261.959 496.943 261.971 496.552Z" fill="#C9E3F4"/>
<path d="M217.244 513.256C217.247 512.755 217.118 500.889 201.53 495.186C201.056 495.013 200.531 495.256 200.358 495.731C200.184 496.205 200.428 496.729 200.902 496.903C215.236 502.147 215.417 512.801 215.418 513.252C215.418 513.646 215.667 513.982 216.018 514.111C216.115 514.146 216.22 514.166 216.33 514.166C216.834 514.166 217.243 513.76 217.244 513.256Z" fill="#C9E3F4"/>
<path d="M209.107 514.343C211.235 503.004 202.171 495.637 201.786 495.33C201.384 495.014 200.816 495.08 200.501 495.475C200.187 495.87 200.252 496.445 200.647 496.759C200.732 496.827 209.238 503.737 207.31 514.005C207.226 514.45 207.48 514.881 207.893 515.032C207.94 515.049 207.988 515.063 208.04 515.072C208.536 515.165 209.012 514.839 209.107 514.343Z" fill="#C9E3F4"/>
<path d="M220.384 504.695C220.4 504.2 220.582 492.485 207.118 485.559C206.669 485.332 206.119 485.506 205.889 485.954C205.658 486.403 205.834 486.954 206.282 487.185C218.685 493.564 218.569 504.196 218.557 504.645C218.548 505.047 218.799 505.396 219.158 505.527C219.248 505.56 219.345 505.58 219.447 505.583C219.95 505.595 220.37 505.2 220.384 504.695Z" fill="#C9E3F4"/>
<path d="M213.058 498.072C212.841 489.858 207.472 485.805 207.245 485.636C206.839 485.337 206.267 485.424 205.967 485.828C205.667 486.232 205.753 486.804 206.157 487.106C206.205 487.142 211.039 490.831 211.231 498.12C211.24 498.505 211.489 498.829 211.83 498.954C211.936 498.993 212.049 499.012 212.168 499.009C212.673 498.996 213.071 498.576 213.058 498.072Z" fill="#C9E3F4"/>
<path d="M224.153 494.399C224.536 482.223 214.038 478.343 213.869 478.289C213.502 478.159 213.091 478.276 212.848 478.58C212.605 478.886 212.583 479.312 212.791 479.641C217.183 486.548 216.182 489.716 216.15 489.808C215.97 490.27 216.19 490.794 216.651 490.985C217.107 491.192 217.651 490.956 217.845 490.49C217.986 490.15 218.97 487.342 215.968 481.495C218.72 483.395 222.547 487.317 222.327 494.341C222.314 494.746 222.565 495.096 222.926 495.228C223.015 495.261 223.11 495.28 223.21 495.283C223.715 495.299 224.137 494.903 224.153 494.399Z" fill="#C9E3F4"/>
</g>
<path d="M146.026 783.784C146.273 782.67 147.437 777.013 146.004 775.04C145.651 774.556 145.161 774.266 144.589 774.21C142.052 773.969 138.861 774.575 138.726 774.6C138.189 774.703 137.839 775.222 137.942 775.758C138.046 776.291 138.562 776.646 139.1 776.543C139.13 776.537 142.143 775.965 144.373 776.167C144.377 776.171 144.381 776.175 144.384 776.177C144.918 776.644 144.823 779.78 144.202 782.845C140.562 784.304 123.757 791.303 122.209 796.827C119.754 805.582 112.108 808.808 106.122 809.971C87.9648 813.503 57.633 803.414 40.2879 780.95C30.8862 768.772 22.3655 748.719 34.8123 722.128L41.7588 723.904C39.8834 739.004 46.0992 754.165 59.3327 766.689C75.4276 781.914 98.9111 790.069 116.537 786.51L137.988 780.748C138.517 780.607 138.83 780.064 138.688 779.537C138.544 779.008 138.003 778.694 137.476 778.839L116.086 784.586C99.1119 788.009 76.346 780.064 60.6926 765.253C47.6824 752.94 41.6967 738.041 43.8355 723.306C43.9092 722.805 43.5946 722.331 43.1015 722.206L34.5134 720.01C34.0565 719.893 33.5805 720.114 33.378 720.54C19.9881 748.404 28.8933 769.429 38.7236 782.159C41.6667 785.972 44.9766 789.436 48.5375 792.547C66.5144 808.254 90.8637 814.954 106.501 811.912C115.866 810.09 121.955 805.059 124.114 797.36C125.147 793.67 137.732 787.508 145.42 784.489C145.727 784.369 145.953 784.105 146.026 783.784Z" fill="#C9E3F4"/>
<path d="M139.96 785.873C138.708 781.877 138.143 777.031 139.337 776.466C139.829 776.231 140.04 775.641 139.807 775.148C139.578 774.655 138.983 774.443 138.489 774.677C135.169 776.251 137.33 784.097 138.073 786.465C138.129 786.645 138.232 786.797 138.366 786.914C138.616 787.132 138.971 787.219 139.313 787.113C139.833 786.949 140.123 786.394 139.96 785.873Z" fill="#C9E3F4"/>
<path d="M115.634 790.812C115.409 790.314 114.823 790.095 114.325 790.319C104.454 794.799 81.5665 791.103 63.2268 778.465C46.1822 766.72 37.4366 750.137 38.5777 731.758C38.612 731.211 38.1963 730.741 37.6514 730.71C37.1065 730.677 36.6367 731.091 36.602 731.635C35.5725 748.236 42.2779 763.409 55.629 775.074C57.6379 776.829 59.7989 778.504 62.1044 780.094C77.3543 790.604 102.306 797.945 115.141 792.121C115.639 791.895 115.859 791.308 115.634 790.812Z" fill="#C9E3F4"/>
<path d="M115.589 782.41C115.622 781.861 115.205 781.394 114.662 781.363C114.304 781.342 113.945 781.312 113.59 781.281C96.019 779.704 75.9072 766.681 64.6786 749.597C55.8229 736.125 53.3024 721.553 57.5823 708.566C57.7395 708.087 57.5109 707.559 57.0496 707.356L48.9728 703.705C48.5429 703.51 48.0364 703.646 47.7611 704.029C44.4287 708.68 41.7415 713.467 39.7796 718.261C39.5712 718.766 39.8149 719.342 40.3197 719.551C40.8246 719.757 41.4023 719.515 41.6085 719.009C43.422 714.585 45.8731 710.159 48.9005 705.843L55.4326 708.795C51.3424 722.149 54.024 736.989 63.0261 750.684C66.7878 756.407 71.4305 761.643 76.6091 766.168C87.5584 775.735 100.909 782.128 113.418 783.252C113.793 783.282 114.17 783.315 114.543 783.337C115.089 783.37 115.557 782.955 115.589 782.41Z" fill="#C9E3F4"/>
<path d="M63.7023 762.702C55.6798 752.747 47.0068 736.072 51.2463 713.146C51.3474 712.608 50.989 712.093 50.4546 711.994C49.9176 711.895 49.4005 712.249 49.3027 712.787C44.9247 736.449 53.8798 753.665 62.1622 763.942C62.1983 763.988 62.2395 764.03 62.2831 764.068C62.6363 764.376 63.1731 764.397 63.5524 764.092C63.977 763.75 64.0443 763.126 63.7023 762.702Z" fill="#C9E3F4"/>
<g clip-path="url(#clip2_1462_116)">
<path d="M1721.52 747.061L1721.51 747.067C1721.15 747.214 1720.98 747.622 1721.13 747.982C1721.28 748.341 1721.69 748.511 1722.05 748.363C1722.41 748.216 1722.59 747.805 1722.44 747.446C1722.29 747.086 1721.88 746.914 1721.52 747.061Z" fill="#C9E3F4"/>
<path d="M1724.12 745.994L1724.11 746C1723.75 746.147 1723.59 746.555 1723.73 746.915C1723.88 747.274 1724.3 747.444 1724.66 747.296C1725.02 747.149 1725.19 746.738 1725.04 746.379C1724.89 746.019 1724.48 745.847 1724.12 745.994Z" fill="#C9E3F4"/>
<path d="M1702.85 769.515C1701.93 771.098 1692.62 773.676 1684.15 770.208C1676.86 767.22 1669.3 759.176 1674.73 737.825C1675.27 735.701 1675.06 733.144 1674.84 730.437C1674.35 724.416 1673.85 718.19 1681 715.016C1681.35 714.858 1681.51 714.443 1681.36 714.088C1681.2 713.732 1680.78 713.599 1680.43 713.73C1672.36 717.309 1672.96 724.652 1673.44 730.552C1673.65 733.139 1673.85 735.582 1673.37 737.477C1670.8 747.569 1668.72 765.408 1683.62 771.509C1690.13 774.176 1697.73 773.521 1701.64 771.921C1702.85 771.423 1703.71 770.834 1704.06 770.226C1704.26 769.89 1704.14 769.459 1703.81 769.264C1703.47 769.068 1703.04 769.181 1702.85 769.515Z" fill="#C9E3F4"/>
<path d="M1709.31 767.493C1709.09 767.169 1708.65 767.084 1708.33 767.298C1706.01 768.84 1704.27 769.361 1703.64 769.193C1703.26 769.088 1702.88 769.312 1702.78 769.687C1702.68 770.061 1702.9 770.449 1703.27 770.549C1704.07 770.766 1705.12 770.51 1706.13 770.095C1707.33 769.605 1708.47 768.892 1709.11 768.469C1709.44 768.255 1709.52 767.818 1709.31 767.493Z" fill="#C9E3F4"/>
<path d="M1702.16 725.678C1700.49 724.665 1698.91 722.785 1697.25 720.795C1693.45 716.255 1688.72 710.606 1680.47 713.715C1680.1 713.878 1679.92 714.258 1680.05 714.622C1680.19 714.985 1680.6 715.168 1680.96 715.032C1688.28 712.274 1692.29 717.065 1696.17 721.697C1697.91 723.78 1699.56 725.747 1701.43 726.882C1709.89 731.996 1715.35 737.525 1717.66 743.316C1717.8 743.677 1718.21 743.852 1718.57 743.709C1718.57 743.708 1718.57 743.707 1718.58 743.706C1718.93 743.56 1719.11 743.154 1718.96 742.795C1716.54 736.713 1710.88 730.955 1702.16 725.678Z" fill="#C9E3F4"/>
<path d="M1756.88 729.529C1756.53 729.658 1756.33 730.072 1756.47 730.436C1759.23 737.759 1754.44 741.767 1749.81 745.644C1747.72 747.387 1745.75 749.034 1744.62 750.908C1733.22 769.761 1722.19 770.022 1714.94 766.92C1706.52 763.321 1701.83 754.88 1702.31 753.114C1702.41 752.74 1702.19 752.353 1701.81 752.252C1701.44 752.152 1701.05 752.37 1700.95 752.748C1700.18 755.616 1705.9 764.586 1714.39 768.214C1719.65 770.464 1724.46 770.145 1728.72 768.399C1736.44 765.235 1742.35 757.378 1745.82 751.635C1746.84 749.962 1748.72 748.388 1750.71 746.724C1755.25 742.924 1760.89 738.197 1757.79 729.94C1757.65 729.576 1757.24 729.393 1756.88 729.529Z" fill="#C9E3F4"/>
<path d="M1755.11 733.345C1754.73 733.371 1754.43 733.702 1754.45 734.091C1754.66 737.632 1752.03 740.111 1747.99 743.493C1745.73 745.389 1743.59 747.179 1742.21 749.453C1734.77 761.747 1726.56 767.176 1718.45 765.15C1711.89 763.509 1707 757.668 1705.45 754.372C1705.29 754.021 1704.89 753.817 1704.52 754.033C1704.17 754.197 1704.01 754.617 1704.18 754.968C1705.83 758.499 1711.08 764.756 1718.11 766.516C1721.36 767.326 1724.6 767.062 1727.8 765.752C1733.23 763.528 1738.51 758.285 1743.42 750.18C1744.67 748.107 1746.72 746.39 1748.9 744.566C1753.13 741.027 1756.11 738.197 1755.85 734.005C1755.83 733.618 1755.5 733.323 1755.11 733.345Z" fill="#C9E3F4"/>
<path d="M1673.58 703.076C1673.22 702.927 1672.81 703.096 1672.66 703.45C1672.51 703.806 1672.68 704.218 1673.03 704.372C1673.07 704.387 1676.49 705.926 1678.99 712.037C1679.14 712.396 1679.55 712.568 1679.91 712.421C1680.27 712.273 1680.44 711.863 1680.3 711.503C1677.55 704.802 1673.74 703.143 1673.58 703.076Z" fill="#C9E3F4"/>
<path d="M1703.19 769.22C1702.83 769.368 1702.66 769.778 1702.8 770.138L1703 770.614C1703.15 770.974 1703.56 771.146 1703.92 770.999C1704.28 770.851 1704.45 770.441 1704.3 770.081L1704.11 769.604C1703.96 769.244 1703.55 769.073 1703.19 769.22Z" fill="#C9E3F4"/>
<path d="M1693.67 697.873C1692.44 696.56 1687.41 698.479 1685.9 699.099C1684.74 699.573 1682.65 700.513 1681.62 701.48C1680.52 702.509 1679.89 703.903 1679.85 705.405C1679.8 706.907 1680.34 708.338 1681.37 709.433C1682.96 711.122 1685.46 711.667 1687.61 710.788C1688.24 710.527 1688.82 710.155 1689.33 709.68C1691.24 707.882 1695.18 699.482 1693.67 697.873ZM1688.36 708.655C1687.98 709.012 1687.55 709.291 1687.07 709.486C1685.47 710.145 1683.59 709.736 1682.4 708.47C1681.63 707.648 1681.22 706.576 1681.25 705.449C1681.29 704.322 1681.76 703.277 1682.58 702.505C1683.2 701.921 1684.64 701.134 1686.43 700.4C1689.75 699.042 1692.24 698.635 1692.62 698.791C1693.09 699.847 1690.22 706.912 1688.36 708.655Z" fill="#C9E3F4"/>
<path d="M1689.91 701.598C1689.7 701.269 1689.26 701.174 1688.94 701.376C1688.77 701.485 1684.64 704.09 1683.2 706.797C1683.02 707.14 1683.15 707.567 1683.49 707.749C1683.69 707.851 1683.9 707.855 1684.09 707.779C1684.24 707.718 1684.37 707.609 1684.45 707.458C1685.71 705.083 1689.65 702.592 1689.69 702.568C1690.02 702.361 1690.12 701.926 1689.91 701.598Z" fill="#C9E3F4"/>
<path d="M1698.59 768.646C1690.08 769.679 1683.52 767.681 1679.62 762.866C1675.52 757.804 1674.7 750.028 1677.43 742.065C1677.56 741.697 1677.36 741.298 1676.99 741.171C1676.63 741.046 1676.23 741.24 1676.1 741.609C1673.21 750.032 1674.12 758.311 1678.53 763.751C1681.47 767.385 1687.37 771.425 1698.76 770.043C1698.83 770.035 1698.89 770.019 1698.95 769.995C1699.23 769.878 1699.42 769.581 1699.38 769.26C1699.33 768.874 1698.98 768.599 1698.59 768.646Z" fill="#C9E3F4"/>
<path d="M1756.86 729.537L1701.36 752.28C1701.01 752.428 1700.83 752.838 1700.98 753.198C1701.13 753.557 1701.54 753.729 1701.9 753.582L1757.4 730.839C1757.76 730.692 1757.93 730.281 1757.78 729.921C1757.63 729.561 1757.22 729.39 1756.86 729.537Z" fill="#C9E3F4"/>
<path d="M1729.02 743.964C1728.64 743.964 1728.32 744.269 1728.31 744.66C1728.29 747.209 1726.74 749.481 1724.38 750.449C1722.05 751.403 1719.38 750.888 1717.57 749.137C1717.3 748.866 1716.85 748.876 1716.58 749.152C1716.31 749.431 1716.32 749.877 1716.6 750.147C1718.8 752.288 1722.07 752.917 1724.92 751.751C1727.8 750.569 1729.69 747.791 1729.72 744.674C1729.73 744.287 1729.41 743.967 1729.02 743.964Z" fill="#C9E3F4"/>
</g>
<g clip-path="url(#clip3_1462_116)">
<path d="M1668.96 307.615C1668.93 307.22 1668.59 306.925 1668.19 306.957C1662.78 307.394 1656.52 304.116 1652.24 298.602C1646.61 291.346 1645.3 281.589 1648.66 271.835C1652.43 260.914 1658.2 254.403 1665.35 253.005C1672.67 251.576 1680.25 255.782 1684.19 260.294C1684.45 260.591 1684.91 260.624 1685.21 260.363C1685.51 260.102 1685.54 259.648 1685.27 259.349C1680.93 254.373 1673 250.046 1665.08 251.594C1659.72 252.641 1652.28 256.922 1647.31 271.367C1643.78 281.588 1645.17 291.836 1651.1 299.483C1654.07 303.313 1657.97 306.129 1661.95 307.5C1664.09 308.237 1666.25 308.556 1668.3 308.39C1668.7 308.357 1668.99 308.01 1668.96 307.615Z" fill="#C9E3F4"/>
<path d="M1680.73 310.762C1680.62 310.38 1680.23 310.157 1679.84 310.265C1676.55 311.189 1671.08 309.301 1668.75 307.118C1668.46 306.846 1668 306.864 1667.73 307.153C1667.46 307.442 1667.47 307.898 1667.76 308.168C1668.98 309.304 1670.83 310.338 1672.86 311.036C1675.35 311.896 1678.11 312.246 1680.23 311.649C1680.61 311.542 1680.84 311.145 1680.73 310.762Z" fill="#C9E3F4"/>
<path d="M1705.3 265.419C1700.01 259.318 1691.1 257.842 1684.61 259.086C1684.22 259.161 1683.96 259.537 1684.04 259.927C1684.11 260.317 1684.49 260.572 1684.88 260.498C1690.76 259.369 1699.32 260.72 1704.21 266.361C1708.98 271.868 1709.52 280.552 1705.76 291.473C1705.1 293.371 1704.31 295.175 1703.4 296.834C1703.21 297.182 1703.34 297.619 1703.69 297.808C1703.73 297.828 1703.76 297.845 1703.8 297.858C1704.13 297.971 1704.49 297.835 1704.66 297.523C1705.61 295.793 1706.44 293.915 1707.12 291.942C1712.09 277.497 1708.87 269.545 1705.3 265.419Z" fill="#C9E3F4"/>
<path d="M1668.41 307.193C1668.04 307.064 1667.63 307.263 1667.5 307.639L1667.2 308.5C1667.07 308.875 1667.27 309.284 1667.65 309.414C1668.02 309.543 1668.43 309.344 1668.56 308.968L1668.86 308.107C1668.99 307.731 1668.79 307.323 1668.41 307.193Z" fill="#C9E3F4"/>
<path d="M1666.15 307.177C1665.77 307.048 1665.37 307.247 1665.24 307.622L1665.17 307.823C1665.04 308.198 1665.24 308.607 1665.61 308.736C1665.99 308.866 1666.4 308.667 1666.53 308.291L1666.6 308.091C1666.73 307.715 1666.53 307.306 1666.15 307.177Z" fill="#C9E3F4"/>
<path d="M1670.23 308.582C1669.85 308.452 1669.44 308.651 1669.31 309.027L1669.25 309.228C1669.12 309.603 1669.31 310.012 1669.69 310.141C1670.07 310.271 1670.47 310.071 1670.6 309.696L1670.67 309.495C1670.8 309.12 1670.6 308.711 1670.23 308.582Z" fill="#C9E3F4"/>
<path d="M1684.85 236.405C1684.6 236.088 1684.15 236.028 1683.84 236.269C1683.52 236.509 1683.46 236.96 1683.7 237.276C1683.76 237.355 1689.68 245.332 1684.94 257.021C1684.79 257.389 1684.97 257.808 1685.33 257.958C1685.35 257.963 1685.36 257.967 1685.37 257.972C1685.73 258.095 1686.13 257.918 1686.27 257.562C1691.32 245.12 1685.11 236.755 1684.85 236.405Z" fill="#C9E3F4"/>
<path d="M1668.81 257.404C1668.8 257.007 1668.47 256.694 1668.07 256.706C1655.41 257.068 1651.88 275.448 1651.73 276.23C1651.67 276.585 1651.88 276.926 1652.21 277.04C1652.24 277.052 1652.28 277.061 1652.31 277.067C1652.7 277.14 1653.08 276.881 1653.15 276.49C1653.18 276.31 1656.6 258.472 1668.11 258.143C1668.51 258.132 1668.82 257.801 1668.81 257.404Z" fill="#C9E3F4"/>
<path d="M1711.6 249.247C1711.44 247.864 1709.52 246.53 1705.91 245.285C1702.37 244.065 1698.31 243.352 1696.27 243.591C1692.22 244.062 1689.31 247.739 1689.78 251.786C1690.11 254.593 1692.04 257.003 1694.72 257.924C1695.77 258.286 1696.86 258.404 1697.97 258.274C1701.41 257.875 1711.99 252.601 1711.6 249.247ZM1697.81 256.846C1696.91 256.951 1696.03 256.856 1695.19 256.565C1693.03 255.823 1691.47 253.881 1691.21 251.62C1690.83 248.36 1693.17 245.398 1696.43 245.018C1698.26 244.806 1702.13 245.505 1705.44 246.644C1709.07 247.896 1710.12 249.004 1710.17 249.414C1710.38 251.182 1701.71 256.392 1697.81 256.846Z" fill="#C9E3F4"/>
<path d="M1704.12 250.254C1704.15 249.858 1703.85 249.511 1703.46 249.484C1703.17 249.462 1696.38 248.981 1693.07 250.729C1692.72 250.914 1692.58 251.349 1692.77 251.7C1692.86 251.868 1693 251.987 1693.17 252.044C1693.35 252.106 1693.56 252.096 1693.74 252C1696.69 250.446 1703.29 250.913 1703.35 250.918C1703.75 250.947 1704.09 250.65 1704.12 250.254Z" fill="#C9E3F4"/>
<path d="M1731.07 308.461L1683.5 292.071C1683.13 291.942 1682.72 292.141 1682.59 292.517C1682.46 292.892 1682.66 293.301 1683.04 293.43L1730.6 309.82C1730.98 309.95 1731.39 309.75 1731.52 309.375C1731.65 308.999 1731.45 308.59 1731.07 308.461Z" fill="#C9E3F4"/>
<path d="M1730.84 309.14C1730.46 309.011 1730.05 309.21 1729.92 309.586C1725.53 322.326 1711.6 329.119 1698.86 324.729C1686.12 320.34 1679.33 306.404 1683.72 293.664C1683.84 293.288 1683.65 292.88 1683.27 292.75C1682.89 292.621 1682.49 292.82 1682.36 293.196C1677.71 306.686 1684.9 321.44 1698.39 326.088C1711.88 330.737 1726.64 323.544 1731.28 310.054C1731.41 309.678 1731.21 309.27 1730.84 309.14Z" fill="#C9E3F4"/>
<path d="M1714.75 305.938C1714.46 305.675 1714 305.702 1713.74 305.997C1711.42 308.608 1707.78 309.559 1704.48 308.421C1701.19 307.288 1698.92 304.317 1698.68 300.85C1698.65 300.455 1698.31 300.155 1697.91 300.183C1697.52 300.209 1697.22 300.552 1697.25 300.949C1697.52 304.993 1700.18 308.459 1704.01 309.78C1707.86 311.108 1712.1 309.998 1714.81 306.952C1715.08 306.656 1715.05 306.201 1714.75 305.938Z" fill="#C9E3F4"/>
<path d="M1727.38 310.236C1727.03 310.06 1726.6 310.229 1726.43 310.591C1721.81 320.74 1710.35 325.65 1699.8 322.011C1689.23 318.372 1683.24 307.451 1685.85 296.605C1685.94 296.22 1685.71 295.819 1685.32 295.739C1684.93 295.647 1684.54 295.884 1684.45 296.269C1681.67 307.839 1688.06 319.489 1699.33 323.37C1710.59 327.251 1722.81 322.014 1727.74 311.187C1727.91 310.826 1727.75 310.4 1727.38 310.236Z" fill="#C9E3F4"/>
<path d="M1683.5 292.071C1683.13 291.942 1682.72 292.141 1682.59 292.517L1682.36 293.196C1682.23 293.572 1682.43 293.98 1682.8 294.11C1683.18 294.239 1683.59 294.04 1683.72 293.664L1683.95 292.985C1684.08 292.609 1683.88 292.2 1683.5 292.071Z" fill="#C9E3F4"/>
<path d="M1731.07 308.461C1730.7 308.331 1730.29 308.531 1730.16 308.906L1729.92 309.586C1729.8 309.961 1729.99 310.37 1730.37 310.499C1730.75 310.629 1731.15 310.429 1731.28 310.054L1731.52 309.374C1731.65 308.999 1731.45 308.59 1731.07 308.461Z" fill="#C9E3F4"/>
<path d="M1703.88 303.654L1703.87 303.65C1703.5 303.521 1703.1 303.722 1702.97 304.098C1702.84 304.474 1703.04 304.884 1703.42 305.013C1703.79 305.143 1704.2 304.944 1704.33 304.568C1704.46 304.193 1704.26 303.784 1703.88 303.654Z" fill="#C9E3F4"/>
<path d="M1709.79 304.169L1709.78 304.164C1709.4 304.035 1709 304.236 1708.87 304.612C1708.74 304.988 1708.95 305.399 1709.32 305.528C1709.7 305.657 1710.1 305.458 1710.23 305.082C1710.36 304.706 1710.17 304.298 1709.79 304.169Z" fill="#C9E3F4"/>
</g>
<g clip-path="url(#clip4_1462_116)">
<path d="M1624.64 578.703C1624.26 578.805 1624.04 579.195 1624.14 579.574C1625.06 582.98 1623.65 586.334 1621.01 587.05C1618.36 587.766 1615.45 585.578 1614.53 582.173C1614.43 581.793 1614.04 581.569 1613.66 581.672C1613.28 581.774 1613.06 582.164 1613.16 582.544C1614.29 586.707 1617.97 589.344 1621.38 588.423C1624.78 587.502 1626.64 583.367 1625.51 579.203C1625.41 578.824 1625.02 578.6 1624.64 578.703Z" fill="#C9E3F4"/>
<path d="M1621.9 579.445C1621.52 579.548 1621.29 579.938 1621.39 580.317C1621.9 582.177 1621.38 584.004 1620.26 584.305C1619.88 584.408 1619.66 584.798 1619.76 585.177C1619.87 585.556 1620.26 585.78 1620.63 585.678C1622.56 585.158 1623.5 582.64 1622.77 579.946C1622.66 579.566 1622.27 579.343 1621.9 579.445Z" fill="#C9E3F4"/>
<path d="M1616.55 570.579C1616.17 570.682 1615.95 571.071 1616.05 571.451C1616.42 572.826 1616.43 574.221 1616.07 575.488C1615.56 577.269 1614.41 578.522 1612.92 578.926C1610.27 579.643 1607.36 577.455 1606.44 574.049C1606.34 573.67 1605.95 573.446 1605.57 573.548C1605.19 573.651 1604.97 574.041 1605.07 574.42C1606.2 578.583 1609.88 581.22 1613.29 580.299C1615.25 579.769 1616.8 578.116 1617.43 575.877C1617.87 574.363 1617.86 572.704 1617.42 571.08C1617.32 570.7 1616.93 570.476 1616.55 570.579Z" fill="#C9E3F4"/>
<path d="M1613.81 571.322C1613.43 571.424 1613.2 571.814 1613.31 572.193C1613.81 574.054 1613.29 575.88 1612.18 576.182C1611.8 576.284 1611.57 576.674 1611.67 577.053C1611.78 577.433 1612.17 577.657 1612.55 577.554C1614.47 577.034 1615.41 574.516 1614.68 571.822C1614.58 571.443 1614.19 571.219 1613.81 571.322Z" fill="#C9E3F4"/>
<path d="M1608.46 562.456C1608.08 562.559 1607.86 562.949 1607.96 563.328C1608.33 564.703 1608.34 566.098 1607.98 567.365C1607.47 569.146 1606.32 570.399 1604.83 570.803C1602.18 571.52 1599.28 569.332 1598.35 565.926C1598.25 565.547 1597.86 565.323 1597.48 565.425C1597.1 565.528 1596.88 565.918 1596.98 566.297C1598.11 570.46 1601.79 573.097 1605.2 572.176C1607.16 571.646 1608.71 569.992 1609.35 567.754C1609.78 566.24 1609.77 564.581 1609.34 562.957C1609.23 562.577 1608.84 562.354 1608.46 562.456Z" fill="#C9E3F4"/>
<path d="M1605.72 563.198C1605.34 563.301 1605.12 563.691 1605.22 564.07C1605.72 565.93 1605.2 567.757 1604.09 568.058C1603.71 568.161 1603.48 568.551 1603.59 568.93C1603.69 569.309 1604.08 569.533 1604.46 569.431C1606.38 568.911 1607.32 566.393 1606.59 563.699C1606.49 563.32 1606.1 563.096 1605.72 563.198Z" fill="#C9E3F4"/>
<path d="M1600.37 554.333C1599.99 554.435 1599.77 554.825 1599.87 555.204C1600.24 556.58 1600.25 557.975 1599.89 559.242C1599.38 561.023 1598.24 562.276 1596.74 562.68C1594.09 563.396 1591.19 561.209 1590.27 557.803C1590.16 557.423 1589.77 557.199 1589.39 557.302C1589.01 557.404 1588.79 557.794 1588.89 558.174C1590.02 562.337 1593.7 564.974 1597.11 564.053C1599.07 563.522 1600.62 561.869 1601.26 559.63C1601.69 558.117 1601.68 556.458 1601.25 554.833C1601.14 554.454 1600.75 554.23 1600.37 554.333Z" fill="#C9E3F4"/>
<path d="M1597.63 555.075C1597.25 555.178 1597.03 555.568 1597.13 555.947C1597.63 557.808 1597.11 559.633 1596 559.935C1595.62 560.038 1595.39 560.428 1595.5 560.807C1595.6 561.186 1595.99 561.41 1596.37 561.308C1598.29 560.787 1599.23 558.27 1598.5 555.576C1598.4 555.196 1598.01 554.973 1597.63 555.075Z" fill="#C9E3F4"/>
<path d="M1611.35 551.363C1610.98 551.466 1610.75 551.856 1610.85 552.235C1611.23 553.61 1611.23 555.005 1610.87 556.273C1610.36 558.054 1609.22 559.306 1607.72 559.711C1605.07 560.427 1602.17 558.239 1601.25 554.833C1601.14 554.454 1600.75 554.23 1600.37 554.333C1599.99 554.435 1599.77 554.825 1599.87 555.204C1601 559.368 1604.69 562.004 1608.09 561.083C1610.05 560.553 1611.6 558.9 1612.24 556.661C1612.67 555.147 1612.67 553.489 1612.23 551.864C1612.12 551.485 1611.73 551.261 1611.35 551.363Z" fill="#C9E3F4"/>
<path d="M1608.61 552.106C1608.23 552.208 1608.01 552.598 1608.11 552.978C1608.61 554.838 1608.09 556.664 1606.98 556.966C1606.6 557.068 1606.37 557.458 1606.48 557.838C1606.58 558.217 1606.97 558.441 1607.35 558.338C1609.27 557.818 1610.21 555.301 1609.48 552.607C1609.38 552.227 1608.99 552.003 1608.61 552.106Z" fill="#C9E3F4"/>
<path d="M1622.34 548.394C1621.96 548.496 1621.73 548.886 1621.84 549.266C1622.21 550.638 1622.21 552.035 1621.85 553.302C1621.34 555.084 1620.2 556.337 1618.7 556.741C1616.05 557.458 1613.15 555.27 1612.23 551.864C1612.12 551.485 1611.73 551.261 1611.35 551.363C1610.98 551.466 1610.75 551.856 1610.85 552.235C1611.98 556.398 1615.67 559.035 1619.07 558.114C1621.03 557.584 1622.58 555.931 1623.22 553.691C1623.65 552.175 1623.65 550.516 1623.21 548.895C1623.11 548.515 1622.72 548.291 1622.34 548.394Z" fill="#C9E3F4"/>
<path d="M1619.59 549.136C1619.21 549.239 1618.99 549.629 1619.09 550.008C1619.59 551.869 1619.07 553.695 1617.96 553.996C1617.58 554.099 1617.36 554.489 1617.46 554.868C1617.56 555.247 1617.95 555.471 1618.33 555.369C1620.25 554.849 1621.19 552.331 1620.46 549.637C1620.36 549.257 1619.97 549.033 1619.59 549.136Z" fill="#C9E3F4"/>
<path d="M1633.32 545.424C1632.94 545.527 1632.71 545.917 1632.82 546.296C1633.19 547.669 1633.19 549.065 1632.83 550.332C1632.33 552.115 1631.18 553.368 1629.68 553.772C1627.03 554.488 1624.13 552.3 1623.21 548.894C1623.11 548.515 1622.72 548.291 1622.34 548.394C1621.96 548.496 1621.73 548.886 1621.84 549.266C1622.96 553.429 1626.65 556.065 1630.05 555.144C1632.01 554.615 1633.56 552.961 1634.2 550.722C1634.63 549.206 1634.63 547.547 1634.19 545.925C1634.09 545.546 1633.7 545.322 1633.32 545.424Z" fill="#C9E3F4"/>
<path d="M1630.57 546.167C1630.19 546.269 1629.97 546.659 1630.07 547.039C1630.57 548.899 1630.06 550.725 1628.94 551.027C1628.56 551.13 1628.34 551.519 1628.44 551.899C1628.54 552.278 1628.93 552.502 1629.31 552.399C1631.23 551.879 1632.17 549.362 1631.44 546.668C1631.34 546.288 1630.95 546.064 1630.57 546.167Z" fill="#C9E3F4"/>
<path d="M1592.29 546.21C1591.91 546.312 1591.68 546.702 1591.79 547.081C1592.16 548.456 1592.16 549.852 1591.8 551.119C1591.3 552.9 1590.15 554.153 1588.65 554.557C1586 555.273 1583.1 553.085 1582.18 549.679C1581.58 547.456 1581.96 545.138 1583.18 543.63C1583.42 543.325 1583.38 542.877 1583.07 542.631C1582.77 542.385 1582.32 542.43 1582.07 542.737C1580.57 544.593 1580.09 547.396 1580.81 550.05C1581.93 554.214 1585.62 556.85 1589.02 555.929C1590.98 555.399 1592.53 553.746 1593.17 551.507C1593.6 549.993 1593.6 548.334 1593.16 546.71C1593.06 546.331 1592.67 546.107 1592.29 546.21Z" fill="#C9E3F4"/>
<path d="M1589.54 546.952C1589.16 547.054 1588.94 547.444 1589.04 547.823C1589.54 549.683 1589.03 551.509 1587.91 551.811C1587.53 551.914 1587.31 552.304 1587.41 552.683C1587.51 553.063 1587.9 553.287 1588.28 553.184C1590.21 552.664 1591.14 550.146 1590.41 547.452C1590.31 547.073 1589.92 546.849 1589.54 546.952Z" fill="#C9E3F4"/>
<path d="M1603.27 543.24C1602.89 543.343 1602.66 543.733 1602.77 544.112C1603.14 545.487 1603.14 546.882 1602.78 548.149C1602.28 549.93 1601.13 551.183 1599.63 551.588C1598.14 551.992 1596.52 551.488 1595.18 550.207C1594.9 549.935 1594.45 549.942 1594.18 550.228C1593.9 550.51 1593.91 550.961 1594.2 551.232C1595.87 552.844 1598.05 553.49 1600 552.96C1601.97 552.43 1603.51 550.777 1604.15 548.537C1604.58 547.023 1604.58 545.365 1604.14 543.741C1604.04 543.362 1603.65 543.138 1603.27 543.24Z" fill="#C9E3F4"/>
<path d="M1600.52 543.982C1600.14 544.085 1599.92 544.475 1600.02 544.854C1600.52 546.714 1600.01 548.54 1598.89 548.842C1598.51 548.945 1598.29 549.335 1598.39 549.714C1598.49 550.093 1598.88 550.317 1599.26 550.215C1601.19 549.694 1602.12 547.176 1601.39 544.483C1601.29 544.104 1600.9 543.88 1600.52 543.982Z" fill="#C9E3F4"/>
<path d="M1614.25 540.27C1613.87 540.373 1613.65 540.763 1613.75 541.142C1614.12 542.515 1614.12 543.911 1613.77 545.178C1613.26 546.961 1612.11 548.214 1610.61 548.618C1609.12 549.022 1607.5 548.519 1606.16 547.238C1605.88 546.966 1605.43 546.973 1605.16 547.259C1604.88 547.541 1604.89 547.992 1605.18 548.263C1606.86 549.875 1609.03 550.52 1610.99 549.99C1612.94 549.461 1614.5 547.807 1615.13 545.568C1615.56 544.051 1615.56 542.393 1615.12 540.771C1615.02 540.392 1614.63 540.168 1614.25 540.27Z" fill="#C9E3F4"/>
<path d="M1611.5 541.013C1611.12 541.115 1610.9 541.505 1611 541.884C1611.51 543.744 1610.99 545.571 1609.87 545.872C1609.49 545.975 1609.27 546.365 1609.37 546.744C1609.47 547.124 1609.86 547.348 1610.24 547.245C1612.17 546.725 1613.1 544.207 1612.38 541.513C1612.27 541.134 1611.88 540.91 1611.5 541.013Z" fill="#C9E3F4"/>
<path d="M1625.23 537.301C1624.85 537.404 1624.63 537.794 1624.73 538.173C1625.1 539.546 1625.11 540.942 1624.75 542.209C1624.24 543.992 1623.09 545.245 1621.6 545.649C1620.1 546.053 1618.48 545.55 1617.14 544.268C1616.86 543.997 1616.41 544.004 1616.14 544.29C1615.86 544.573 1615.87 545.022 1616.16 545.294C1617.84 546.905 1620.01 547.551 1621.97 547.021C1623.92 546.492 1625.48 544.838 1626.11 542.599C1626.54 541.082 1626.54 539.424 1626.1 537.802C1626 537.423 1625.61 537.199 1625.23 537.301Z" fill="#C9E3F4"/>
<path d="M1622.48 538.043C1622.11 538.146 1621.88 538.536 1621.98 538.915C1622.49 540.775 1621.97 542.602 1620.85 542.903C1620.47 543.006 1620.25 543.396 1620.35 543.775C1620.46 544.154 1620.84 544.378 1621.22 544.276C1623.15 543.756 1624.08 541.237 1623.36 538.544C1623.25 538.165 1622.86 537.941 1622.48 538.043Z" fill="#C9E3F4"/>
<path d="M1632.3 529.153C1631.93 529.013 1631.52 529.199 1631.38 529.566C1631.24 529.933 1631.43 530.343 1631.79 530.483C1633.61 531.169 1635.11 532.978 1635.71 535.204C1636.08 536.577 1636.08 537.973 1635.73 539.24C1635.22 541.023 1634.07 542.275 1632.57 542.68C1631.08 543.084 1629.46 542.58 1628.12 541.298C1627.84 541.027 1627.39 541.036 1627.12 541.319C1626.85 541.602 1626.85 542.053 1627.14 542.324C1628.82 543.936 1630.99 544.582 1632.95 544.052C1634.9 543.523 1636.45 541.869 1637.09 539.629C1637.52 538.113 1637.52 536.455 1637.08 534.833C1636.36 532.174 1634.53 529.998 1632.3 529.153Z" fill="#C9E3F4"/>
<path d="M1633.46 535.075C1633.08 535.177 1632.86 535.567 1632.96 535.946C1633.47 537.806 1632.95 539.633 1631.83 539.934C1631.45 540.037 1631.23 540.427 1631.33 540.806C1631.43 541.186 1631.82 541.41 1632.2 541.307C1634.13 540.787 1635.06 538.269 1634.34 535.575C1634.23 535.196 1633.84 534.972 1633.46 535.075Z" fill="#C9E3F4"/>
<path d="M1587.83 529.739C1584.43 530.659 1582.57 534.795 1583.7 538.958C1584.82 543.12 1588.51 545.758 1591.92 544.837C1593.88 544.307 1595.43 542.653 1596.06 540.414C1596.49 538.9 1596.49 537.241 1596.05 535.617C1594.93 531.455 1591.24 528.818 1587.83 529.739ZM1594.7 540.025C1594.19 541.806 1593.04 543.06 1591.54 543.464C1588.9 544.18 1585.99 541.993 1585.07 538.587C1584.15 535.181 1585.56 531.827 1588.2 531.111C1590.85 530.395 1593.76 532.583 1594.68 535.989C1595.05 537.363 1595.06 538.759 1594.7 540.025Z" fill="#C9E3F4"/>
<path d="M1592.43 535.859C1592.05 535.961 1591.83 536.351 1591.93 536.731C1592.44 538.591 1591.92 540.417 1590.8 540.719C1590.42 540.821 1590.2 541.211 1590.3 541.591C1590.4 541.97 1590.79 542.194 1591.17 542.091C1593.1 541.571 1594.03 539.053 1593.31 536.36C1593.2 535.98 1592.81 535.756 1592.43 535.859Z" fill="#C9E3F4"/>
<path d="M1620.78 520.83C1618.82 521.36 1617.27 523.014 1616.63 525.253C1616.52 525.631 1616.74 526.024 1617.12 526.131C1617.49 526.239 1617.89 526.02 1618 525.643C1618.5 523.861 1619.65 522.607 1621.15 522.203C1623.8 521.487 1626.7 523.675 1627.62 527.081C1627.99 528.453 1628 529.849 1627.64 531.116C1627.13 532.899 1625.98 534.152 1624.49 534.556C1622.99 534.96 1621.37 534.457 1620.03 533.176C1619.75 532.903 1619.3 532.912 1619.03 533.196C1618.76 533.48 1618.77 533.93 1619.05 534.201C1620.73 535.812 1622.9 536.458 1624.86 535.929C1626.82 535.399 1628.37 533.745 1629.01 531.505C1629.44 529.989 1629.43 528.331 1628.99 526.709C1627.87 522.547 1624.18 519.909 1620.78 520.83Z" fill="#C9E3F4"/>
<path d="M1625.38 526.951C1625 527.053 1624.77 527.443 1624.88 527.823C1625.38 529.682 1624.86 531.509 1623.75 531.811C1623.37 531.913 1623.14 532.303 1623.24 532.682C1623.35 533.062 1623.74 533.286 1624.12 533.183C1626.04 532.663 1626.98 530.145 1626.25 527.451C1626.15 527.072 1625.76 526.848 1625.38 526.951Z" fill="#C9E3F4"/>
<path d="M1609.79 523.8C1607.84 524.33 1606.29 525.983 1605.65 528.223C1605.54 528.601 1605.76 528.994 1606.14 529.101C1606.51 529.209 1606.91 528.99 1607.01 528.613C1607.52 526.831 1608.67 525.577 1610.17 525.173C1612.81 524.456 1615.72 526.644 1616.64 530.05C1617.01 531.423 1617.02 532.819 1616.66 534.086C1616.15 535.868 1615 537.122 1613.51 537.526C1612.01 537.93 1610.39 537.427 1609.05 536.145C1608.77 535.873 1608.32 535.882 1608.05 536.166C1607.77 536.45 1607.78 536.899 1608.07 537.171C1609.75 538.782 1611.92 539.428 1613.88 538.898C1615.84 538.369 1617.39 536.715 1618.02 534.475C1618.45 532.959 1618.45 531.301 1618.01 529.679C1616.89 525.516 1613.2 522.879 1609.79 523.8Z" fill="#C9E3F4"/>
<path d="M1614.39 529.92C1614.02 530.023 1613.79 530.413 1613.89 530.792C1614.4 532.652 1613.88 534.479 1612.76 534.78C1612.38 534.883 1612.16 535.273 1612.26 535.652C1612.37 536.032 1612.75 536.256 1613.13 536.153C1615.06 535.633 1615.99 533.115 1615.27 530.421C1615.16 530.042 1614.77 529.818 1614.39 529.92Z" fill="#C9E3F4"/>
<path d="M1598.81 526.77C1596.85 527.299 1595.3 528.953 1594.66 531.193C1594.56 531.57 1594.78 531.964 1595.15 532.071C1595.53 532.178 1595.92 531.96 1596.03 531.582C1596.54 529.8 1597.69 528.546 1599.18 528.142C1601.83 527.426 1604.74 529.614 1605.66 533.02C1606.03 534.392 1606.03 535.789 1605.67 537.056C1605.17 538.838 1604.02 540.091 1602.52 540.496C1601.03 540.9 1599.41 540.396 1598.07 539.115C1597.79 538.842 1597.34 538.851 1597.07 539.136C1596.79 539.419 1596.8 539.869 1597.09 540.141C1598.77 541.752 1600.94 542.398 1602.9 541.868C1604.85 541.338 1606.4 539.685 1607.04 537.445C1607.47 535.929 1607.47 534.271 1607.03 532.649C1605.9 528.486 1602.22 525.849 1598.81 526.77Z" fill="#C9E3F4"/>
<path d="M1603.41 532.89C1603.03 532.993 1602.81 533.383 1602.91 533.762C1603.42 535.622 1602.9 537.449 1601.78 537.75C1601.4 537.853 1601.18 538.243 1601.28 538.622C1601.38 539.001 1601.77 539.225 1602.15 539.123C1604.08 538.603 1605.01 536.084 1604.28 533.391C1604.18 533.011 1603.79 532.787 1603.41 532.89Z" fill="#C9E3F4"/>
<path d="M1619.44 559.487C1619.06 559.589 1618.84 559.979 1618.94 560.359C1619.31 561.731 1619.32 563.128 1618.96 564.394C1618.45 566.177 1617.3 567.43 1615.81 567.835C1614.31 568.239 1612.69 567.736 1611.36 566.454C1611.07 566.183 1610.62 566.191 1610.35 566.475C1610.08 566.757 1610.09 567.208 1610.37 567.479C1612.05 569.091 1614.22 569.737 1616.18 569.207C1618.14 568.677 1619.69 567.024 1620.33 564.784C1620.76 563.268 1620.75 561.609 1620.32 559.987C1620.21 559.608 1619.82 559.384 1619.44 559.487Z" fill="#C9E3F4"/>
<path d="M1616.7 560.229C1616.32 560.332 1616.1 560.722 1616.2 561.101C1616.7 562.961 1616.18 564.787 1615.07 565.089C1614.69 565.192 1614.46 565.582 1614.57 565.961C1614.67 566.34 1615.06 566.565 1615.44 566.462C1617.36 565.941 1618.3 563.424 1617.57 560.73C1617.47 560.35 1617.08 560.126 1616.7 560.229Z" fill="#C9E3F4"/>
<path d="M1630.42 556.518C1630.05 556.62 1629.82 557.01 1629.92 557.39C1630.29 558.762 1630.3 560.159 1629.94 561.425C1629.43 563.208 1628.28 564.461 1626.79 564.865C1625.29 565.27 1623.67 564.767 1622.33 563.485C1622.05 563.214 1621.6 563.222 1621.33 563.506C1621.06 563.79 1621.07 564.239 1621.35 564.511C1623.03 566.122 1625.2 566.768 1627.16 566.238C1629.12 565.708 1630.67 564.054 1631.31 561.815C1631.74 560.299 1631.73 558.64 1631.3 557.018C1631.19 556.639 1630.8 556.415 1630.42 556.518Z" fill="#C9E3F4"/>
<path d="M1627.68 557.26C1627.3 557.362 1627.08 557.752 1627.18 558.132C1627.68 559.992 1627.16 561.818 1626.05 562.12C1625.67 562.223 1625.44 562.613 1625.55 562.992C1625.65 563.371 1626.04 563.595 1626.42 563.493C1628.34 562.972 1629.28 560.455 1628.55 557.76C1628.45 557.381 1628.06 557.157 1627.68 557.26Z" fill="#C9E3F4"/>
<path d="M1627.53 567.61C1627.15 567.712 1626.93 568.102 1627.03 568.482C1627.95 571.887 1626.55 575.241 1623.9 575.957C1622.4 576.361 1620.78 575.858 1619.45 574.576C1619.16 574.304 1618.71 574.313 1618.44 574.598C1618.17 574.88 1618.18 575.33 1618.46 575.602C1620.14 577.214 1622.31 577.859 1624.27 577.33C1627.68 576.409 1629.53 572.273 1628.4 568.11C1628.3 567.731 1627.91 567.507 1627.53 567.61Z" fill="#C9E3F4"/>
<path d="M1624.79 568.352C1624.41 568.455 1624.18 568.845 1624.29 569.224C1624.79 571.085 1624.27 572.911 1623.16 573.212C1622.78 573.315 1622.55 573.705 1622.65 574.084C1622.76 574.464 1623.15 574.688 1623.53 574.585C1625.45 574.065 1626.39 571.547 1625.66 568.853C1625.56 568.474 1625.17 568.25 1624.79 568.352Z" fill="#C9E3F4"/>
<path d="M1603.81 499.287C1603.54 499.003 1603.09 498.996 1602.81 499.268C1596.52 505.326 1596.7 512.137 1597.95 516.783C1599.3 521.759 1602.07 525.267 1602.19 525.413C1602.37 525.642 1602.66 525.728 1602.93 525.656C1603.02 525.631 1603.11 525.588 1603.19 525.525C1603.49 525.281 1603.54 524.833 1603.3 524.526C1603.19 524.392 1592.7 510.979 1603.79 500.292C1604.07 500.02 1604.08 499.569 1603.81 499.287Z" fill="#C9E3F4"/>
<path d="M1605.79 501.016C1605.49 500.758 1605.04 500.786 1604.78 501.083C1602.32 503.894 1595.16 513.885 1606.38 524.375C1606.56 524.55 1606.82 524.604 1607.05 524.542C1607.17 524.509 1607.29 524.442 1607.38 524.342C1607.65 524.054 1607.64 523.605 1607.35 523.337C1597.34 513.98 1602.97 505.312 1605.85 502.02C1606.11 501.725 1606.08 501.275 1605.79 501.016Z" fill="#C9E3F4"/>
<path d="M1605.7 500.94L1603.77 499.246C1603.47 498.986 1603.02 499.015 1602.76 499.311C1602.51 499.606 1602.53 500.056 1602.83 500.315L1604.76 502.009C1604.95 502.172 1605.19 502.221 1605.42 502.161C1605.55 502.125 1605.67 502.053 1605.76 501.944C1606.02 501.648 1605.99 501.199 1605.7 500.94Z" fill="#C9E3F4"/>
</g>
<defs>
<clipPath id="clip0_1462_116">
<rect width="102.551" height="102.551" fill="white" transform="translate(44 266.569) rotate(-30.8366)"/>
</clipPath>
<clipPath id="clip1_1462_116">
<rect width="117" height="117" fill="white" transform="translate(185.199 460.002) rotate(20.0954)"/>
</clipPath>
<clipPath id="clip2_1462_116">
<rect width="90" height="90" fill="white" transform="translate(1651.3 707.424) rotate(-22.2838)"/>
</clipPath>
<clipPath id="clip3_1462_116">
<rect width="92" height="92" fill="white" transform="matrix(0.945451 0.325764 -0.325766 0.94545 1663.97 223.002)"/>
</clipPath>
<clipPath id="clip4_1462_116">
<rect width="91" height="91" fill="white" transform="translate(1553.7 512.455) rotate(-15.1314)"/>
</clipPath>
</defs>
</svg>
