<svg width="32" height="32" viewBox="0 0 32 32" fill="none" xmlns="http://www.w3.org/2000/svg">
<path d="M0.70635 15.3612C0.977506 13.44 2.79276 12 4.94348 12H27.0565C29.2072 12 31.0225 13.44 31.2936 15.3612L31.9861 20.2676C32.1158 21.1868 31.3203 22 30.2913 22H1.70875C0.679684 22 -0.115848 21.1868 0.0138922 20.2676L0.70635 15.3612Z" fill="#314C51"/>
<path fill-rule="evenodd" clip-rule="evenodd" d="M22.0937 2.7H9.90633C8.1757 2.7 6.70549 4.0037 6.44877 5.76597L5.66212 11.166C5.34504 13.3426 6.98218 15.3 9.11967 15.3H22.8803C25.0178 15.3 26.655 13.3425 26.3379 11.166L25.5512 5.76597C25.2945 4.0037 23.8243 2.7 22.0937 2.7ZM9.90633 0C6.87773 0 4.30486 2.28148 3.8556 5.36545L3.06895 10.7655C2.51406 14.5745 5.37907 18 9.11967 18H22.8803C26.6209 18 29.4859 14.5745 28.9311 10.7655L28.1444 5.36545C27.6951 2.28148 25.1223 0 22.0937 0H9.90633Z" fill="#314C51"/>
<path d="M9 16C9 17.6569 7.65685 19 6 19C4.34315 19 3 17.6569 3 16C3 14.3431 4.34315 13 6 13C7.65685 13 9 14.3431 9 16Z" fill="#F8F8F8"/>
<path d="M28 16C28 17.6569 26.6569 19 25 19C23.3431 19 22 17.6569 22 16C22 14.3431 23.3431 13 25 13C26.6569 13 28 14.3431 28 16Z" fill="#F8F8F8"/>
<path d="M0 24C0 23.4477 0.565535 23 1.26316 23H30.7368C31.4345 23 32 23.4477 32 24C32 24.5523 31.4345 25 30.7368 25H1.26316C0.565536 25 0 24.5523 0 24Z" fill="#314C51"/>
<path d="M2 27.7143C2 26.7675 2.63959 26 3.42857 26H5.57143C6.36041 26 7 26.7675 7 27.7143V30.2857C7 31.2325 6.36041 32 5.57143 32H3.42857C2.63959 32 2 31.2325 2 30.2857V27.7143Z" fill="#314C51"/>
<path d="M25 27.7143C25 26.7675 25.6396 26 26.4286 26H28.5714C29.3604 26 30 26.7675 30 27.7143V30.2857C30 31.2325 29.3604 32 28.5714 32H26.4286C25.6396 32 25 31.2325 25 30.2857V27.7143Z" fill="#314C51"/>
</svg>
