<svg width="31" height="33" viewBox="0 0 31 33" fill="none" xmlns="http://www.w3.org/2000/svg">
<path fill-rule="evenodd" clip-rule="evenodd" d="M16.7917 1.64616C16.7917 0.932791 16.2134 0.354492 15.5 0.354492C14.7866 0.354492 14.2083 0.932791 14.2083 1.64616V11.9795H10.3333C8.73338 11.9795 7.9334 11.9795 7.26404 12.0855C3.57941 12.6691 0.689605 15.5589 0.106017 19.2435C0 19.9129 0 20.7129 0 22.3128C0 23.9128 0 24.7128 0.106017 25.3821C0.689605 29.0668 3.57941 31.9566 7.26404 32.5401C7.9334 32.6462 8.73338 32.6462 10.3333 32.6462H20.6667C22.2666 32.6462 23.0666 32.6462 23.736 32.5401C27.4206 31.9566 30.3104 29.0668 30.894 25.3821C31 24.7128 31 23.9128 31 22.3128C31 20.7129 31 19.9129 30.894 19.2435C30.3104 15.5589 27.4206 12.6691 23.736 12.0855C23.0666 11.9795 22.2666 11.9795 20.6667 11.9795H16.7917V1.64616ZM16.7917 11.9795H14.2083V23.7087C13.6526 23.1447 12.992 22.3146 12.0306 21.1021L9.62323 18.0659C9.18002 17.5069 8.36759 17.413 7.80861 17.8563C7.24963 18.2995 7.15578 19.1119 7.59899 19.6709L10.0553 22.7688C10.9736 23.927 11.7313 24.8827 12.4095 25.5635C13.1055 26.2621 13.8779 26.8413 14.8651 26.9986C15.0754 27.0321 15.2875 27.0489 15.5 27.0489C15.7125 27.0489 15.9246 27.0321 16.1349 26.9986C17.1221 26.8413 17.8945 26.2621 18.5905 25.5635C19.2687 24.8827 20.0264 23.927 20.9447 22.7688L23.401 19.6709C23.8442 19.1119 23.7504 18.2995 23.1914 17.8563C22.6324 17.413 21.82 17.5069 21.3768 18.0659L18.9694 21.1021C18.008 22.3146 17.3474 23.1447 16.7917 23.7087V11.9795Z" fill="#CFD3D0"/>
</svg>
