<svg width="17" height="17" viewBox="0 0 17 17" fill="none" xmlns="http://www.w3.org/2000/svg">
<path d="M13.3384 10.2123C12.7842 10.094 12.3458 10.3512 11.9576 10.5759C11.5601 10.8075 10.8033 11.4206 10.3709 11.2628C8.15246 10.3504 6.06601 8.40797 5.16282 6.18172C5.00364 5.73836 5.61399 4.97769 5.84298 4.57635C6.06686 4.18701 6.31884 3.74365 6.20392 3.18623C6.10006 2.68455 4.75677 0.975414 4.28176 0.508039C3.96765 0.199313 3.64757 0.0295146 3.31813 0.00121477C2.07955 -0.051097 0.696243 1.60144 0.453633 1.99678C-0.15502 2.83977 -0.150764 3.96147 0.463848 5.32158C1.94505 8.97482 7.54721 14.4881 11.2145 16.0249C11.8904 16.3413 12.5101 16.5 13.066 16.5C13.6099 16.5 14.0943 16.3482 14.5105 16.0472C14.8238 15.8663 16.5451 14.4144 16.4991 13.1426C16.4727 12.8185 16.3033 12.4943 15.9986 12.1804C15.5338 11.701 13.8363 10.3178 13.3384 10.2123Z" fill="#314C51"/>
</svg>
