<svg width="24" height="25" viewBox="0 0 24 25" fill="none" xmlns="http://www.w3.org/2000/svg">
<g clip-path="url(#clip0)">
<path d="M20.7746 21.5182L19.4981 7.48219C19.4621 7.09546 19.1381 6.80017 18.7496 6.80017H16.4996V5.30124C16.4996 4.0961 16.0331 2.96441 15.1856 2.11751C14.3381 1.27061 13.2056 0.804443 11.9996 0.804443C9.51864 0.804443 7.49964 2.82201 7.49964 5.30124V6.80017H5.24964C4.86114 6.80017 4.53714 7.09546 4.50264 7.48219L3.22614 21.5182C3.14964 22.3546 3.43164 23.191 3.99864 23.8116C4.56564 24.4321 5.37264 24.7874 6.21414 24.7874H17.7866C18.6281 24.7874 19.4351 24.4321 20.0021 23.8116C20.5691 23.191 20.8496 22.3546 20.7746 21.5182ZM8.99964 5.30124C8.99964 3.64792 10.3451 2.30338 11.9996 2.30338C12.8051 2.30338 13.5596 2.61366 14.1251 3.17725C14.6906 3.74085 14.9996 4.49632 14.9996 5.30124V6.80017H8.99964V5.30124ZM18.8936 22.8013C18.6056 23.1146 18.2126 23.2884 17.7851 23.2884H6.21414C5.78814 23.2884 5.39364 23.1146 5.10714 22.7998C4.81914 22.485 4.68264 22.0788 4.72164 21.6531L5.93514 8.29911H7.49964V10.5475C7.49964 10.9612 7.83564 11.297 8.24964 11.297C8.66364 11.297 8.99964 10.9612 8.99964 10.5475V8.29911H14.9996V10.5475C14.9996 10.9612 15.3356 11.297 15.7496 11.297C16.1636 11.297 16.4996 10.9612 16.4996 10.5475V8.29911H18.0641L19.2791 21.6546C19.3181 22.0788 19.1816 22.4865 18.8936 22.8013Z" fill="#515050"/>
</g>
<defs>
<clipPath id="clip0">
<rect width="24" height="23.9829" fill="white" transform="translate(0 0.804443)"/>
</clipPath>
</defs>
</svg>
