<svg width="48" height="48" viewBox="0 0 48 48" fill="none" xmlns="http://www.w3.org/2000/svg">
<g clip-path="url(#clip0)">
<path d="M45.7944 24.0012L47.9002 18.5086C48.1312 17.9026 47.9512 17.2157 47.4443 16.8047L42.8786 13.103L41.9546 7.29237C41.8526 6.65041 41.3487 6.14945 40.7067 6.04745L34.8961 5.12352L31.1974 0.554828C30.7894 0.0478625 30.0875 -0.132125 29.4965 0.098859L24.0009 2.20772L18.5082 0.101859C17.8993 -0.132125 17.2183 0.0538621 16.8074 0.557828L13.1056 5.12652L7.29501 6.05045C6.65605 6.15244 6.15209 6.65641 6.05009 7.29537L5.12616 13.106L0.55747 16.8077C0.0535039 17.2157 -0.129484 17.9026 0.101501 18.5086L2.20736 24.0012L0.101501 29.4939C-0.132483 30.0998 0.0535039 30.7868 0.55747 31.1947L5.12616 34.8935L6.05009 40.7041C6.15209 41.346 6.65305 41.85 7.29501 41.952L13.1056 42.8759L16.8074 47.4416C17.2183 47.9516 17.9053 48.1316 18.5112 47.8976L24.0009 45.7947L29.4935 47.9006C29.6675 47.9666 29.8475 47.9996 30.0305 47.9996C30.4714 47.9996 30.9064 47.8046 31.1974 47.4416L34.8961 42.8759L40.7067 41.952C41.3487 41.85 41.8526 41.346 41.9546 40.7041L42.8786 34.8935L47.4443 31.1947C47.9512 30.7838 48.1312 30.0998 47.9002 29.4939L45.7944 24.0012Z" fill="#CD2152"/>
<path d="M19.5003 21.0018C17.0195 21.0018 15.0006 18.9829 15.0006 16.5021C15.0006 14.0213 17.0195 12.0024 19.5003 12.0024C21.9811 12.0024 24 14.0213 24 16.5021C24 18.9829 21.9811 21.0018 19.5003 21.0018ZM19.5003 15.0022C18.6724 15.0022 18.0004 15.6742 18.0004 16.5021C18.0004 17.33 18.6724 18.002 19.5003 18.002C20.3282 18.002 21.0002 17.33 21.0002 16.5021C21.0002 15.6742 20.3282 15.0022 19.5003 15.0022Z" fill="#FAFAFA"/>
<path d="M28.4997 36.0008C26.0189 36.0008 24 33.9819 24 31.5011C24 29.0203 26.0189 27.0014 28.4997 27.0014C30.9805 27.0014 32.9994 29.0203 32.9994 31.5011C32.9994 33.9819 30.9805 36.0008 28.4997 36.0008ZM28.4997 30.0012C27.6747 30.0012 26.9998 30.6762 26.9998 31.5011C26.9998 32.326 27.6747 33.001 28.4997 33.001C29.3246 33.001 29.9996 32.326 29.9996 31.5011C29.9996 30.6762 29.3246 30.0012 28.4997 30.0012Z" fill="#FAFAFA"/>
<path d="M16.5001 36.0008C16.1972 36.0008 15.8942 35.9108 15.6302 35.7218C14.9553 35.2388 14.7993 34.3029 15.2822 33.6279L30.2812 12.6294C30.7642 11.9544 31.7001 11.7984 32.375 12.2814C33.05 12.7613 33.203 13.7003 32.723 14.3722L17.7241 35.3708C17.4271 35.7818 16.9681 36.0008 16.5001 36.0008Z" fill="#FAFAFA"/>
</g>
<defs>
<clipPath id="clip0">
<rect width="48" height="48" fill="white"/>
</clipPath>
</defs>
</svg>
