<svg width="24" height="25" viewBox="0 0 24 25" fill="none" xmlns="http://www.w3.org/2000/svg">
<g clip-path="url(#clip0)">
<ellipse cx="12" cy="12.3333" rx="12" ry="12.2" fill="white"/>
<path d="M24 12.3333C24 5.59471 18.6281 0.133301 12 0.133301C5.37188 0.133301 0 5.59471 0 12.3333C0 19.0719 5.37188 24.5333 12 24.5333C12.0703 24.5333 12.1406 24.5333 12.2109 24.5286V15.0354H9.63281V11.9807H12.2109V9.73128C12.2109 7.12448 13.7766 5.70432 16.0641 5.70432C17.1609 5.70432 18.1031 5.78534 18.375 5.82346V8.5494H16.8C15.5578 8.5494 15.3141 9.14987 15.3141 10.0315V11.9759H18.2906L17.9016 15.0307H15.3141V24.0615C20.3297 22.5985 24 17.9043 24 12.3333Z" fill="#D0043C"/>
</g>
<defs>
<clipPath id="clip0">
<rect width="24" height="24.4" fill="white" transform="translate(0 0.133301)"/>
</clipPath>
</defs>
</svg>
