<svg width="36" height="48" viewBox="0 0 36 48" fill="none" xmlns="http://www.w3.org/2000/svg">
<path d="M3.75006 17.8126C3.75006 25.5667 10.0584 31.8751 17.8126 31.8751C25.5667 31.8751 31.8751 25.5667 31.8751 17.8126C31.8751 10.0584 25.5667 3.75006 17.8126 3.75006C10.0584 3.75006 3.75006 10.0584 3.75006 17.8126ZM17.8126 5.62506C24.5329 5.62506 30.0001 11.0922 30.0001 17.8126C30.0001 24.5329 24.5329 30.0001 17.8126 30.0001C11.0922 30.0001 5.62506 24.5329 5.62506 17.8126C5.62506 11.0922 11.0922 5.62506 17.8126 5.62506Z" fill="#D0043C"/>
<path d="M10.8896 22V14.8418H12.335V17.6592H15.167V14.8418H16.6123V22H15.167V18.8701H12.335V22H10.8896ZM18.0674 22V14.8418H19.5127V22H18.0674ZM22.5059 22V16.0527H20.3818V14.8418H26.0703V16.0527H23.9512V22H22.5059Z" fill="#D0043C"/>
<path d="M18.7502 0.937501C18.7502 1.45532 18.3306 1.875 17.8127 1.875C17.2949 1.875 16.8752 1.45532 16.8752 0.937501C16.8752 0.419678 17.2949 0 17.8127 0C18.3306 0 18.7502 0.419678 18.7502 0.937501Z" fill="#D0043C"/>
<path d="M13.3942 0.552592C5.50782 2.56566 0 9.6632 0 17.8125C0 22.8739 2.12805 27.6431 5.86378 31.0206L0.215699 40.9746C0.0340576 41.2951 0.0567628 41.692 0.27356 41.9894C0.490357 42.2871 0.860963 42.4303 1.22168 42.3552L7.63588 41.0233L9.89027 47.376C10.0126 47.7217 10.3257 47.9638 10.6912 47.9964C11.0567 48.029 11.4071 47.8447 11.5884 47.5258L17.8125 36.5834L24.0363 47.5258C24.204 47.8206 24.516 47.9997 24.8507 47.9997C24.8782 47.9997 24.906 47.9986 24.9335 47.9964C25.299 47.9638 25.6121 47.7213 25.7348 47.376L27.9888 41.0233L34.403 42.3552C34.7634 42.43 35.1343 42.2868 35.3511 41.9894C35.5683 41.692 35.5906 41.2951 35.409 40.9746L29.7609 31.0206C33.4966 27.6431 35.6247 22.8739 35.6247 17.8125C35.6247 9.6632 30.1169 2.56566 22.2309 0.552592C21.7288 0.424418 21.2187 0.727275 21.0905 1.22898C20.9623 1.73069 21.2652 2.24119 21.7669 2.36937C28.8223 4.17039 33.75 10.5209 33.75 17.8125C33.75 26.6869 26.5426 33.75 17.8125 33.75C9.07619 33.75 1.875 26.681 1.875 17.8125C1.875 10.5209 6.80238 4.17039 13.8578 2.36937C14.3595 2.24119 14.6624 1.73069 14.5346 1.22898C14.4064 0.727275 13.8963 0.424418 13.3942 0.552592ZM10.9721 44.8176L9.12965 39.6259C8.97291 39.1842 8.51442 38.926 8.05555 39.0213L2.8689 40.0983L7.33888 32.2203C9.94521 34.1151 13.0313 35.2694 16.2404 35.5551L10.9721 44.8176ZM27.5691 39.0213C27.1106 38.926 26.6518 39.1842 26.495 39.6259L24.653 44.8176L19.3843 35.5551C22.5938 35.2694 25.6795 34.1151 28.2862 32.2203L32.7562 40.0983L27.5691 39.0213Z" fill="#D0043C"/>
</svg>
