<svg width="24" height="25" viewBox="0 0 24 25" fill="none" xmlns="http://www.w3.org/2000/svg">
<g clip-path="url(#clip0)">
<ellipse cx="12" cy="12.3333" rx="12" ry="12.2" fill="white"/>
<path d="M14.2969 12.3332C14.2969 13.6229 13.2686 14.6684 12 14.6684C10.7314 14.6684 9.70312 13.6229 9.70312 12.3332C9.70312 11.0435 10.7314 9.99805 12 9.99805C13.2686 9.99805 14.2969 11.0435 14.2969 12.3332Z" fill="#C21846"/>
<path d="M17.3718 8.20165C17.2614 7.89747 17.0853 7.62214 16.8564 7.39615C16.6341 7.16345 16.3635 6.98437 16.0641 6.87212C15.8213 6.77625 15.4565 6.66213 14.7847 6.63104C14.058 6.59735 13.8401 6.59009 12.0002 6.59009C10.1602 6.59009 9.94232 6.59716 9.21576 6.63086C8.54394 6.66213 8.17902 6.77625 7.9364 6.87212C7.63702 6.98437 7.36621 7.16345 7.1441 7.39615C6.91522 7.62214 6.73907 7.89728 6.62848 8.20165C6.53418 8.4485 6.42194 8.81951 6.39136 9.50252C6.35822 10.2412 6.35107 10.4627 6.35107 12.3334C6.35107 14.2039 6.35822 14.4255 6.39136 15.1643C6.42194 15.8473 6.53418 16.2181 6.62848 16.465C6.73907 16.7694 6.91504 17.0445 7.14392 17.2705C7.36621 17.5032 7.63684 17.6823 7.93622 17.7945C8.17902 17.8906 8.54394 18.0047 9.21576 18.0358C9.94232 18.0695 10.16 18.0766 12.0001 18.0766C13.8403 18.0766 14.0582 18.0695 14.7845 18.0358C15.4564 18.0047 15.8213 17.8906 16.0641 17.7945C16.665 17.5589 17.14 17.076 17.3718 16.465C17.4661 16.2181 17.5784 15.8473 17.6091 15.1643C17.6423 14.4255 17.6492 14.2039 17.6492 12.3334C17.6492 10.4627 17.6423 10.2412 17.6091 9.50252C17.5785 8.81951 17.4663 8.4485 17.3718 8.20165ZM12.0002 15.9305C10.046 15.9305 8.46173 14.3201 8.46173 12.3332C8.46173 10.3464 10.046 8.73592 12.0002 8.73592C13.9543 8.73592 15.5386 10.3464 15.5386 12.3332C15.5386 14.3201 13.9543 15.9305 12.0002 15.9305ZM15.6785 9.43439C15.2218 9.43439 14.8516 9.05798 14.8516 8.5937C14.8516 8.12942 15.2218 7.75301 15.6785 7.75301C16.1351 7.75301 16.5054 8.12942 16.5054 8.5937C16.5052 9.05798 16.1351 9.43439 15.6785 9.43439Z" fill="#C21846"/>
<path d="M12 0.133301C5.3736 0.133301 0 5.59646 0 12.3333C0 19.0702 5.3736 24.5333 12 24.5333C18.6264 24.5333 24 19.0702 24 12.3333C24 5.59646 18.6264 0.133301 12 0.133301ZM18.8491 15.2215C18.8157 15.9673 18.6991 16.4764 18.5288 16.9221C18.1708 17.8631 17.4391 18.607 16.5135 18.9709C16.0754 19.1441 15.5744 19.2625 14.8411 19.2965C14.1063 19.3306 13.8715 19.3388 12.0002 19.3388C10.1287 19.3388 9.8941 19.3306 9.15912 19.2965C8.42578 19.2625 7.9248 19.1441 7.48663 18.9709C7.02667 18.795 6.61029 18.5193 6.26605 18.1628C5.91559 17.813 5.64441 17.3895 5.47137 16.9221C5.30109 16.4766 5.18445 15.9673 5.15112 15.2217C5.11725 14.4745 5.10938 14.2358 5.10938 12.3333C5.10938 10.4308 5.11725 10.1921 5.15094 9.44508C5.18427 8.69933 5.30072 8.19019 5.47101 7.74453C5.64404 7.27709 5.91541 6.85358 6.26605 6.50379C6.61011 6.1473 7.02667 5.8716 7.48645 5.69568C7.9248 5.52256 8.4256 5.40416 9.15912 5.37009C9.89392 5.33603 10.1287 5.32784 12 5.32784C13.8713 5.32784 14.1061 5.33603 14.8409 5.37028C15.5744 5.40416 16.0752 5.52256 16.5135 5.6955C16.9733 5.87142 17.3899 6.1473 17.7341 6.50379C18.0846 6.85377 18.356 7.27709 18.5288 7.74453C18.6993 8.19019 18.8157 8.69933 18.8492 9.44508C18.8828 10.1921 18.8906 10.4308 18.8906 12.3333C18.8906 14.2358 18.8828 14.4745 18.8491 15.2215Z" fill="#D0043C"/>
</g>
<defs>
<clipPath id="clip0">
<rect width="24" height="24.4" fill="white" transform="translate(0 0.133301)"/>
</clipPath>
</defs>
</svg>
