<svg width="24" height="25" viewBox="0 0 24 25" fill="none" xmlns="http://www.w3.org/2000/svg">
<g clip-path="url(#clip0)">
<path d="M10.5691 0.985596C4.74145 0.985596 0 5.72368 0 11.5472C0 17.371 4.74145 22.1087 10.5691 22.1087C16.3971 22.1087 21.1382 17.371 21.1382 11.5472C21.1382 5.72368 16.3971 0.985596 10.5691 0.985596ZM10.5691 20.159C5.81723 20.159 1.95122 16.2957 1.95122 11.5472C1.95122 6.79874 5.81723 2.93543 10.5691 2.93543C15.321 2.93543 19.187 6.79869 19.187 11.5472C19.187 16.2956 15.321 20.159 10.5691 20.159Z" fill="#515050"/>
<path d="M23.7146 23.3044L18.121 17.7149C17.7399 17.334 17.1227 17.334 16.7415 17.7149C16.3604 18.0954 16.3604 18.7129 16.7415 19.0934L22.335 24.6829C22.5256 24.8733 22.775 24.9686 23.0248 24.9686C23.2742 24.9686 23.524 24.8733 23.7146 24.6829C24.0957 24.3024 24.0957 23.6849 23.7146 23.3044Z" fill="#515050"/>
</g>
<defs>
<clipPath id="clip0">
<rect width="24" height="23.9829" fill="white" transform="translate(0 0.985596)"/>
</clipPath>
</defs>
</svg>
