<svg width="24" height="24" viewBox="0 0 24 24" fill="none" xmlns="http://www.w3.org/2000/svg">
<g clip-path="url(#clip0)">
<path d="M21.9659 2.51439C19.3355 -0.0593263 15.1303 -0.0587664 12.5006 2.51567L1.47123 13.5451C-0.523103 15.5864 -0.484989 18.858 1.55636 20.8523C3.56412 22.8139 6.77067 22.8139 8.77843 20.8523L18.7657 10.865C20.0641 9.56666 20.0641 7.46155 18.7657 6.16319C17.4673 4.86483 15.3622 4.86483 14.0639 6.16319L4.51081 15.7162C4.17761 16.0612 4.18717 16.611 4.53218 16.9442C4.86874 17.2692 5.40229 17.2692 5.73885 16.9442L15.2919 7.39117C15.9253 6.7843 16.9309 6.80593 17.5377 7.43941C18.1262 8.05376 18.1262 9.02268 17.5377 9.63703L7.55045 19.6243C6.20125 20.9543 4.02927 20.9387 2.69926 19.5895C1.38269 18.2539 1.38269 16.1086 2.69926 14.7731L13.7286 3.74365C15.6932 1.77833 18.879 1.77777 20.8444 3.74233C22.8097 5.70689 22.8102 8.89272 20.8457 10.858L9.81625 21.8875C9.45196 22.1995 9.40952 22.7477 9.7215 23.112C10.0335 23.4763 10.5817 23.5187 10.946 23.2067C10.98 23.1776 11.0117 23.146 11.0408 23.112L22.0702 12.0826C24.6836 9.41161 24.6369 5.12775 21.9659 2.51439Z" fill="#D0043C"/>
</g>
<defs>
<clipPath id="clip0">
<rect width="24" height="24" fill="white"/>
</clipPath>
</defs>
</svg>
