<svg width="25" height="25" viewBox="0 0 25 25" fill="none" xmlns="http://www.w3.org/2000/svg">
<path d="M24.5413 8.89947C24.2556 8.5788 23.8651 8.37023 23.4397 8.31101V8.31012L16.7948 7.3923L14.1653 1.10968C13.7814 0.190079 12.7245 -0.244167 11.8049 0.139754C11.3665 0.322795 11.0179 0.671301 10.8349 1.10968L8.20537 7.3923L1.56055 8.31012C0.570551 8.44791 -0.120299 9.36218 0.0175046 10.3521C0.0767278 10.7775 0.285317 11.168 0.606022 11.4537L5.61242 15.9177L4.58376 22.9225C4.47232 23.6338 4.79905 24.3425 5.41236 24.7197C6.01704 25.1063 6.79485 25.0919 7.38472 24.6831L12.5 21.2047L17.6154 24.6866C18.4408 25.2468 19.5641 25.0319 20.1244 24.2065C20.3789 23.8314 20.4832 23.3744 20.4164 22.9261L19.3878 15.9185L24.3942 11.4545C25.1404 10.7896 25.2064 9.64566 24.5413 8.89947ZM17.8395 14.9097C17.6155 15.1097 17.5072 15.409 17.5511 15.7061L18.6225 23.2056L13.0045 19.3862C12.7017 19.1804 12.3038 19.1804 12.0009 19.3862L6.34989 23.1823L7.44902 15.7025C7.49171 15.4066 7.38342 15.109 7.1606 14.9097L1.8033 10.0814L8.95351 9.09486C9.26658 9.0517 9.53345 8.84627 9.6553 8.55474L12.5107 1.78556C12.514 1.78953 12.5164 1.79408 12.5179 1.79895L15.3439 8.55118C15.4657 8.84272 15.7326 9.04815 16.0456 9.0913L23.2048 10.1216L17.8395 14.9097Z" fill="#515050"/>
</svg>
