<svg width="25" height="26" viewBox="0 0 25 26" fill="none" xmlns="http://www.w3.org/2000/svg">
<g clip-path="url(#clip0)">
<path d="M24.2776 9.52326C24.0032 9.21563 23.6284 9.01554 23.2199 8.95873V8.95788L16.8409 8.0774L14.3166 2.05037C13.948 1.16819 12.9334 0.751606 12.0506 1.11991C11.6297 1.2955 11.295 1.62983 11.1194 2.05037L8.59502 8.0774L2.21599 8.95788C1.26559 9.09007 0.602378 9.96714 0.734669 10.9168C0.791524 11.3249 0.991769 11.6994 1.29965 11.9736L6.10579 16.2559L5.11827 22.9758C5.0113 23.6581 5.32495 24.338 5.91373 24.6999C6.49423 25.0708 7.24092 25.0569 7.8072 24.6647L12.7179 21.3279L17.6286 24.6682C18.421 25.2055 19.4994 24.9993 20.0372 24.2076C20.2816 23.8477 20.3817 23.4093 20.3176 22.9792L19.3301 16.2567L24.1363 11.9744C24.8527 11.3365 24.916 10.2391 24.2776 9.52326ZM17.8438 15.2889C17.6288 15.4809 17.5248 15.7679 17.5669 16.0529L18.5955 23.2473L13.2022 19.5833C12.9115 19.3859 12.5295 19.3859 12.2388 19.5833L6.81376 23.2251L7.86893 16.0495C7.90991 15.7657 7.80594 15.4802 7.59204 15.289L2.44904 10.6571L9.31324 9.7107C9.61378 9.66929 9.86998 9.47222 9.98695 9.19254L12.7282 2.69875C12.7313 2.70257 12.7336 2.70693 12.735 2.7116L15.448 9.18913C15.5649 9.46881 15.8212 9.66588 16.1217 9.70728L22.9945 10.6957L17.8438 15.2889Z" fill="#515050"/>
</g>
<defs>
<clipPath id="clip0">
<rect width="23.8744" height="24.4" fill="white" transform="translate(0.717285 0.985596)"/>
</clipPath>
</defs>
</svg>
