<svg width="24" height="25" viewBox="0 0 24 25" fill="none" xmlns="http://www.w3.org/2000/svg">
<g clip-path="url(#clip0)">
<path d="M20.6701 4.49332C18.4049 2.13062 15.2707 0.797222 11.9964 0.803243C5.37922 0.794915 0.0081607 6.14861 -0.000173606 12.7611C-0.00429055 16.0307 1.3299 19.1598 3.69253 21.4218C3.69941 21.4286 3.70197 21.4389 3.7088 21.4449C3.77818 21.5117 3.85359 21.5682 3.92388 21.6324C4.11667 21.8037 4.30947 21.9809 4.51255 22.1462C4.62135 22.2318 4.73447 22.3174 4.84588 22.3962C5.03782 22.5392 5.22976 22.6821 5.43023 22.814C5.56649 22.8997 5.70702 22.9853 5.84665 23.0709C6.03171 23.1823 6.21597 23.2944 6.40705 23.3963C6.56902 23.4819 6.73435 23.5555 6.89888 23.6334C7.07882 23.7191 7.2562 23.8047 7.44041 23.8817C7.62462 23.9588 7.80973 24.0188 7.9965 24.0855C8.18326 24.1523 8.34438 24.214 8.52347 24.2688C8.7257 24.3296 8.93305 24.3766 9.1387 24.4271C9.31005 24.4691 9.47629 24.5171 9.65281 24.5513C9.88929 24.5984 10.1292 24.6284 10.3692 24.6609C10.5174 24.6815 10.6622 24.7106 10.8121 24.7252C11.2046 24.7637 11.6004 24.7851 11.9997 24.7851C12.399 24.7851 12.7949 24.7637 13.1873 24.7252C13.3373 24.7106 13.4821 24.6815 13.6303 24.6609C13.8702 24.6284 14.1101 24.5984 14.3466 24.5513C14.518 24.5171 14.6894 24.4657 14.8608 24.4271C15.0664 24.3766 15.2738 24.3295 15.476 24.2688C15.6551 24.214 15.8281 24.1472 16.003 24.0855C16.1778 24.0239 16.3765 23.9571 16.559 23.8817C16.7415 23.8064 16.9206 23.7182 17.1006 23.6334C17.2651 23.5555 17.4305 23.4819 17.5924 23.3963C17.7835 23.2944 17.9677 23.1822 18.1528 23.0709C18.2925 22.9853 18.433 22.9074 18.5692 22.814C18.7697 22.6822 18.9617 22.5392 19.1536 22.3962C19.265 22.3105 19.378 22.2335 19.4869 22.1462C19.69 21.9835 19.8828 21.8105 20.0756 21.6324C20.1458 21.5682 20.2212 21.5117 20.2907 21.4449C20.2975 21.4389 20.3001 21.4286 20.3069 21.4218C25.0853 16.8473 25.2478 9.26814 20.6701 4.49332ZM18.7442 20.5252C18.5882 20.6623 18.4271 20.7924 18.2644 20.9183C18.1684 20.9919 18.0724 21.0647 17.9739 21.1349C17.8188 21.2471 17.6611 21.3533 17.5009 21.4552C17.3843 21.5297 17.2653 21.6016 17.1453 21.6718C16.9944 21.7574 16.8411 21.843 16.686 21.9287C16.5489 21.9989 16.4092 22.0648 16.2687 22.1299C16.1282 22.195 15.9731 22.2643 15.8214 22.3251C15.6697 22.3859 15.5087 22.4433 15.3501 22.4964C15.2053 22.546 15.0605 22.5974 14.914 22.6411C14.7426 22.6924 14.5635 22.7344 14.3862 22.7772C14.2473 22.8097 14.1103 22.8466 13.9697 22.874C13.7666 22.9134 13.5593 22.9408 13.3511 22.969C13.2329 22.9844 13.1155 23.0059 12.9963 23.0178C12.6673 23.0495 12.334 23.0684 11.9972 23.0684C11.6605 23.0684 11.3272 23.0496 10.9981 23.0178C10.879 23.0059 10.7616 22.9844 10.6433 22.969C10.4351 22.9408 10.2278 22.9134 10.0247 22.874C9.88417 22.8466 9.74705 22.8098 9.60828 22.7772C9.4309 22.7344 9.25437 22.6916 9.08046 22.6411C8.93396 22.5974 8.78911 22.546 8.64431 22.4964C8.48581 22.4416 8.32726 22.3859 8.17302 22.3251C8.01879 22.2643 7.87314 22.1975 7.72573 22.1299C7.57832 22.0623 7.44553 21.9989 7.30846 21.9287C7.15338 21.8482 6.99999 21.7634 6.84917 21.6718C6.72923 21.6016 6.61009 21.5297 6.49356 21.4552C6.33335 21.3533 6.17565 21.2471 6.02056 21.1349C5.92201 21.0647 5.82606 20.9919 5.73007 20.9183C5.56725 20.7924 5.40618 20.6614 5.25024 20.5252C5.21254 20.497 5.17824 20.461 5.14144 20.4285C5.17975 17.5157 7.05231 14.9437 9.81393 14.0108C11.1948 14.6672 12.798 14.6672 14.1788 14.0108C16.9404 14.9437 18.8129 17.5156 18.8513 20.4285C18.8153 20.461 18.781 20.4936 18.7442 20.5252ZM9.00841 7.66854C9.93618 6.01972 12.0258 5.43468 13.6758 6.36178C15.3258 7.28889 15.9113 9.37706 14.9835 11.0259C14.6757 11.5729 14.2233 12.025 13.6758 12.3326C13.6716 12.3326 13.6664 12.3326 13.6613 12.3377C13.434 12.4641 13.1939 12.5658 12.9449 12.6409C12.9004 12.6537 12.8592 12.6708 12.8121 12.682C12.7264 12.7042 12.6364 12.7197 12.5482 12.7351C12.382 12.7641 12.2139 12.781 12.0452 12.7856H11.9475C11.7789 12.781 11.6107 12.7641 11.4445 12.7351C11.3588 12.7197 11.268 12.7042 11.1807 12.682C11.1352 12.6708 11.095 12.6537 11.0479 12.6409C10.7989 12.5658 10.5587 12.4642 10.3315 12.3377L10.3161 12.3326C8.6661 11.4055 8.08064 9.31736 9.00841 7.66854ZM20.3713 18.7306C19.8215 16.1677 18.1326 13.9949 15.7837 12.8285C17.7039 10.7383 17.5648 7.48837 15.4731 5.56958C13.3815 3.6508 10.1292 3.78977 8.20907 5.87994C6.40394 7.84494 6.40394 10.8635 8.20907 12.8285C5.86015 13.995 4.1713 16.1677 3.62144 18.7306C0.335709 14.1057 1.42399 7.69473 6.05219 4.41134C10.6804 1.12795 17.0959 2.21546 20.3816 6.84037C21.6168 8.57894 22.2798 10.6586 22.2787 12.7907C22.2787 14.9211 21.6118 16.998 20.3713 18.7306Z" fill="#515050"/>
</g>
<defs>
<clipPath id="clip0">
<rect width="24" height="23.9829" fill="white" transform="translate(0 0.80249)"/>
</clipPath>
</defs>
</svg>
