<svg width="798" height="924" viewBox="0 0 798 924" fill="none" xmlns="http://www.w3.org/2000/svg">
<path data-template="s-tippy1" class="path-sector" d="M774 63.959L528 47L563.891 148H695.863L767.271 104.66L774 63.959Z" fill="white" fill-opacity="0.2"/>
<path data-template="s-tippy2" class="path-sector" d="M707.244 344H589L602.6 173.292H707.244L759 139L707.244 344Z" fill="white" fill-opacity="0.2"/>
<path data-template="s-tippy3" class="path-sector" d="M522 479.637L654.677 554L707 353H585.535L522 479.637Z" fill="white" fill-opacity="0.2"/>
<path data-template="s-tippy4" class="path-sector" d="M493.436 656.061C534.545 666.797 615.369 688.414 618.599 689L652 560.538L521.331 491L427 545.898L493.436 656.061Z" fill="white" fill-opacity="0.2"/>
<path data-template="s-tippy5" class="path-sector" d="M489.673 662C476.92 698.041 450.331 772.891 446 783.959L563.665 899L616 694.401L489.673 662Z" fill="white" fill-opacity="0.2"/>
<path data-template="s-tippy6" class="path-sector" d="M392.434 562C357.595 581.597 286.535 621.74 281 625.538L439.046 780L470 691.997L392.434 562Z" fill="white" fill-opacity="0.2"/>
<path data-template="s-tippy7" class="path-sector" d="M240.988 550.4C216.367 526.16 164.747 475.088 161 470.48L289.269 302L397 511.16L295.754 563L240.988 550.4Z" fill="white" fill-opacity="0.2"/>
<path data-template="s-tippy8" class="path-sector" d="M328.379 255L299 296.317L406.722 504L488.693 457.198L546 342.753L328.379 255Z" fill="white" fill-opacity="0.2"/>
<path data-template="s-tippy9" class="path-sector" d="M495.692 49.0606C434.188 47.7071 310.743 45 309 45L323.892 179L544 173.463L495.692 49.0606Z" fill="white" fill-opacity="0.2"/>
<path data-template="s-tippy10" class="path-sector" d="M294.137 25.5405L319 245L70 179.347L116.802 13L294.137 25.5405Z" fill="white" fill-opacity="0.2"/>
<path data-template="s-tippy11" class="path-sector" d="M314 254.417C256.311 330.668 140.491 483.536 138.727 485L16 366.78L67.8101 190L314 254.417Z" fill="white" fill-opacity="0.2"/>
<path d="M794 50.3787L570.87 918L4 372.767L110.665 4L794 50.3787Z" stroke="white" stroke-opacity="0.6" stroke-width="6"/>
<path d="M424.274 78.88C428.199 78.88 431.485 79.776 434.13 81.568C436.818 83.36 438.845 85.9413 440.21 89.312C441.575 92.64 442.258 96.6507 442.258 101.344C442.258 106.379 441.426 110.603 439.762 114.016C438.098 117.429 435.773 120.011 432.786 121.76C429.799 123.467 426.322 124.32 422.354 124.32C420.434 124.32 418.599 124.149 416.85 123.808C415.143 123.467 413.586 122.869 412.178 122.016L413.522 119.392C414.674 120.117 416.018 120.651 417.554 120.992C419.09 121.291 420.69 121.44 422.354 121.44C427.389 121.44 431.421 119.819 434.45 116.576C437.479 113.291 438.994 108.384 438.994 101.856C438.994 100.832 438.93 99.5733 438.802 98.08C438.674 96.5867 438.397 95.1147 437.97 93.664L439.122 93.984C438.823 96.4587 437.991 98.5707 436.626 100.32C435.261 102.027 433.511 103.349 431.378 104.288C429.287 105.227 426.941 105.696 424.338 105.696C421.351 105.696 418.727 105.163 416.466 104.096C414.247 102.987 412.498 101.429 411.218 99.424C409.981 97.4187 409.362 95.072 409.362 92.384C409.362 89.6533 410.002 87.2853 411.282 85.28C412.605 83.232 414.375 81.6533 416.594 80.544C418.855 79.4347 421.415 78.88 424.274 78.88ZM424.402 81.696C422.055 81.696 420.007 82.144 418.258 83.04C416.509 83.8933 415.122 85.1093 414.098 86.688C413.117 88.2667 412.626 90.144 412.626 92.32C412.626 95.52 413.714 98.08 415.89 100C418.066 101.92 421.031 102.88 424.786 102.88C427.218 102.88 429.373 102.411 431.25 101.472C433.127 100.533 434.578 99.2533 435.602 97.632C436.669 96.0107 437.202 94.1973 437.202 92.192C437.202 90.4427 436.711 88.7787 435.73 87.2C434.749 85.5787 433.319 84.256 431.442 83.232C429.565 82.208 427.218 81.696 424.402 81.696Z" fill="#F8F8F8"/>
<path d="M173.126 123V79.608L174.598 81.144H162.182V78.2H176.39V123H173.126ZM205.325 123.32C201.911 123.32 198.882 122.403 196.237 120.568C193.591 118.733 191.522 116.131 190.029 112.76C188.535 109.347 187.789 105.293 187.789 100.6C187.789 95.9067 188.535 91.8747 190.029 88.504C191.522 85.0907 193.591 82.4667 196.237 80.632C198.882 78.7973 201.911 77.88 205.325 77.88C208.781 77.88 211.81 78.7973 214.413 80.632C217.058 82.4667 219.127 85.0907 220.621 88.504C222.114 91.8747 222.861 95.9067 222.861 100.6C222.861 105.293 222.114 109.347 220.621 112.76C219.127 116.131 217.058 118.733 214.413 120.568C211.81 122.403 208.781 123.32 205.325 123.32ZM205.325 120.312C208.183 120.312 210.679 119.544 212.813 118.008C214.946 116.429 216.61 114.168 217.805 111.224C218.999 108.28 219.597 104.739 219.597 100.6C219.597 96.4187 218.999 92.8773 217.805 89.976C216.61 87.032 214.946 84.792 212.813 83.256C210.679 81.6773 208.183 80.888 205.325 80.888C202.509 80.888 200.013 81.6773 197.837 83.256C195.703 84.792 194.039 87.032 192.845 89.976C191.65 92.8773 191.053 96.4187 191.053 100.6C191.053 104.739 191.65 108.28 192.845 111.224C194.039 114.168 195.703 116.429 197.837 118.008C200.013 119.544 202.509 120.312 205.325 120.312Z" fill="#F8F8F8"/>
<path d="M125.408 331V287.608L126.88 289.144H114.464V286.2H128.672V331H125.408ZM148.07 331V287.608L149.542 289.144H137.126V286.2H151.334V331H148.07Z" fill="#F8F8F8"/>
<path d="M651.239 109V65.608L652.711 67.144H640.295V64.2H654.503V109H651.239Z" fill="#F8F8F8"/>
<path d="M659.093 254V251.696L678.037 232.88C679.829 231.088 681.173 229.531 682.069 228.208C682.965 226.843 683.562 225.584 683.861 224.432C684.202 223.28 684.373 222.149 684.373 221.04C684.373 218.224 683.413 216.005 681.493 214.384C679.573 212.72 676.757 211.888 673.045 211.888C670.229 211.888 667.754 212.315 665.621 213.168C663.53 214.021 661.717 215.323 660.181 217.072L657.877 215.024C659.583 213.061 661.738 211.547 664.341 210.48C666.986 209.413 669.973 208.88 673.301 208.88C676.245 208.88 678.783 209.371 680.917 210.352C683.093 211.291 684.757 212.656 685.909 214.448C687.103 216.197 687.701 218.288 687.701 220.72C687.701 222.171 687.487 223.6 687.061 225.008C686.677 226.373 685.951 227.824 684.885 229.36C683.861 230.896 682.367 232.645 680.405 234.608L662.613 252.336L661.525 251.056H689.877V254H659.093Z" fill="#F8F8F8"/>
<path d="M272.862 473L292.574 429.736L293.726 431.144H265.118L266.782 429.608V439.72H263.582V428.2H295.71V430.504L276.446 473H272.862Z" fill="#F8F8F8"/>
<path d="M423.941 391.32C420.4 391.32 417.371 390.808 414.853 389.784C412.336 388.76 410.395 387.309 409.029 385.432C407.707 383.555 407.045 381.315 407.045 378.712C407.045 376.195 407.707 374.04 409.029 372.248C410.352 370.456 412.272 369.091 414.789 368.152C417.307 367.171 420.357 366.68 423.941 366.68C427.525 366.68 430.576 367.171 433.093 368.152C435.653 369.091 437.595 370.456 438.917 372.248C440.283 374.04 440.965 376.195 440.965 378.712C440.965 381.315 440.283 383.555 438.917 385.432C437.552 387.309 435.589 388.76 433.029 389.784C430.512 390.808 427.483 391.32 423.941 391.32ZM423.941 388.504C428.251 388.504 431.621 387.629 434.053 385.88C436.485 384.131 437.701 381.741 437.701 378.712C437.701 375.725 436.485 373.357 434.053 371.608C431.621 369.859 428.251 368.984 423.941 368.984C419.632 368.984 416.283 369.859 413.893 371.608C411.504 373.357 410.309 375.725 410.309 378.712C410.309 381.741 411.504 384.131 413.893 385.88C416.283 387.629 419.632 388.504 423.941 388.504ZM423.941 368.536C420.699 368.536 417.925 368.109 415.621 367.256C413.36 366.36 411.632 365.08 410.437 363.416C409.243 361.752 408.645 359.768 408.645 357.464C408.645 355.075 409.264 353.027 410.501 351.32C411.781 349.571 413.573 348.227 415.877 347.288C418.181 346.349 420.869 345.88 423.941 345.88C427.056 345.88 429.765 346.349 432.069 347.288C434.373 348.227 436.165 349.571 437.445 351.32C438.725 353.027 439.365 355.075 439.365 357.464C439.365 359.768 438.747 361.752 437.509 363.416C436.315 365.08 434.565 366.36 432.261 367.256C429.957 368.109 427.184 368.536 423.941 368.536ZM423.941 366.296C427.781 366.296 430.768 365.507 432.901 363.928C435.035 362.349 436.101 360.237 436.101 357.592C436.101 354.819 434.992 352.643 432.773 351.064C430.597 349.485 427.653 348.696 423.941 348.696C420.272 348.696 417.349 349.485 415.173 351.064C412.997 352.643 411.909 354.797 411.909 357.528C411.909 360.216 412.955 362.349 415.045 363.928C417.179 365.507 420.144 366.296 423.941 366.296Z" fill="#F8F8F8"/>
<path d="M620.296 445.32C617.011 445.32 613.939 444.765 611.08 443.656C608.264 442.547 606.067 441.096 604.488 439.304L606.152 436.808C607.518 438.387 609.438 439.709 611.912 440.776C614.43 441.8 617.224 442.312 620.296 442.312C624.307 442.312 627.358 441.416 629.448 439.624C631.582 437.832 632.648 435.421 632.648 432.392C632.648 429.405 631.582 427.016 629.448 425.224C627.358 423.389 624.072 422.472 619.592 422.472H616.776V420.104L631.048 401.864L631.496 403.144H606.152V400.2H634.248V402.504L620.04 420.744L618.632 419.72H620.04C625.374 419.72 629.363 420.893 632.008 423.24C634.654 425.587 635.976 428.637 635.976 432.392C635.976 434.867 635.379 437.085 634.184 439.048C633.032 441.011 631.283 442.547 628.936 443.656C626.632 444.765 623.752 445.32 620.296 445.32Z" fill="#F8F8F8"/>
<path d="M521.315 589.584V587.216L545.635 557.2H549.283L525.027 587.216L523.235 586.704H559.459V589.584H521.315ZM546.851 602V589.584L546.915 586.704V575.76H550.051V602H546.851Z" fill="#F8F8F8"/>
<path d="M530.564 765.32C527.322 765.32 524.271 764.765 521.412 763.656C518.596 762.547 516.399 761.096 514.82 759.304L516.484 756.808C517.85 758.387 519.77 759.709 522.244 760.776C524.719 761.8 527.471 762.312 530.5 762.312C534.639 762.312 537.754 761.373 539.844 759.496C541.935 757.619 542.98 755.187 542.98 752.2C542.98 750.067 542.49 748.232 541.508 746.696C540.527 745.16 538.863 743.987 536.516 743.176C534.17 742.323 530.97 741.896 526.916 741.896H517.828L520.196 720.2H543.94V723.144H521.54L523.14 721.608L521.028 740.616L519.492 738.952H527.62C532.186 738.952 535.812 739.507 538.5 740.616C541.231 741.683 543.194 743.197 544.388 745.16C545.626 747.123 546.244 749.427 546.244 752.072C546.244 754.547 545.668 756.787 544.516 758.792C543.364 760.797 541.615 762.397 539.268 763.592C536.964 764.744 534.063 765.32 530.564 765.32Z" fill="#F8F8F8"/>
<path d="M399.754 673.32C395.829 673.32 392.522 672.424 389.834 670.632C387.189 668.84 385.183 666.259 383.818 662.888C382.453 659.517 381.77 655.507 381.77 650.856C381.77 645.779 382.602 641.555 384.266 638.184C385.93 634.771 388.255 632.211 391.242 630.504C394.229 628.755 397.706 627.88 401.674 627.88C403.594 627.88 405.429 628.051 407.178 628.392C408.927 628.733 410.485 629.331 411.85 630.184L410.506 632.808C409.354 632.083 408.01 631.571 406.474 631.272C404.981 630.931 403.381 630.76 401.674 630.76C396.639 630.76 392.607 632.403 389.578 635.688C386.549 638.931 385.034 643.816 385.034 650.344C385.034 651.325 385.098 652.584 385.226 654.12C385.354 655.613 385.631 657.085 386.058 658.536L384.906 658.216C385.205 655.741 386.037 653.629 387.402 651.88C388.767 650.131 390.517 648.808 392.65 647.912C394.783 646.973 397.13 646.504 399.69 646.504C402.677 646.504 405.279 647.059 407.498 648.168C409.759 649.235 411.509 650.771 412.746 652.776C414.026 654.781 414.666 657.128 414.666 659.816C414.666 662.547 414.005 664.936 412.682 666.984C411.402 668.989 409.631 670.547 407.37 671.656C405.151 672.765 402.613 673.32 399.754 673.32ZM399.626 670.504C401.973 670.504 404.021 670.077 405.77 669.224C407.519 668.328 408.885 667.091 409.866 665.512C410.89 663.891 411.402 662.013 411.402 659.88C411.402 656.68 410.314 654.12 408.138 652.2C406.005 650.28 403.039 649.32 399.242 649.32C396.81 649.32 394.655 649.789 392.778 650.728C390.901 651.667 389.429 652.947 388.362 654.568C387.338 656.189 386.826 658.003 386.826 660.008C386.826 661.757 387.317 663.443 388.298 665.064C389.279 666.643 390.709 667.944 392.586 668.968C394.506 669.992 396.853 670.504 399.626 670.504Z" fill="#F8F8F8"/>
</svg>
