<svg width="622" height="719" viewBox="0 0 622 719" fill="none" xmlns="http://www.w3.org/2000/svg">
<path d="M553.509 267H461L471.64 132.932H553.509L594 106L553.509 267Z" fill="white" fill-opacity="0.2"/>
<path d="M305.85 438C278.385 453.462 222.364 485.134 218 488.131L342.597 610L367 540.566L305.85 438Z" fill="white" fill-opacity="0.2"/>
<path d="M606 46.4328L413 33L441.158 113H544.698L600.72 78.6716L606 46.4328Z" fill="white" fill-opacity="0.2"/>
<path d="M382.425 517C372.372 545.438 351.414 604.496 348 613.229L440.747 704L482 542.565L382.425 517Z" fill="white" fill-opacity="0.2"/>
<path d="M386.971 35.1818C338.552 34.1212 241.372 32 240 32L251.723 137L425 132.661L386.971 35.1818Z" fill="white" fill-opacity="0.2"/>
<path d="M330.274 61.88C334.199 61.88 337.485 62.776 340.13 64.568C342.818 66.36 344.845 68.9413 346.21 72.312C347.575 75.64 348.258 79.6507 348.258 84.344C348.258 89.3787 347.426 93.6027 345.762 97.016C344.098 100.429 341.773 103.011 338.786 104.76C335.799 106.467 332.322 107.32 328.354 107.32C326.434 107.32 324.599 107.149 322.85 106.808C321.143 106.467 319.586 105.869 318.178 105.016L319.522 102.392C320.674 103.117 322.018 103.651 323.554 103.992C325.09 104.291 326.69 104.44 328.354 104.44C333.389 104.44 337.421 102.819 340.45 99.576C343.479 96.2907 344.994 91.384 344.994 84.856C344.994 83.832 344.93 82.5733 344.802 81.08C344.674 79.5867 344.397 78.1147 343.97 76.664L345.122 76.984C344.823 79.4587 343.991 81.5707 342.626 83.32C341.261 85.0267 339.511 86.3493 337.378 87.288C335.287 88.2267 332.941 88.696 330.338 88.696C327.351 88.696 324.727 88.1627 322.466 87.096C320.247 85.9867 318.498 84.4293 317.218 82.424C315.981 80.4187 315.362 78.072 315.362 75.384C315.362 72.6533 316.002 70.2853 317.282 68.28C318.605 66.232 320.375 64.6533 322.594 63.544C324.855 62.4347 327.415 61.88 330.274 61.88ZM330.402 64.696C328.055 64.696 326.007 65.144 324.258 66.04C322.509 66.8933 321.122 68.1093 320.098 69.688C319.117 71.2667 318.626 73.144 318.626 75.32C318.626 78.52 319.714 81.08 321.89 83C324.066 84.92 327.031 85.88 330.786 85.88C333.218 85.88 335.373 85.4107 337.25 84.472C339.127 83.5333 340.578 82.2533 341.602 80.632C342.669 79.0107 343.202 77.1973 343.202 75.192C343.202 73.4427 342.711 71.7787 341.73 70.2C340.749 68.5787 339.319 67.256 337.442 66.232C335.565 65.208 333.218 64.696 330.402 64.696Z" fill="#F8F8F8"/>
<path d="M509.739 95V51.608L511.211 53.144H498.795V50.2H513.003V95H509.739Z" fill="#F8F8F8"/>
<path d="M542.877 206.056V209H512.093V206.696L531.037 187.88C533.511 185.405 535.175 183.293 536.029 181.544C536.925 179.752 537.373 177.917 537.373 176.04C537.373 173.181 536.391 170.941 534.429 169.32C532.509 167.699 529.714 166.888 526.045 166.888C523.229 166.888 520.754 167.315 518.621 168.168C516.53 169.021 514.717 170.323 513.181 172.072L510.877 170.024C512.583 168.061 514.738 166.547 517.341 165.48C519.986 164.413 522.973 163.88 526.301 163.88C530.695 163.88 534.194 164.947 536.797 167.08C539.399 169.213 540.701 172.093 540.701 175.72C540.701 178.024 540.189 180.221 539.165 182.312C538.141 184.403 536.221 186.835 533.405 189.608L516.893 206.056H542.877Z" fill="#F8F8F8"/>
<path d="M255.194 197L232 229.523L317.044 393L381.758 356.16L427 266.075L255.194 197Z" fill="white" fill-opacity="0.2"/>
<path d="M244 196.66C198.507 256.627 107.173 376.849 105.782 378L9 285.027L49.857 146L244 196.66Z" fill="white" fill-opacity="0.2"/>
<path d="M228.429 16.8378L248 189L52 137.496L88.8399 7L228.429 16.8378Z" fill="white" fill-opacity="0.2"/>
<path d="M128.626 106V62.608L130.098 64.144H117.682V61.2H131.89V106H128.626ZM160.825 106.32C157.411 106.32 154.382 105.403 151.737 103.568C149.091 101.733 147.022 99.1307 145.529 95.76C144.035 92.3467 143.289 88.2933 143.289 83.6C143.289 78.9067 144.035 74.8747 145.529 71.504C147.022 68.0907 149.091 65.4667 151.737 63.632C154.382 61.7973 157.411 60.88 160.825 60.88C164.281 60.88 167.31 61.7973 169.913 63.632C172.558 65.4667 174.627 68.0907 176.121 71.504C177.614 74.8747 178.361 78.9067 178.361 83.6C178.361 88.2933 177.614 92.3467 176.121 95.76C174.627 99.1307 172.558 101.733 169.913 103.568C167.31 105.403 164.281 106.32 160.825 106.32ZM160.825 103.312C163.683 103.312 166.179 102.544 168.313 101.008C170.446 99.4293 172.11 97.168 173.305 94.224C174.499 91.28 175.097 87.7387 175.097 83.6C175.097 79.4187 174.499 75.8773 173.305 72.976C172.11 70.032 170.446 67.792 168.313 66.256C166.179 64.6773 163.683 63.888 160.825 63.888C158.009 63.888 155.513 64.6773 153.337 66.256C151.203 67.792 149.539 70.032 148.345 72.976C147.15 75.8773 146.553 79.4187 146.553 83.6C146.553 87.7387 147.15 91.28 148.345 94.224C149.539 97.168 151.203 99.4293 153.337 101.008C155.513 102.544 158.009 103.312 160.825 103.312Z" fill="#F8F8F8"/>
<path d="M186.702 429.103C167.402 410.064 126.937 369.95 124 366.331L224.55 234L309 398.283L229.634 439L186.702 429.103Z" fill="white" fill-opacity="0.2"/>
<path d="M92.9075 270V226.608L94.3795 228.144H81.9635V225.2H96.1715V270H92.9075ZM115.57 270V226.608L117.042 228.144H104.626V225.2H118.834V270H115.57Z" fill="#F8F8F8"/>
<path d="M385.263 512.214C417.602 520.619 481.183 537.542 483.724 538L510 437.436L407.207 383L333 425.976L385.263 512.214Z" fill="white" fill-opacity="0.2"/>
<path d="M408 373.546L511.99 432L553 274H457.798L408 373.546Z" fill="white" fill-opacity="0.2"/>
<path d="M209.862 382L229.574 338.736L230.726 340.144H202.118L203.782 338.608V348.72H200.582V337.2H232.71V339.504L213.446 382H209.862Z" fill="#F8F8F8"/>
<path d="M330.441 317.32C326.9 317.32 323.871 316.808 321.353 315.784C318.836 314.76 316.895 313.309 315.529 311.432C314.207 309.555 313.545 307.315 313.545 304.712C313.545 302.195 314.207 300.04 315.529 298.248C316.852 296.456 318.772 295.091 321.289 294.152C323.807 293.171 326.857 292.68 330.441 292.68C334.025 292.68 337.076 293.171 339.593 294.152C342.153 295.091 344.095 296.456 345.417 298.248C346.783 300.04 347.465 302.195 347.465 304.712C347.465 307.315 346.783 309.555 345.417 311.432C344.052 313.309 342.089 314.76 339.529 315.784C337.012 316.808 333.983 317.32 330.441 317.32ZM330.441 314.504C334.751 314.504 338.121 313.629 340.553 311.88C342.985 310.131 344.201 307.741 344.201 304.712C344.201 301.725 342.985 299.357 340.553 297.608C338.121 295.859 334.751 294.984 330.441 294.984C326.132 294.984 322.783 295.859 320.393 297.608C318.004 299.357 316.809 301.725 316.809 304.712C316.809 307.741 318.004 310.131 320.393 311.88C322.783 313.629 326.132 314.504 330.441 314.504ZM330.441 294.536C327.199 294.536 324.425 294.109 322.121 293.256C319.86 292.36 318.132 291.08 316.937 289.416C315.743 287.752 315.145 285.768 315.145 283.464C315.145 281.075 315.764 279.027 317.001 277.32C318.281 275.571 320.073 274.227 322.377 273.288C324.681 272.349 327.369 271.88 330.441 271.88C333.556 271.88 336.265 272.349 338.569 273.288C340.873 274.227 342.665 275.571 343.945 277.32C345.225 279.027 345.865 281.075 345.865 283.464C345.865 285.768 345.247 287.752 344.009 289.416C342.815 291.08 341.065 292.36 338.761 293.256C336.457 294.109 333.684 294.536 330.441 294.536ZM330.441 292.296C334.281 292.296 337.268 291.507 339.401 289.928C341.535 288.349 342.601 286.237 342.601 283.592C342.601 280.819 341.492 278.643 339.273 277.064C337.097 275.485 334.153 274.696 330.441 274.696C326.772 274.696 323.849 275.485 321.673 277.064C319.497 278.643 318.409 280.797 318.409 283.528C318.409 286.216 319.455 288.349 321.545 289.928C323.679 291.507 326.644 292.296 330.441 292.296Z" fill="#F8F8F8"/>
<path d="M484.796 360.32C481.511 360.32 478.439 359.765 475.58 358.656C472.764 357.547 470.567 356.096 468.988 354.304L470.652 351.808C472.018 353.387 473.938 354.709 476.412 355.776C478.93 356.8 481.724 357.312 484.796 357.312C488.807 357.312 491.858 356.416 493.948 354.624C496.082 352.832 497.148 350.421 497.148 347.392C497.148 344.405 496.082 342.016 493.948 340.224C491.858 338.389 488.572 337.472 484.092 337.472H481.276V335.104L495.548 316.864L495.996 318.144H470.652V315.2H498.748V317.504L484.54 335.744L483.132 334.72H484.54C489.874 334.72 493.863 335.893 496.508 338.24C499.154 340.587 500.476 343.637 500.476 347.392C500.476 349.867 499.879 352.085 498.684 354.048C497.532 356.011 495.783 357.547 493.436 358.656C491.132 359.765 488.252 360.32 484.796 360.32Z" fill="#F8F8F8"/>
<path d="M403.815 470.584V468.216L428.135 438.2H431.783L407.527 468.216L405.735 467.704H441.959V470.584H403.815ZM429.351 483V470.584L429.415 467.704V456.76H432.551V483H429.351Z" fill="#F8F8F8"/>
<path d="M414.564 611.32C411.322 611.32 408.271 610.765 405.412 609.656C402.596 608.547 400.399 607.096 398.82 605.304L400.484 602.808C401.85 604.387 403.77 605.709 406.244 606.776C408.719 607.8 411.471 608.312 414.5 608.312C418.639 608.312 421.754 607.373 423.844 605.496C425.935 603.619 426.98 601.187 426.98 598.2C426.98 596.067 426.49 594.232 425.508 592.696C424.527 591.16 422.863 589.987 420.516 589.176C418.17 588.323 414.97 587.896 410.916 587.896H401.828L404.196 566.2H427.94V569.144H405.54L407.14 567.608L405.028 586.616L403.492 584.952H411.62C416.186 584.952 419.812 585.507 422.5 586.616C425.231 587.683 427.194 589.197 428.388 591.16C429.626 593.123 430.244 595.427 430.244 598.072C430.244 600.547 429.668 602.787 428.516 604.792C427.364 606.797 425.615 608.397 423.268 609.592C420.964 610.744 418.063 611.32 414.564 611.32Z" fill="#F8F8F8"/>
<path d="M311.69 512.504C314.634 512.504 317.237 513.059 319.498 514.168C321.802 515.235 323.573 516.792 324.81 518.84C326.047 520.845 326.666 523.171 326.666 525.816C326.666 528.504 326.026 530.872 324.746 532.92C323.466 534.968 321.695 536.547 319.434 537.656C317.173 538.765 314.613 539.32 311.754 539.32C305.951 539.32 301.493 537.357 298.378 533.432C295.306 529.464 293.77 523.939 293.77 516.856C293.77 511.907 294.581 507.725 296.202 504.312C297.866 500.856 300.191 498.253 303.178 496.504C306.165 494.755 309.663 493.88 313.674 493.88C317.898 493.88 321.29 494.648 323.85 496.184L322.506 498.808C320.373 497.443 317.429 496.76 313.674 496.76C308.511 496.76 304.437 498.445 301.45 501.816C298.506 505.144 297.034 509.987 297.034 516.344C297.034 518.307 297.162 520.099 297.418 521.72C298.314 518.819 300.042 516.557 302.602 514.936C305.205 513.315 308.234 512.504 311.69 512.504ZM311.626 536.504C315.125 536.504 317.962 535.544 320.138 533.624C322.314 531.661 323.402 529.08 323.402 525.88C323.402 522.68 322.314 520.12 320.138 518.2C317.962 516.28 314.997 515.32 311.242 515.32C308.853 515.32 306.698 515.789 304.778 516.728C302.901 517.667 301.429 518.947 300.362 520.568C299.338 522.189 298.826 524.003 298.826 526.008C298.826 527.8 299.317 529.507 300.298 531.128C301.322 532.749 302.794 534.051 304.714 535.032C306.634 536.013 308.938 536.504 311.626 536.504Z" fill="#F8F8F8"/>
</svg>
