<svg width="790" height="914" viewBox="0 0 790 914" fill="none" xmlns="http://www.w3.org/2000/svg">
<path data-template="s-tippy1" class="path-sector" d="M610 50.4328L417 37L445.158 117H548.698L604.72 82.6716L610 50.4328Z" fill="white" fill-opacity="0.2"/>
<path data-template="s-tippy2" class="path-sector" d="M557.509 271H465L475.64 136.932H557.509L598 110L557.509 271Z" fill="white" fill-opacity="0.2"/>
<path data-template="s-tippy3" class="path-sector" d="M412 377.546L515.99 436L557 278H461.798L412 377.546Z" fill="white" fill-opacity="0.2"/>
<path data-template="s-tippy4" class="path-sector" d="M389.263 516.214C421.602 524.619 485.183 541.542 487.724 542L514 441.436L411.207 387L337 429.976L389.263 516.214Z" fill="white" fill-opacity="0.2"/>
<path data-template="s-tippy5" class="path-sector" d="M386.425 521C376.372 549.438 355.414 608.496 352 617.229L444.747 708L486 546.565L386.425 521Z" fill="white" fill-opacity="0.2"/>
<path data-template="s-tippy6" class="path-sector" d="M309.85 442C282.385 457.462 226.364 489.134 222 492.131L346.597 614L371 544.566L309.85 442Z" fill="white" fill-opacity="0.2"/>
<path data-template="s-tippy7" class="path-sector" d="M190.702 433.103C171.402 414.064 130.937 373.95 128 370.331L228.55 238L313 402.283L233.634 443L190.702 433.103Z" fill="white" fill-opacity="0.2"/>
<path data-template="s-tippy8" class="path-sector" d="M259.194 201L236 233.523L321.044 397L385.758 360.16L431 270.075L259.194 201Z" fill="white" fill-opacity="0.2"/>
<path data-template="s-tippy9" class="path-sector" d="M390.971 39.1818C342.552 38.1212 245.372 36 244 36L255.723 141L429 136.661L390.971 39.1818Z" fill="white" fill-opacity="0.2"/>
<path data-template="s-tippy10" class="path-sector" d="M232.429 20.8378L252 193L56 141.496L92.8399 11L232.429 20.8378Z" fill="white" fill-opacity="0.2"/>
<path data-template="s-tippy11" class="path-sector" d="M248 200.66C202.507 260.627 111.173 380.849 109.782 382L13 289.027L53.857 150L248 200.66Z" fill="white" fill-opacity="0.2"/>
<path d="M132.626 110V66.608L134.098 68.144H121.682V65.2H135.89V110H132.626ZM164.825 110.32C161.411 110.32 158.382 109.403 155.737 107.568C153.091 105.733 151.022 103.131 149.529 99.76C148.035 96.3467 147.289 92.2933 147.289 87.6C147.289 82.9067 148.035 78.8747 149.529 75.504C151.022 72.0907 153.091 69.4667 155.737 67.632C158.382 65.7973 161.411 64.88 164.825 64.88C168.281 64.88 171.31 65.7973 173.913 67.632C176.558 69.4667 178.627 72.0907 180.121 75.504C181.614 78.8747 182.361 82.9067 182.361 87.6C182.361 92.2933 181.614 96.3467 180.121 99.76C178.627 103.131 176.558 105.733 173.913 107.568C171.31 109.403 168.281 110.32 164.825 110.32ZM164.825 107.312C167.683 107.312 170.179 106.544 172.313 105.008C174.446 103.429 176.11 101.168 177.305 98.224C178.499 95.28 179.097 91.7387 179.097 87.6C179.097 83.4187 178.499 79.8773 177.305 76.976C176.11 74.032 174.446 71.792 172.313 70.256C170.179 68.6773 167.683 67.888 164.825 67.888C162.009 67.888 159.513 68.6773 157.337 70.256C155.203 71.792 153.539 74.032 152.345 76.976C151.15 79.8773 150.553 83.4187 150.553 87.6C150.553 91.7387 151.15 95.28 152.345 98.224C153.539 101.168 155.203 103.429 157.337 105.008C159.513 106.544 162.009 107.312 164.825 107.312Z" fill="#F8F8F8"/>
<path d="M96.9075 274V230.608L98.3795 232.144H85.9635V229.2H100.172V274H96.9075ZM119.57 274V230.608L121.042 232.144H108.626V229.2H122.834V274H119.57Z" fill="#F8F8F8"/>
<path d="M626 40.4839L450.321 723L4 294.092L87.9819 4L626 40.4839Z" stroke="white" stroke-opacity="0.6" stroke-width="6"/>
<path d="M546.877 210.056V213H516.093V210.696L535.037 191.88C537.511 189.405 539.175 187.293 540.029 185.544C540.925 183.752 541.373 181.917 541.373 180.04C541.373 177.181 540.391 174.941 538.429 173.32C536.509 171.699 533.714 170.888 530.045 170.888C527.229 170.888 524.754 171.315 522.621 172.168C520.53 173.021 518.717 174.323 517.181 176.072L514.877 174.024C516.583 172.061 518.738 170.547 521.341 169.48C523.986 168.413 526.973 167.88 530.301 167.88C534.695 167.88 538.194 168.947 540.797 171.08C543.399 173.213 544.701 176.093 544.701 179.72C544.701 182.024 544.189 184.221 543.165 186.312C542.141 188.403 540.221 190.835 537.405 193.608L520.893 210.056H546.877Z" fill="#F8F8F8"/>
<path d="M513.739 99V55.608L515.211 57.144H502.795V54.2H517.003V99H513.739Z" fill="#F8F8F8"/>
<path d="M334.274 65.88C338.199 65.88 341.485 66.776 344.13 68.568C346.818 70.36 348.845 72.9413 350.21 76.312C351.575 79.64 352.258 83.6507 352.258 88.344C352.258 93.3787 351.426 97.6027 349.762 101.016C348.098 104.429 345.773 107.011 342.786 108.76C339.799 110.467 336.322 111.32 332.354 111.32C330.434 111.32 328.599 111.149 326.85 110.808C325.143 110.467 323.586 109.869 322.178 109.016L323.522 106.392C324.674 107.117 326.018 107.651 327.554 107.992C329.09 108.291 330.69 108.44 332.354 108.44C337.389 108.44 341.421 106.819 344.45 103.576C347.479 100.291 348.994 95.384 348.994 88.856C348.994 87.832 348.93 86.5733 348.802 85.08C348.674 83.5867 348.397 82.1147 347.97 80.664L349.122 80.984C348.823 83.4587 347.991 85.5707 346.626 87.32C345.261 89.0267 343.511 90.3493 341.378 91.288C339.287 92.2267 336.941 92.696 334.338 92.696C331.351 92.696 328.727 92.1627 326.466 91.096C324.247 89.9867 322.498 88.4293 321.218 86.424C319.981 84.4187 319.362 82.072 319.362 79.384C319.362 76.6533 320.002 74.2853 321.282 72.28C322.605 70.232 324.375 68.6533 326.594 67.544C328.855 66.4347 331.415 65.88 334.274 65.88ZM334.402 68.696C332.055 68.696 330.007 69.144 328.258 70.04C326.509 70.8933 325.122 72.1093 324.098 73.688C323.117 75.2667 322.626 77.144 322.626 79.32C322.626 82.52 323.714 85.08 325.89 87C328.066 88.92 331.031 89.88 334.786 89.88C337.218 89.88 339.373 89.4107 341.25 88.472C343.127 87.5333 344.578 86.2533 345.602 84.632C346.669 83.0107 347.202 81.1973 347.202 79.192C347.202 77.4427 346.711 75.7787 345.73 74.2C344.749 72.5787 343.319 71.256 341.442 70.232C339.565 69.208 337.218 68.696 334.402 68.696Z" fill="#F8F8F8"/>
<path d="M213.862 386L233.574 342.736L234.726 344.144H206.118L207.782 342.608V352.72H204.582V341.2H236.71V343.504L217.446 386H213.862Z" fill="#F8F8F8"/>
<path d="M334.441 321.32C330.9 321.32 327.871 320.808 325.353 319.784C322.836 318.76 320.895 317.309 319.529 315.432C318.207 313.555 317.545 311.315 317.545 308.712C317.545 306.195 318.207 304.04 319.529 302.248C320.852 300.456 322.772 299.091 325.289 298.152C327.807 297.171 330.857 296.68 334.441 296.68C338.025 296.68 341.076 297.171 343.593 298.152C346.153 299.091 348.095 300.456 349.417 302.248C350.783 304.04 351.465 306.195 351.465 308.712C351.465 311.315 350.783 313.555 349.417 315.432C348.052 317.309 346.089 318.76 343.529 319.784C341.012 320.808 337.983 321.32 334.441 321.32ZM334.441 318.504C338.751 318.504 342.121 317.629 344.553 315.88C346.985 314.131 348.201 311.741 348.201 308.712C348.201 305.725 346.985 303.357 344.553 301.608C342.121 299.859 338.751 298.984 334.441 298.984C330.132 298.984 326.783 299.859 324.393 301.608C322.004 303.357 320.809 305.725 320.809 308.712C320.809 311.741 322.004 314.131 324.393 315.88C326.783 317.629 330.132 318.504 334.441 318.504ZM334.441 298.536C331.199 298.536 328.425 298.109 326.121 297.256C323.86 296.36 322.132 295.08 320.937 293.416C319.743 291.752 319.145 289.768 319.145 287.464C319.145 285.075 319.764 283.027 321.001 281.32C322.281 279.571 324.073 278.227 326.377 277.288C328.681 276.349 331.369 275.88 334.441 275.88C337.556 275.88 340.265 276.349 342.569 277.288C344.873 278.227 346.665 279.571 347.945 281.32C349.225 283.027 349.865 285.075 349.865 287.464C349.865 289.768 349.247 291.752 348.009 293.416C346.815 295.08 345.065 296.36 342.761 297.256C340.457 298.109 337.684 298.536 334.441 298.536ZM334.441 296.296C338.281 296.296 341.268 295.507 343.401 293.928C345.535 292.349 346.601 290.237 346.601 287.592C346.601 284.819 345.492 282.643 343.273 281.064C341.097 279.485 338.153 278.696 334.441 278.696C330.772 278.696 327.849 279.485 325.673 281.064C323.497 282.643 322.409 284.797 322.409 287.528C322.409 290.216 323.455 292.349 325.545 293.928C327.679 295.507 330.644 296.296 334.441 296.296Z" fill="#F8F8F8"/>
<path d="M488.796 364.32C485.511 364.32 482.439 363.765 479.58 362.656C476.764 361.547 474.567 360.096 472.988 358.304L474.652 355.808C476.018 357.387 477.938 358.709 480.412 359.776C482.93 360.8 485.724 361.312 488.796 361.312C492.807 361.312 495.858 360.416 497.948 358.624C500.082 356.832 501.148 354.421 501.148 351.392C501.148 348.405 500.082 346.016 497.948 344.224C495.858 342.389 492.572 341.472 488.092 341.472H485.276V339.104L499.548 320.864L499.996 322.144H474.652V319.2H502.748V321.504L488.54 339.744L487.132 338.72H488.54C493.874 338.72 497.863 339.893 500.508 342.24C503.154 344.587 504.476 347.637 504.476 351.392C504.476 353.867 503.879 356.085 502.684 358.048C501.532 360.011 499.783 361.547 497.436 362.656C495.132 363.765 492.252 364.32 488.796 364.32Z" fill="#F8F8F8"/>
<path d="M407.815 474.584V472.216L432.135 442.2H435.783L411.527 472.216L409.735 471.704H445.959V474.584H407.815ZM433.351 487V474.584L433.415 471.704V460.76H436.551V487H433.351Z" fill="#F8F8F8"/>
<path d="M418.564 615.32C415.322 615.32 412.271 614.765 409.412 613.656C406.596 612.547 404.399 611.096 402.82 609.304L404.484 606.808C405.85 608.387 407.77 609.709 410.244 610.776C412.719 611.8 415.471 612.312 418.5 612.312C422.639 612.312 425.754 611.373 427.844 609.496C429.935 607.619 430.98 605.187 430.98 602.2C430.98 600.067 430.49 598.232 429.508 596.696C428.527 595.16 426.863 593.987 424.516 593.176C422.17 592.323 418.97 591.896 414.916 591.896H405.828L408.196 570.2H431.94V573.144H409.54L411.14 571.608L409.028 590.616L407.492 588.952H415.62C420.186 588.952 423.812 589.507 426.5 590.616C429.231 591.683 431.194 593.197 432.388 595.16C433.626 597.123 434.244 599.427 434.244 602.072C434.244 604.547 433.668 606.787 432.516 608.792C431.364 610.797 429.615 612.397 427.268 613.592C424.964 614.744 422.063 615.32 418.564 615.32Z" fill="#F8F8F8"/>
<path d="M315.69 516.504C318.634 516.504 321.237 517.059 323.498 518.168C325.802 519.235 327.573 520.792 328.81 522.84C330.047 524.845 330.666 527.171 330.666 529.816C330.666 532.504 330.026 534.872 328.746 536.92C327.466 538.968 325.695 540.547 323.434 541.656C321.173 542.765 318.613 543.32 315.754 543.32C309.951 543.32 305.493 541.357 302.378 537.432C299.306 533.464 297.77 527.939 297.77 520.856C297.77 515.907 298.581 511.725 300.202 508.312C301.866 504.856 304.191 502.253 307.178 500.504C310.165 498.755 313.663 497.88 317.674 497.88C321.898 497.88 325.29 498.648 327.85 500.184L326.506 502.808C324.373 501.443 321.429 500.76 317.674 500.76C312.511 500.76 308.437 502.445 305.45 505.816C302.506 509.144 301.034 513.987 301.034 520.344C301.034 522.307 301.162 524.099 301.418 525.72C302.314 522.819 304.042 520.557 306.602 518.936C309.205 517.315 312.234 516.504 315.69 516.504ZM315.626 540.504C319.125 540.504 321.962 539.544 324.138 537.624C326.314 535.661 327.402 533.08 327.402 529.88C327.402 526.68 326.314 524.12 324.138 522.2C321.962 520.28 318.997 519.32 315.242 519.32C312.853 519.32 310.698 519.789 308.778 520.728C306.901 521.667 305.429 522.947 304.362 524.568C303.338 526.189 302.826 528.003 302.826 530.008C302.826 531.8 303.317 533.507 304.298 535.128C305.322 536.749 306.794 538.051 308.714 539.032C310.634 540.013 312.938 540.504 315.626 540.504Z" fill="#F8F8F8"/>
</svg>
