<svg width="20" height="20" viewBox="0 0 20 20" fill="none" xmlns="http://www.w3.org/2000/svg">
<path fill-rule="evenodd" clip-rule="evenodd" d="M5.86131 4.99984C6.1063 3.17916 7.92578 1.6665 9.99998 1.6665C12.0742 1.6665 13.8937 3.17916 14.1387 4.99984H16.5391C17.4596 4.99984 18.2058 5.74603 18.2058 6.6665C18.2058 6.74537 18.2002 6.82413 18.1891 6.90221L16.7605 16.9022C16.6432 17.7233 15.94 18.3332 15.1106 18.3332H4.8894C4.05998 18.3332 3.35678 17.7233 3.23948 16.9022L1.81091 6.90221C1.68073 5.99098 2.3139 5.14676 3.22512 5.01659C3.30319 5.00544 3.38196 4.99984 3.46082 4.99984H5.86131ZM12.4399 4.99984C12.1866 4.1149 11.165 3.33317 10 3.33317C8.83498 3.33317 7.81343 4.1149 7.5601 4.99984H12.4399ZM3.4608 6.6665H5.83329V8.33317H7.49996V6.6665H12.5V8.33317H14.1666V6.6665H16.5391L15.1105 16.6665H4.88937L3.4608 6.6665Z" fill="white"/>
</svg>
