<svg width="24" height="24" viewBox="0 0 24 24" fill="none" xmlns="http://www.w3.org/2000/svg">
<mask id="mask0_90_3205" style="mask-type:alpha" maskUnits="userSpaceOnUse" x="2" y="2" width="21" height="21">
<path fill-rule="evenodd" clip-rule="evenodd" d="M2.00043 2H22.5V22.4995H2.00043V2Z" fill="white"/>
</mask>
<g mask="url(#mask0_90_3205)">
<path fill-rule="evenodd" clip-rule="evenodd" d="M4.35951 5.06067C4.36151 5.06067 4.31151 5.11266 4.24851 5.17466C4.00651 5.40966 3.50551 5.89866 3.50051 6.92167C3.49251 8.35266 4.43351 11.0097 8.96451 15.5397C13.4745 20.0477 16.1275 20.9997 17.5615 20.9997H17.5825C18.6055 20.9947 19.0935 20.4927 19.3295 20.2517C19.4015 20.1777 19.4595 20.1237 19.5005 20.0897C20.4965 19.0877 21.0065 18.3417 21.0015 17.8637C20.9945 17.3757 20.3875 16.7987 19.5485 16.0007C19.2815 15.7467 18.9915 15.4707 18.6855 15.1647C17.8925 14.3737 17.4995 14.5087 16.6355 14.8127C15.4405 15.2317 13.8005 15.8017 11.2525 13.2527C8.70051 10.7027 9.27151 9.06466 9.68951 7.86967C9.99151 7.00566 10.1295 6.61167 9.33551 5.81767C9.02451 5.50767 8.74551 5.21367 8.48851 4.94367C7.69551 4.10967 7.12351 3.50666 6.63851 3.49967H6.63051C6.15151 3.49967 5.40751 4.01167 4.35451 5.06467C4.35751 5.06167 4.35851 5.06067 4.35951 5.06067ZM17.5625 22.4997C15.0705 22.4997 11.8215 20.5157 7.90451 16.6007C3.97251 12.6697 1.98551 9.41067 2.00051 6.91367C2.00951 5.26367 2.87451 4.41866 3.19951 4.10167C3.21651 4.08067 3.27451 4.02366 3.29451 4.00366C4.72851 2.56867 5.69551 1.98867 6.65751 1.99967C7.77451 2.01467 8.56951 2.85067 9.57551 3.90967C9.82451 4.17167 10.0945 4.45667 10.3955 4.75666C11.8555 6.21667 11.4395 7.40767 11.1055 8.36367C10.7415 9.40667 10.4265 10.3067 12.3125 12.1927C14.2005 14.0787 15.1005 13.7637 16.1395 13.3967C17.0965 13.0627 18.2845 12.6447 19.7465 14.1047C20.0425 14.4007 20.3235 14.6677 20.5825 14.9147C21.6465 15.9257 22.4865 16.7247 22.5005 17.8447C22.5125 18.7997 21.9325 19.7727 20.5005 21.2057L19.8665 20.7757L20.4025 21.2997C20.0855 21.6247 19.2415 22.4907 17.5905 22.4997H17.5625Z" fill="white"/>
</g>
</svg>
