<svg width="24" height="24" viewBox="0 0 24 24" fill="none" xmlns="http://www.w3.org/2000/svg">
<path fill-rule="evenodd" clip-rule="evenodd" d="M1.77734 4.72222C1.77734 2.68039 1.79921 2 4.49957 2C7.19993 2 7.22179 2.68039 7.22179 4.72222C7.22179 6.76405 7.2304 7.44444 4.49957 7.44444C1.76873 7.44444 1.77734 6.76405 1.77734 4.72222Z" stroke="#171717" stroke-width="0.777778" stroke-linecap="round" stroke-linejoin="round"/>
<path fill-rule="evenodd" clip-rule="evenodd" d="M8.77734 4.72222C8.77734 2.68039 8.79921 2 11.4996 2C14.1999 2 14.2218 2.68039 14.2218 4.72222C14.2218 6.76405 14.2304 7.44444 11.4996 7.44444C8.76873 7.44444 8.77734 6.76405 8.77734 4.72222Z" stroke="#171717" stroke-width="0.777778" stroke-linecap="round" stroke-linejoin="round"/>
<path fill-rule="evenodd" clip-rule="evenodd" d="M15.7773 4.72222C15.7773 2.68039 15.7992 2 18.4996 2C21.1999 2 21.2218 2.68039 21.2218 4.72222C21.2218 6.76405 21.2304 7.44444 18.4996 7.44444C15.7687 7.44444 15.7773 6.76405 15.7773 4.72222Z" stroke="#171717" stroke-width="0.777778" stroke-linecap="round" stroke-linejoin="round"/>
<path fill-rule="evenodd" clip-rule="evenodd" d="M1.77734 11.7222C1.77734 9.68039 1.79921 9 4.49957 9C7.19993 9 7.22179 9.68039 7.22179 11.7222C7.22179 13.7641 7.2304 14.4444 4.49957 14.4444C1.76873 14.4444 1.77734 13.7641 1.77734 11.7222Z" stroke="#171717" stroke-width="0.777778" stroke-linecap="round" stroke-linejoin="round"/>
<path fill-rule="evenodd" clip-rule="evenodd" d="M1.77734 18.7222C1.77734 16.6804 1.79921 16 4.49957 16C7.19993 16 7.22179 16.6804 7.22179 18.7222C7.22179 20.7641 7.2304 21.4444 4.49957 21.4444C1.76873 21.4444 1.77734 20.7641 1.77734 18.7222Z" stroke="#171717" stroke-width="0.777778" stroke-linecap="round" stroke-linejoin="round"/>
<path fill-rule="evenodd" clip-rule="evenodd" d="M8.77734 11.7222C8.77734 9.68039 8.79921 9 11.4996 9C14.1999 9 14.2218 9.68039 14.2218 11.7222C14.2218 13.7641 14.2304 14.4444 11.4996 14.4444C8.76873 14.4444 8.77734 13.7641 8.77734 11.7222Z" stroke="#171717" stroke-width="0.777778" stroke-linecap="round" stroke-linejoin="round"/>
<path fill-rule="evenodd" clip-rule="evenodd" d="M8.77734 18.7222C8.77734 16.6804 8.79921 16 11.4996 16C14.1999 16 14.2218 16.6804 14.2218 18.7222C14.2218 20.7641 14.2304 21.4444 11.4996 21.4444C8.76873 21.4444 8.77734 20.7641 8.77734 18.7222Z" stroke="#171717" stroke-width="0.777778" stroke-linecap="round" stroke-linejoin="round"/>
<path fill-rule="evenodd" clip-rule="evenodd" d="M15.7773 11.7222C15.7773 9.68039 15.7992 9 18.4996 9C21.1999 9 21.2218 9.68039 21.2218 11.7222C21.2218 13.7641 21.2304 14.4444 18.4996 14.4444C15.7687 14.4444 15.7773 13.7641 15.7773 11.7222Z" stroke="#171717" stroke-width="0.777778" stroke-linecap="round" stroke-linejoin="round"/>
<path fill-rule="evenodd" clip-rule="evenodd" d="M15.7773 18.7222C15.7773 16.6804 15.7992 16 18.4996 16C21.1999 16 21.2218 16.6804 21.2218 18.7222C21.2218 20.7641 21.2304 21.4444 18.4996 21.4444C15.7687 21.4444 15.7773 20.7641 15.7773 18.7222Z" stroke="#171717" stroke-width="0.777778" stroke-linecap="round" stroke-linejoin="round"/>
</svg>
