<svg width="24" height="24" viewBox="0 0 24 24" fill="#000000" xmlns="http://www.w3.org/2000/svg">
<mask id="mask0_90_3202" style="mask-type:alpha" maskUnits="userSpaceOnUse" x="1" y="1" width="22" height="22">
<path fill-rule="evenodd" clip-rule="evenodd" d="M1 1.00049H22.493V22.4943H1V1.00049Z" fill="white"/>
</mask>
<g mask="url(#mask0_90_3202)">
<path fill-rule="evenodd" clip-rule="evenodd" d="M6.10841 19.6755C6.68841 19.6755 7.23541 19.8955 7.81441 20.1285C11.3614 21.7685 15.5564 21.0225 18.2894 18.2905C21.8954 14.6825 21.8954 8.81349 18.2894 5.20749C16.5434 3.46149 14.2214 2.50049 11.7494 2.50049C9.27641 2.50049 6.95341 3.46249 5.20841 5.20849C2.47441 7.94049 1.73041 12.1355 3.35541 15.6485C3.58941 16.2275 3.81541 16.7915 3.81541 17.3775C3.81541 17.9625 3.61441 18.5515 3.43741 19.0715C3.29141 19.4995 3.07041 20.1455 3.21241 20.2875C3.35141 20.4315 4.00141 20.2045 4.43041 20.0575C4.94541 19.8815 5.52941 19.6795 6.10841 19.6755ZM11.7244 22.4945C10.1964 22.4945 8.65841 22.1715 7.21941 21.5055C6.79541 21.3355 6.39841 21.1755 6.11341 21.1755C5.78541 21.1775 5.34441 21.3295 4.91841 21.4765C4.04441 21.7765 2.95641 22.1505 2.15141 21.3485C1.34941 20.5455 1.71941 19.4605 2.01741 18.5875C2.16441 18.1575 2.31541 17.7135 2.31541 17.3775C2.31541 17.1015 2.18241 16.7495 1.97841 16.2425C0.105407 12.1975 0.971407 7.32249 4.14841 4.14749C6.17641 2.11849 8.87541 1.00049 11.7484 1.00049C14.6214 1.00049 17.3214 2.11749 19.3494 4.14649C23.5414 8.33849 23.5414 15.1585 19.3494 19.3505C17.2944 21.4065 14.5274 22.4945 11.7244 22.4945Z" fill="white"/>
</g>
<path fill-rule="evenodd" clip-rule="evenodd" d="M15.6963 13.1631C15.1443 13.1631 14.6923 12.7161 14.6923 12.1631C14.6923 11.6101 15.1353 11.1631 15.6873 11.1631H15.6963C16.2483 11.1631 16.6963 11.6101 16.6963 12.1631C16.6963 12.7161 16.2483 13.1631 15.6963 13.1631Z" fill="white"/>
<path fill-rule="evenodd" clip-rule="evenodd" d="M11.6875 13.1631C11.1355 13.1631 10.6835 12.7161 10.6835 12.1631C10.6835 11.6101 11.1255 11.1631 11.6785 11.1631H11.6875C12.2395 11.1631 12.6875 11.6101 12.6875 12.1631C12.6875 12.7161 12.2395 13.1631 11.6875 13.1631Z" fill="white"/>
<path fill-rule="evenodd" clip-rule="evenodd" d="M7.67829 13.1631C7.12629 13.1631 6.67429 12.7161 6.67429 12.1631C6.67429 11.6101 7.11729 11.1631 7.66929 11.1631H7.67829C8.23029 11.1631 8.67829 11.6101 8.67829 12.1631C8.67829 12.7161 8.23029 13.1631 7.67829 13.1631Z" fill="white"/>
</svg>
