<svg width="32" height="18" viewBox="0 0 32 18" fill="none" xmlns="http://www.w3.org/2000/svg">
<path d="M0.633245 14.4332L14.8179 0.456221C14.9868 0.290323 15.1697 0.173088 15.3668 0.104516C15.5638 0.0348387 15.7748 0 16 0C16.2252 0 16.4362 0.0348387 16.6332 0.104516C16.8303 0.173088 17.0132 0.290323 17.1821 0.456221L31.409 14.4332C31.803 14.8203 32 15.3041 32 15.8848C32 16.4654 31.7889 16.9631 31.3668 17.3779C30.9446 17.7926 30.4521 18 29.8892 18C29.3263 18 28.8338 17.7926 28.4116 17.3779L16 5.18433L3.58839 17.3779C3.19437 17.765 2.70917 17.9585 2.13277 17.9585C1.55525 17.9585 1.05541 17.7512 0.633245 17.3364C0.211081 16.9217 0 16.4378 0 15.8848C0 15.3318 0.211081 14.8479 0.633245 14.4332Z" fill="#F25E13"/>
</svg>
