<svg width="32" height="18" viewBox="0 0 32 18" fill="none" xmlns="http://www.w3.org/2000/svg">
<path d="M31.3668 3.56682L17.1821 17.5438C17.0132 17.7097 16.8303 17.8269 16.6332 17.8955C16.4362 17.9652 16.2252 18 16 18C15.7748 18 15.5638 17.9652 15.3668 17.8955C15.1697 17.8269 14.9868 17.7097 14.8179 17.5438L0.591029 3.56682C0.19701 3.17972 0 2.69585 0 2.11521C0 1.53456 0.211082 1.03687 0.633245 0.62212C1.05541 0.207375 1.54793 0 2.11082 0C2.6737 0 3.16623 0.207375 3.58839 0.62212L16 12.8157L28.4116 0.62212C28.8056 0.235023 29.2908 0.0414753 29.8672 0.0414753C30.4447 0.0414753 30.9446 0.248848 31.3668 0.663595C31.7889 1.07834 32 1.56221 32 2.11521C32 2.6682 31.7889 3.15207 31.3668 3.56682Z" fill="#F25E13"/>
</svg>
