<svg width="32" height="33" viewBox="0 0 32 33" fill="none" xmlns="http://www.w3.org/2000/svg">
<g filter="url(#filter0_b_90_1985)">
<rect y="0.00146484" width="32" height="32" fill="black"/>
</g>
<path fill-rule="evenodd" clip-rule="evenodd" d="M16.0009 7.46826C13.6834 7.46826 13.3925 7.4784 12.4823 7.51982C11.5739 7.56142 10.9538 7.70524 10.4112 7.91627C9.84993 8.13422 9.37384 8.42578 8.89952 8.90028C8.42485 9.37459 8.13329 9.85069 7.91462 10.4118C7.70307 10.9545 7.55906 11.5748 7.51818 12.4829C7.47746 13.3931 7.4668 13.6841 7.4668 16.0017C7.4668 18.3192 7.47711 18.6092 7.51835 19.5194C7.56013 20.4279 7.70395 21.048 7.9148 21.5905C8.13294 22.1518 8.4245 22.6279 8.89899 23.1022C9.37313 23.5769 9.84922 23.8691 10.4101 24.0871C10.9531 24.2981 11.5733 24.4419 12.4816 24.4835C13.3918 24.525 13.6825 24.5351 15.9999 24.5351C18.3176 24.5351 18.6075 24.525 19.5178 24.4835C20.4262 24.4419 21.047 24.2981 21.59 24.0871C22.151 23.8691 22.6264 23.5769 23.1006 23.1022C23.5752 22.6279 23.8668 22.1518 24.0855 21.5907C24.2952 21.048 24.4392 20.4277 24.4819 19.5196C24.5228 18.6094 24.5335 18.3192 24.5335 16.0017C24.5335 13.6841 24.5228 13.3933 24.4819 12.4831C24.4392 11.5746 24.2952 10.9545 24.0855 10.4119C23.8668 9.85069 23.5752 9.37459 23.1006 8.90028C22.6259 8.42561 22.1512 8.13405 21.5894 7.91627C21.0454 7.70524 20.425 7.56142 19.5165 7.51982C18.6063 7.4784 18.3165 7.46826 15.9983 7.46826H16.0009ZM15.2354 9.00603C15.4626 9.00568 15.7161 9.00603 16.0009 9.00603C18.2793 9.00603 18.5494 9.01421 19.4491 9.0551C20.2811 9.09314 20.7327 9.23217 21.0335 9.34897C21.4317 9.50364 21.7156 9.68853 22.0141 9.9872C22.3128 10.2859 22.4977 10.5703 22.6527 10.9685C22.7695 11.269 22.9087 11.7205 22.9466 12.5526C22.9875 13.4521 22.9963 13.7223 22.9963 15.9997C22.9963 18.2771 22.9875 18.5473 22.9466 19.4469C22.9085 20.2789 22.7695 20.7304 22.6527 21.0309C22.498 21.4291 22.3128 21.7127 22.0141 22.0111C21.7154 22.3098 21.4319 22.4947 21.0335 22.6494C20.733 22.7667 20.2811 22.9054 19.4491 22.9434C18.5495 22.9843 18.2793 22.9932 16.0009 22.9932C13.7223 22.9932 13.4522 22.9843 12.5527 22.9434C11.7207 22.905 11.2691 22.766 10.9681 22.6492C10.5699 22.4945 10.2855 22.3096 9.98679 22.011C9.68812 21.7123 9.50323 21.4286 9.3482 21.0302C9.2314 20.7297 9.0922 20.2781 9.05433 19.4461C9.01344 18.5466 9.00527 18.2764 9.00527 15.9976C9.00527 13.7188 9.01344 13.45 9.05433 12.5504C9.09238 11.7184 9.2314 11.2669 9.3482 10.9661C9.50287 10.5678 9.68812 10.2834 9.98679 9.98471C10.2855 9.68604 10.5699 9.50115 10.9681 9.34612C11.2689 9.22879 11.7207 9.09012 12.5527 9.0519C13.3399 9.01634 13.645 9.00568 15.2354 9.0039V9.00603ZM20.556 10.4229C19.9906 10.4229 19.532 10.8811 19.532 11.4466C19.532 12.0119 19.9906 12.4706 20.556 12.4706C21.1213 12.4706 21.58 12.0119 21.58 11.4466C21.58 10.8813 21.1213 10.4229 20.556 10.4229ZM16.0009 11.6194C13.5808 11.6194 11.6187 13.5815 11.6187 16.0017C11.6187 18.4218 13.5808 20.383 16.0009 20.383C18.4211 20.383 20.3825 18.4218 20.3825 16.0017C20.3825 13.5815 18.4211 11.6194 16.0009 11.6194ZM16.0009 13.1572C17.5718 13.1572 18.8454 14.4306 18.8454 16.0017C18.8454 17.5725 17.5718 18.8461 16.0009 18.8461C14.4299 18.8461 13.1564 17.5725 13.1564 16.0017C13.1564 14.4306 14.4299 13.1572 16.0009 13.1572Z" fill="white"/>
<defs>
<filter id="filter0_b_90_1985" x="-3" y="-2.99854" width="38" height="38" filterUnits="userSpaceOnUse" color-interpolation-filters="sRGB">
<feFlood flood-opacity="0" result="BackgroundImageFix"/>
<feGaussianBlur in="BackgroundImageFix" stdDeviation="1.5"/>
<feComposite in2="SourceAlpha" operator="in" result="effect1_backgroundBlur_90_1985"/>
<feBlend mode="normal" in="SourceGraphic" in2="effect1_backgroundBlur_90_1985" result="shape"/>
</filter>
</defs>
</svg>
