<svg width="45" height="45" viewBox="0 0 45 45" fill="none" xmlns="http://www.w3.org/2000/svg">
<g filter="url(#filter0_b_90_2153)">
<path d="M1.5 22.5C1.5 10.902 10.902 1.5 22.5 1.5C34.098 1.5 43.5 10.902 43.5 22.5C43.5 34.098 34.098 43.5 22.5 43.5C10.902 43.5 1.5 34.098 1.5 22.5Z" fill="white" fill-opacity="0.25"/>
<path d="M19.5 28.5V16.5L30 22.5L19.5 28.5Z" fill="white" fill-opacity="0.25"/>
<path d="M1.5 22.5C1.5 10.902 10.902 1.5 22.5 1.5C34.098 1.5 43.5 10.902 43.5 22.5C43.5 34.098 34.098 43.5 22.5 43.5C10.902 43.5 1.5 34.098 1.5 22.5Z" stroke="white" stroke-width="0.719728" stroke-linejoin="round"/>
<path d="M19.5 28.5V16.5L30 22.5L19.5 28.5Z" stroke="white" stroke-width="0.719728" stroke-linejoin="round"/>
</g>
<defs>
<filter id="filter0_b_90_2153" x="-2.86035" y="-2.85986" width="50.7197" height="50.7197" filterUnits="userSpaceOnUse" color-interpolation-filters="sRGB">
<feFlood flood-opacity="0" result="BackgroundImageFix"/>
<feGaussianBlur in="BackgroundImageFix" stdDeviation="2"/>
<feComposite in2="SourceAlpha" operator="in" result="effect1_backgroundBlur_90_2153"/>
<feBlend mode="normal" in="SourceGraphic" in2="effect1_backgroundBlur_90_2153" result="shape"/>
</filter>
</defs>
</svg>
