<svg width="18" height="19" viewBox="0 0 18 19" fill="none" xmlns="http://www.w3.org/2000/svg">
<path d="M0.81101 7.23283L4.8143 6.4215C5.09154 6.36531 5.33202 6.19433 5.47614 5.95091L8.13929 1.45315C8.52653 0.799144 9.473 0.799144 9.86024 1.45315L12.5234 5.95091C12.6675 6.19432 12.908 6.36531 13.1852 6.4215L17.1885 7.23283C17.9672 7.39065 18.2598 8.34978 17.7017 8.91531L14.3716 12.2898C14.139 12.5255 14.0381 12.861 14.1023 13.1859L14.8525 16.9869C15.0138 17.8045 14.1629 18.4492 13.4194 18.0725L9.45173 16.0622C9.16761 15.9183 8.83192 15.9183 8.5478 16.0622L4.58012 18.0725C3.83666 18.4492 2.9857 17.8045 3.14708 16.9869L3.89727 13.1859C3.96139 12.861 3.86055 12.5255 3.62797 12.2898L0.297863 8.91531C-0.260229 8.34978 0.0323003 7.39065 0.81101 7.23283Z" fill="#FFD74A"/>
</svg>
