<svg width="32" height="33" viewBox="0 0 32 33" fill="none" xmlns="http://www.w3.org/2000/svg">
<g filter="url(#filter0_b_90_2057)">
<rect y="0.998535" width="32" height="32" fill="white"/>
</g>
<path fill-rule="evenodd" clip-rule="evenodd" d="M15.5208 14.0035L15.5544 14.5571L14.9948 14.4894C12.9579 14.2295 11.1784 13.3482 9.66756 11.8681L8.92891 11.1336L8.73865 11.676C8.33575 12.8849 8.59316 14.1617 9.43253 15.0204C9.8802 15.4949 9.77948 15.5627 9.00725 15.2803C8.73865 15.1899 8.50363 15.1221 8.48124 15.156C8.4029 15.2351 8.6715 16.2633 8.88414 16.67C9.17513 17.2349 9.76828 17.7886 10.4174 18.1162L10.9658 18.3761L10.3167 18.3874C9.68994 18.3874 9.66756 18.3987 9.73471 18.636C9.95854 19.3704 10.8427 20.15 11.8276 20.489L12.5214 20.7262L11.9171 21.0878C11.0218 21.6075 9.96973 21.9013 8.91772 21.9239C8.41409 21.9352 8 21.9804 8 22.0143C8 22.1273 9.36538 22.76 10.16 23.0086C12.5438 23.743 15.3753 23.4266 17.5017 22.1725C19.0126 21.2799 20.5235 19.506 21.2286 17.7886C21.6091 16.8734 21.9896 15.2012 21.9896 14.399C21.9896 13.8792 22.0232 13.8114 22.6499 13.19C23.0192 12.8284 23.3662 12.433 23.4333 12.32C23.5452 12.1053 23.534 12.1053 22.9633 12.2974C22.012 12.6364 21.8777 12.5912 22.3477 12.0827C22.6947 11.7212 23.1088 11.0659 23.1088 10.8738C23.1088 10.8399 22.9409 10.8964 22.7506 10.9981C22.5492 11.111 22.1015 11.2805 21.7658 11.3822L21.1614 11.5743L20.613 11.2014C20.3108 10.9981 19.8856 10.7721 19.6617 10.7043C19.0909 10.5461 18.218 10.5687 17.7032 10.7495C16.3042 11.2579 15.4201 12.5686 15.5208 14.0035Z" fill="#171717"/>
<defs>
<filter id="filter0_b_90_2057" x="-3" y="-2.00146" width="38" height="38" filterUnits="userSpaceOnUse" color-interpolation-filters="sRGB">
<feFlood flood-opacity="0" result="BackgroundImageFix"/>
<feGaussianBlur in="BackgroundImageFix" stdDeviation="1.5"/>
<feComposite in2="SourceAlpha" operator="in" result="effect1_backgroundBlur_90_2057"/>
<feBlend mode="normal" in="SourceGraphic" in2="effect1_backgroundBlur_90_2057" result="shape"/>
</filter>
</defs>
</svg>
